<svg xmlns="http://www.w3.org/2000/svg" xmlns:xlink="http://www.w3.org/1999/xlink" width="230" height="230"><defs><linearGradient xlink:href="#a" id="c" x1="0" x2="1" y1="0" y2="0" gradientTransform="matrix(0 1707.97 1707.97 0 5056.32 15833.7)" spreadMethod="pad"><stop offset="0" stop-color="#900093"/><stop offset=".072" stop-color="#900093"/><stop offset=".5" stop-color="#fb31ff"/><stop offset=".86" stop-color="#69006b"/></linearGradient><linearGradient xlink:href="#a" id="e" x1="0" x2="1" y1="0" y2="0" gradientTransform="matrix(0 1707.97 1707.97 0 2315.67 15833.7)" spreadMethod="pad"><stop offset="0" stop-color="#900093"/><stop offset=".072" stop-color="#900093"/><stop offset=".5" stop-color="#fb31ff"/><stop offset=".86" stop-color="#69006b"/></linearGradient><linearGradient xlink:href="#a" id="g" x1="0" x2="1" y1="0" y2="0" gradientTransform="matrix(0 1947.97 1947.97 0 5056.32 15713.7)" spreadMethod="pad"><stop offset="0" stop-color="#be6d00"/><stop offset=".25" stop-color="#fff57f"/><stop offset=".433" stop-color="#fff57f"/><stop offset=".789" stop-color="#be6d00"/></linearGradient><linearGradient xlink:href="#a" id="i" x1="0" x2="1" y1="0" y2="0" gradientTransform="matrix(0 1947.97 1947.97 0 2315.67 15713.7)" spreadMethod="pad"><stop offset="0" stop-color="#be6d00"/><stop offset=".25" stop-color="#fff57f"/><stop offset=".433" stop-color="#fff57f"/><stop offset=".789" stop-color="#be6d00"/></linearGradient><linearGradient xlink:href="#a" id="k" x1="0" x2="1" y1="0" y2="0" gradientTransform="matrix(0 2252.69 2252.69 0 3685.99 15833.7)" spreadMethod="pad"><stop offset="0" stop-color="#900093"/><stop offset=".072" stop-color="#900093"/><stop offset=".5" stop-color="#fb31ff"/><stop offset=".86" stop-color="#69006b"/></linearGradient><linearGradient xlink:href="#a" id="m" x1="0" x2="1" y1="0" y2="0" gradientTransform="matrix(0 2492.69 2492.69 0 3685.99 15713.7)" spreadMethod="pad"><stop offset="0" stop-color="#be6d00"/><stop offset=".25" stop-color="#fff57f"/><stop offset=".433" stop-color="#fff57f"/><stop offset=".789" stop-color="#be6d00"/></linearGradient><linearGradient id="a" gradientUnits="userSpaceOnUse"/><clipPath id="b"><path d="M5470.45 17541.7c108.91 0 172.7-29.6 191.37-88.7 9.31-24.9 14-68.5 14-130.7s-20.27-139.6-60.71-232.1c-40.44-92.6-89.05-184-145.79-274.2l-171.52-273c-136.9-222.4-205.32-401.3-205.32-536.6 0-34.2-1.54-59.5-4.68-75.9-3.14-16.3-10.91-33.4-23.3-51.3-12.51-17.9-33.08-29.9-61.84-36.2-28.81-6.2-68.07-9.3-117.86-9.3-49.8 0-89.05 3.1-117.81 9.3-28.81 6.3-49.39 18.7-61.84 37.4s-19.8 36.1-22.17 52.5c-2.32 16.3-3.5 42.3-3.5 78.1 0 101.1 17.13 204.9 51.35 311.5 34.2 106.6 75.41 201.9 123.67 285.9 48.2 84 96.4 161.3 144.66 232.2l123.67 181.9c34.16 50.5 51.3 86 51.3 106.2h-531.95c-62.24 0-107.36 7.8-135.35 23.3-27.98 15.5-46.66 38.1-56.02 67.7-9.31 29.5-13.99 68.4-13.99 116.6s4.68 87.1 13.99 116.7c9.36 29.5 24.13 49.8 44.35 60.7 32.66 18.6 77.78 28 135.35 28z"/></clipPath><clipPath id="d"><path d="M2729.8 17541.7c108.91 0 172.7-29.6 191.38-88.7 9.31-24.9 13.99-68.5 13.99-130.7s-20.27-139.6-60.71-232.1c-40.43-92.6-89.04-184-145.79-274.2l-171.52-273c-136.89-222.4-205.31-401.3-205.31-536.6 0-34.2-1.55-59.5-4.69-75.9-3.13-16.3-10.9-33.4-23.3-51.3-12.5-17.9-33.08-29.9-61.84-36.2-28.81-6.2-68.06-9.3-117.86-9.3-49.79 0-89.05 3.1-117.81 9.3-28.81 6.3-49.38 18.7-61.83 37.4s-19.81 36.1-22.18 52.5c-2.31 16.3-3.49 42.3-3.49 78.1 0 101.1 17.13 204.9 51.34 311.5s75.42 201.9 123.67 285.9c48.21 84 96.41 161.3 144.67 232.2l123.67 181.9c34.16 50.5 51.29 86 51.29 106.2h-531.94c-62.25 0-107.37 7.8-135.35 23.3-27.99 15.5-46.66 38.1-56.03 67.7-9.31 29.5-13.99 68.4-13.99 116.6s4.68 87.1 13.99 116.7c9.37 29.5 24.13 49.8 44.35 60.7 32.67 18.6 77.78 28 135.35 28z"/></clipPath><clipPath id="f"><path d="M5470.45 17661.7h-839.94c-78.9 0-142.28-14.1-193.7-43.2-33.2-18.2-76.96-55.3-100.39-129.2-13.21-42-19.6-92-19.6-153s6.39-111 19.55-152.7c18.65-58.9 57.45-106.1 112.21-136.5 47.18-26.2 108.7-38.4 193.6-38.4h326.26l-68.44-100.6c-49.91-73.2-100.23-154-149.58-240-52.16-90.8-97.2-194.7-133.85-308.9-37.88-118-57.09-235.1-57.09-348.2 0-42.2 1.49-72.4 4.69-95 4.99-34.4 18.81-68.7 41.14-102.2 20.82-31.2 61.39-71.9 136.36-88.1 37.34-8 84.17-12 143.13-12 58.92 0 105.76 4 143.19 12 73.71 16 114.04 54.9 134.89 84.8 22.17 32 36.46 64.6 42.75 97.4 4.68 24.3 6.85 55.6 6.85 98.5 0 77.1 32.53 221.9 187.52 473.8l170.87 271.9c59.79 95.1 111.66 192.7 154.21 290.1 47.6 108.9 70.74 200.5 70.74 280.1 0 77.6-6.34 130.1-20.5 169.7-25.74 78.1-99.71 169.7-304.87 169.7zm0-120c108.91 0 172.7-29.6 191.37-88.7 9.31-24.9 14-68.5 14-130.7s-20.27-139.6-60.71-232.1c-40.43-92.6-89.05-184-145.79-274.2l-171.52-273c-136.9-222.4-205.32-401.3-205.32-536.6 0-34.2-1.54-59.5-4.68-75.9-3.14-16.3-10.91-33.4-23.3-51.3-12.5-17.9-33.08-29.9-61.84-36.2-28.81-6.2-68.06-9.3-117.86-9.3s-89.05 3.1-117.81 9.3c-28.81 6.3-49.39 18.7-61.84 37.4-12.44 18.7-19.8 36.1-22.17 52.5-2.32 16.3-3.5 42.3-3.5 78.1 0 101.1 17.13 204.9 51.35 311.6 34.2 106.5 75.41 201.8 123.67 285.8 48.2 84 96.4 161.3 144.66 232.2l123.68 181.9c34.15 50.5 51.29 86 51.29 106.2h-531.95c-62.24 0-107.36 7.8-135.35 23.3-27.98 15.5-46.66 38.1-56.02 67.7-9.31 29.5-13.99 68.4-13.99 116.6s4.68 87.1 13.99 116.7c9.36 29.5 24.13 49.8 44.35 60.7 32.66 18.6 77.78 28 135.35 28h839.94"/></clipPath><clipPath id="h"><path d="M2729.8 17661.7h-839.94c-78.89 0-142.27-14.1-193.68-43.2-33.2-18.2-76.98-55.3-100.4-129.2-13.22-42-19.61-92-19.61-153s6.4-111 19.55-152.7c18.66-58.9 57.45-106.1 112.22-136.5 47.17-26.2 108.69-38.4 193.6-38.4h326.25l-68.43-100.6c-49.92-73.2-100.24-154-149.59-240-52.15-90.8-97.2-194.7-133.85-308.9-37.88-118-57.08-235.1-57.08-348.2 0-42.2 1.49-72.4 4.69-95 4.98-34.4 18.8-68.7 41.14-102.2 20.81-31.2 61.37-71.9 136.35-88.1 37.34-8 84.18-12 143.14-12 58.92 0 105.76 4 143.18 12 73.71 16 114.03 54.9 134.89 84.8 22.17 32 36.47 64.6 42.77 97.4 4.67 24.3 6.84 55.6 6.84 98.5 0 77.1 32.53 221.9 187.51 473.8l170.88 271.9c59.78 95.1 111.65 192.7 154.21 290.1 47.59 108.9 70.73 200.5 70.73 280.1 0 77.6-6.33 130.1-20.5 169.7-25.74 78.1-99.71 169.7-304.87 169.7zm0-120c108.91 0 172.7-29.6 191.38-88.7 9.31-24.9 13.99-68.5 13.99-130.7s-20.27-139.6-60.7-232.1c-40.44-92.6-89.05-184-145.8-274.2l-171.52-273c-136.89-222.4-205.31-401.3-205.31-536.6 0-34.2-1.55-59.5-4.69-75.9-3.13-16.3-10.9-33.4-23.3-51.3-12.5-17.9-33.08-29.9-61.84-36.2-28.81-6.2-68.06-9.3-117.85-9.3-49.8 0-89.06 3.1-117.82 9.3-28.81 6.3-49.38 18.7-61.83 37.4s-19.81 36.1-22.18 52.5c-2.31 16.3-3.49 42.3-3.49 78.1 0 101.1 17.13 204.9 51.34 311.6 34.21 106.5 75.42 201.8 123.67 285.8 48.21 84 96.41 161.3 144.67 232.2l123.67 181.9c34.16 50.5 51.29 86 51.29 106.2h-531.94c-62.25 0-107.37 7.8-135.35 23.3-27.99 15.5-46.66 38.1-56.02 67.7-9.32 29.5-14 68.4-14 116.6s4.68 87.1 14 116.7c9.36 29.5 24.12 49.8 44.34 60.7 32.67 18.6 77.78 28 135.35 28h839.94"/></clipPath><clipPath id="j"><path d="M4232.2 18086.4c143.64 0 227.78-39 252.41-117 12.28-32.8 18.46-90.3 18.46-172.3s-26.74-184.2-80.07-306.2c-53.33-122.1-117.45-242.6-192.29-361.6l-226.22-360c-180.55-293.4-270.8-529.4-270.8-707.9 0-45.1-2.03-78.4-6.17-100-4.14-21.5-14.39-44.1-30.74-67.7-16.49-23.6-43.63-39.5-81.56-47.7-37.99-8.2-89.77-12.3-155.44-12.3-65.69 0-117.46 4.1-155.39 12.3-37.99 8.2-65.14 24.6-81.55 49.3-16.42 24.6-26.13 47.7-29.25 69.2-3.05 21.5-4.62 55.9-4.62 103.1 0 133.3 22.6 270.3 67.72 410.8 45.13 140.6 99.47 266.2 163.12 377 63.58 110.8 127.15 212.8 190.8 306.3l163.12 239.9c45.05 66.7 67.64 113.4 67.64 140.1h-701.58c-82.11 0-141.61 10.2-178.53 30.7-36.9 20.5-61.54 50.3-73.89 89.3-12.28 39-18.45 90.3-18.45 153.8 0 63.6 6.17 114.9 18.45 153.9 12.35 39 31.82 65.7 58.49 80 43.09 24.7 102.6 37 178.52 37z"/></clipPath><clipPath id="l"><path d="M4232.2 18206.4H3124.38c-97.39 0-174.87-17-236.83-52.1-37.6-20.6-87.41-63-114.56-148.6-16.22-51.5-24.07-113.7-24.07-190.2s7.85-138.6 24.01-189.9c21.6-68.2 66.56-122.8 130.08-158.1 56.33-31.2 131.56-45.8 236.78-45.8h502.55l-130.89-192.5c-65.28-95.8-131.13-201.5-195.72-314-67.46-117.5-125.77-252.1-173.29-400.1-48.75-151.8-73.46-302.4-73.46-447.5 0-53.9 1.84-92 5.81-119.9 5.73-39.7 21.93-79.6 48.19-119 23.56-35.3 69.74-81.3 156.06-100 46.55-10.1 105.68-15 180.74-15 75.01 0 134.15 4.9 180.8 15 68.3 14.8 120.3 47.2 154.59 96.3 26.09 37.7 42.89 75.8 50.19 113.8 5.68 29.6 8.33 68.6 8.33 122.6 0 155.2 85.12 372.2 253 645l225.58 359c77.83 123.7 145.35 250.7 200.7 377.5 60.62 138.7 90.1 254.5 90.1 354.2 0 96.6-7.94 164-24.96 211.4-29.86 91-117.78 197.9-365.91 197.9zm0-120c143.64 0 227.78-39 252.41-117 12.28-32.8 18.46-90.3 18.46-172.3s-26.74-184.2-80.07-306.2c-53.33-122.1-117.45-242.6-192.29-361.6l-226.22-360c-180.55-293.4-270.8-529.4-270.8-707.9 0-45.1-2.03-78.4-6.17-100-4.14-21.5-14.39-44.1-30.74-67.7-16.49-23.6-43.63-39.5-81.56-47.7-37.99-8.2-89.77-12.3-155.44-12.3-65.68 0-117.46 4.1-155.39 12.3-37.99 8.2-65.13 24.6-81.55 49.3-16.42 24.6-26.13 47.7-29.25 69.2-3.05 21.5-4.61 55.9-4.61 103.1 0 133.3 22.59 270.3 67.71 410.8 45.13 140.6 99.48 266.2 163.12 377 63.58 110.8 127.15 212.8 190.8 306.3l163.12 239.9c45.05 66.7 67.65 113.4 67.65 140.1h-701.59c-82.1 0-141.61 10.2-178.53 30.7-36.9 20.5-61.53 50.3-73.89 89.3-12.28 39-18.45 90.3-18.45 153.8 0 63.6 6.17 114.9 18.45 153.9 12.36 39 31.83 65.7 58.49 80 43.09 24.7 102.6 37 178.52 37H4232.2"/></clipPath></defs><g clip-path="url(#b)" transform="matrix(.05002 0 0 -.05002 -68.487 961.863)"><path fill="url(#c)" d="M5083.22 16300c101.2 0 160.48-27.5 177.83-82.4 8.65-23.1 13.01-63.6 13.01-121.4s-18.84-129.8-56.42-215.7c-37.57-86.1-82.74-171-135.47-254.8L4922.8 15372c-127.21-206.7-190.79-372.9-190.79-498.6 0-31.8-1.43-55.3-4.35-70.5s-10.14-31.1-21.65-47.7c-11.62-16.7-30.74-27.8-57.46-33.6-26.77-5.8-63.26-8.7-109.52-8.7-46.28 0-82.75 2.9-109.47 8.7-26.77 5.8-45.89 17.3-57.46 34.7-11.57 17.3-18.4 33.6-20.6 48.8-2.16 15.1-3.26 39.3-3.26 72.6 0 93.9 15.92 190.4 47.72 289.4 31.78 99.1 70.07 187.6 114.91 265.6 44.79 78.1 89.58 150 134.42 215.8l114.92 169.1c31.74 46.9 47.67 79.8 47.67 98.6h-494.3c-57.83 0-99.76 7.3-125.76 21.7s-43.36 35.4-52.06 62.9c-8.65 27.4-13 63.6-13 108.4s4.35 80.9 13 108.4c8.7 27.4 22.42 46.3 41.21 56.3 30.35 17.4 72.28 26.1 125.77 26.1h780.48" transform="scale(1.07618)"/></g><g clip-path="url(#d)" transform="matrix(.05002 0 0 -.05002 -68.487 961.863)"><path fill="url(#e)" d="M2536.57 16300c101.2 0 160.48-27.5 177.83-82.4 8.66-23.1 13.01-63.6 13.01-121.4s-18.84-129.8-56.42-215.7c-37.57-86.1-82.73-171-135.47-254.8l-159.38-253.7c-127.2-206.7-190.78-372.9-190.78-498.6 0-31.8-1.44-55.3-4.35-70.5s-10.13-31.1-21.65-47.7c-11.62-16.7-30.74-27.8-57.47-33.6-26.77-5.8-63.24-8.7-109.52-8.7-46.26 0-82.74 2.9-109.46 8.7-26.77 5.8-45.89 17.3-57.46 34.7-11.57 17.3-18.41 33.6-20.61 48.8-2.15 15.1-3.24 39.3-3.24 72.6 0 93.9 15.92 190.4 47.7 289.4 31.79 99.1 70.09 187.6 114.92 265.6 44.8 78.1 89.59 150 134.43 215.8l114.92 169.1c31.74 46.9 47.66 79.8 47.66 98.6h-494.29c-57.85 0-99.77 7.3-125.77 21.7-26.01 14.4-43.36 35.4-52.06 62.9-8.65 27.4-13 63.6-13 108.4s4.35 80.9 13 108.4c8.7 27.4 22.42 46.3 41.21 56.3 30.35 17.4 72.27 26.1 125.77 26.1h780.48" transform="scale(1.07618)"/></g><g clip-path="url(#f)" transform="matrix(.05002 0 0 -.05002 -68.487 961.863)"><path fill="url(#g)" d="M5048.69 16300h-775.18c-72.82 0-131.32-13-178.77-39.8-30.64-16.9-71.03-51.1-92.65-119.3-12.19-38.8-18.09-84.9-18.09-141.2s5.9-102.4 18.04-140.9c17.21-54.4 53.02-98 103.56-126 43.54-24.2 100.32-35.5 178.67-35.5h301.11l-63.16-92.8c-46.07-67.6-92.51-142.1-138.05-221.5-48.14-83.8-89.71-179.7-123.53-285-34.96-109-52.69-217.1-52.69-321.4 0-39 1.37-66.9 4.33-87.7 4.6-31.8 17.36-63.4 37.97-94.3 19.21-28.8 56.65-66.4 125.85-81.3 34.46-7.4 77.67-11.1 132.09-11.1 54.37 0 97.6 3.6 132.15 11.1 68.03 14.7 105.25 50.7 124.49 78.2 20.46 29.6 33.65 59.7 39.45 89.9 4.32 22.5 6.33 51.3 6.33 90.9 0 71.2 30.02 204.8 173.06 437.3l157.69 250.9c55.18 87.8 103.06 177.8 142.33 267.8 43.92 100.4 65.28 185 65.28 258.5 0 71.5-5.85 120.1-18.92 156.6-23.75 72.1-92.02 156.6-281.36 156.6zm0-110.7c100.51 0 159.38-27.3 176.61-81.9 8.59-23 12.92-63.2 12.92-120.6s-18.7-128.9-56.03-214.2c-37.31-85.5-82.18-169.8-134.55-253.1l-158.29-251.9c-126.35-205.3-189.49-370.4-189.49-495.3 0-31.6-1.42-54.9-4.32-70-2.9-15-10.07-30.8-21.51-47.4-11.53-16.5-30.52-27.6-57.07-33.3-26.59-5.8-62.81-8.6-108.77-8.6s-82.19 2.8-108.73 8.6c-26.59 5.7-45.58 17.2-57.07 34.4-11.48 17.3-18.27 33.4-20.46 48.5-2.14 15-3.23 39.1-3.23 72.1 0 93.3 15.81 189.1 47.39 287.5 31.56 98.3 69.59 186.3 114.13 263.8 44.49 77.5 88.97 148.9 133.51 214.3l114.15 167.9c31.51 46.6 47.33 79.3 47.33 98h-490.94c-57.44 0-99.08 7.2-124.91 21.5-25.82 14.3-43.06 35.2-51.7 62.5-8.59 27.2-12.91 63.1-12.91 107.6s4.32 80.4 12.91 107.7c8.64 27.3 22.27 45.9 40.93 56 30.14 17.2 71.78 25.9 124.92 25.9h775.18" transform="scale(1.08354)"/></g><g clip-path="url(#h)" transform="matrix(.05002 0 0 -.05002 -68.487 961.863)"><path fill="url(#i)" d="M2519.34 16300h-775.19c-72.8 0-131.3-13-178.74-39.8-30.64-16.9-71.05-51.1-92.66-119.3-12.2-38.8-18.1-84.9-18.1-141.2s5.91-102.4 18.04-140.9c17.22-54.4 53.02-98 103.57-126 43.53-24.2 100.31-35.5 178.67-35.5h301.1l-63.15-92.8c-46.07-67.6-92.51-142.1-138.06-221.5-48.13-83.8-89.71-179.7-123.53-285-34.96-109-52.68-217.1-52.68-321.4 0-39 1.38-66.9 4.33-87.7 4.6-31.8 17.35-63.4 37.97-94.3 19.2-28.8 56.63-66.4 125.83-81.3 34.46-7.4 77.69-11.1 132.11-11.1 54.38 0 97.61 3.6 132.14 11.1 68.03 14.7 105.24 50.7 124.49 78.2 20.46 29.6 33.66 59.7 39.47 89.9 4.31 22.5 6.31 51.3 6.31 90.9 0 71.2 30.03 204.8 173.06 437.3l157.7 250.9c55.18 87.8 103.04 177.8 142.33 267.8 43.92 100.4 65.27 185 65.27 258.5 0 71.5-5.84 120.1-18.92 156.6-23.75 72.1-92.02 156.6-281.36 156.6zm0-110.7c100.51 0 159.38-27.3 176.62-81.9 8.6-23 12.91-63.2 12.91-120.6s-18.71-128.9-56.02-214.2c-37.32-85.5-82.18-169.8-134.55-253.1l-158.3-251.9c-126.34-205.3-189.48-370.4-189.48-495.3 0-31.6-1.43-54.9-4.33-70-2.89-15-10.06-30.8-21.5-47.4-11.54-16.5-30.54-27.6-57.08-33.3-26.59-5.8-62.81-8.6-108.76-8.6-45.96 0-82.19 2.8-108.74 8.6-26.59 5.7-45.57 17.2-57.06 34.4-11.49 17.3-18.28 33.4-20.47 48.5-2.13 15-3.22 39.1-3.22 72.1 0 93.3 15.81 189.1 47.38 287.5 31.57 98.3 69.61 186.3 114.14 263.8 44.49 77.5 88.97 148.9 133.51 214.3l114.14 167.9c31.52 46.6 47.33 79.3 47.33 98h-490.93c-57.45 0-99.09 7.2-124.91 21.5-25.83 14.3-43.06 35.2-51.7 62.5-8.6 27.2-12.92 63.1-12.92 107.6s4.32 80.4 12.92 107.7c8.64 27.3 22.26 45.9 40.92 56 30.15 17.2 71.78 25.9 124.91 25.9h775.19" transform="scale(1.08354)"/></g><g clip-path="url(#j)" transform="matrix(.05002 0 0 -.05002 -68.487 961.863)"><path fill="url(#k)" d="M3814.18 16300c129.45 0 205.28-35.2 227.48-105.4 11.07-29.6 16.64-81.4 16.64-155.4 0-73.9-24.1-165.9-72.16-275.9s-105.85-218.6-173.3-325.9l-203.88-324.5c-162.71-264.4-244.05-477-244.05-637.9 0-40.6-1.83-70.7-5.56-90.1s-12.97-39.8-27.7-61c-14.87-21.3-39.33-35.6-73.51-43-34.24-7.4-80.9-11.1-140.08-11.1-59.21 0-105.86 3.7-140.05 11.1-34.24 7.4-58.7 22.2-73.49 44.4-14.8 22.2-23.55 43-26.36 62.4-2.75 19.4-4.17 50.3-4.17 92.9 0 120.2 20.37 243.6 61.04 370.3 40.67 126.6 89.64 239.9 147 339.7 57.3 99.9 114.59 191.8 171.96 276l147.01 216.3c40.6 60 60.96 102.1 60.96 126.2h-632.29c-74 0-127.62 9.2-160.89 27.7-33.26 18.5-55.47 45.3-66.6 80.5-11.07 35.1-16.62 81.3-16.62 138.6s5.55 103.5 16.62 138.7c11.13 35.1 28.68 59.2 52.71 72.1 38.84 22.2 92.47 33.3 160.89 33.3h998.4" transform="scale(1.1096)"/></g><g clip-path="url(#l)" transform="matrix(.05002 0 0 -.05002 -68.487 961.863)"><path fill="url(#m)" d="M3789.04 16300h-991.82c-87.19 0-156.55-15.3-212.03-46.6-33.66-18.5-78.25-56.5-102.56-133.1-14.52-46.1-21.55-101.8-21.55-170.2 0-68.6 7.03-124.2 21.49-170.1 19.34-61 59.59-110 116.46-141.5 50.43-28 117.79-41 211.99-41h449.93l-117.19-172.4c-58.44-85.8-117.4-180.4-175.22-281.1-60.4-105.2-112.6-225.7-155.15-358.2-43.64-136-65.77-270.8-65.77-400.7 0-48.2 1.65-82.3 5.21-107.3 5.13-35.5 19.63-71.3 43.14-106.5 21.09-31.7 62.44-72.9 139.72-89.6 41.67-9 94.61-13.4 161.81-13.4 67.16 0 120.11 4.4 161.87 13.4 61.15 13.3 107.7 42.3 138.41 86.3 23.35 33.7 38.39 67.8 44.93 101.8 5.08 26.5 7.46 61.4 7.46 109.8 0 138.9 76.2 333.2 226.51 577.4l201.95 321.4c69.69 110.8 130.14 224.6 179.69 338.1 54.27 124.1 80.66 227.8 80.66 317 0 86.6-7.11 146.8-22.34 189.3-26.74 81.4-105.45 177.2-327.6 177.2zm0-107.4c128.6 0 203.93-35 225.98-104.8 11-29.4 16.53-80.8 16.53-154.3 0-73.4-23.94-164.8-71.69-274.1-47.74-109.3-105.15-217.2-172.15-323.7l-202.54-322.4c-161.64-262.6-242.44-473.9-242.44-633.7 0-40.4-1.82-70.2-5.52-89.5-3.71-19.3-12.89-39.5-27.52-60.6-14.77-21.2-39.07-35.4-73.02-42.7-34.01-7.4-80.37-11-139.17-11s-105.16 3.6-139.12 11c-34.01 7.3-58.3 22-73.01 44-14.7 22.1-23.39 42.8-26.18 62.1-2.74 19.2-4.13 50-4.13 92.2 0 119.4 20.22 242 60.62 367.9 40.4 125.8 89.06 238.3 146.04 337.5 56.92 99.2 113.84 190.5 170.82 274.1l146.04 214.9c40.33 59.7 60.56 101.5 60.56 125.4h-628.12c-73.5 0-126.78 9.2-159.83 27.5-33.04 18.4-55.09 45-66.16 79.9-10.99 34.9-16.52 80.8-16.52 137.8 0 56.9 5.53 102.8 16.52 137.7 11.07 34.9 28.5 58.8 52.37 71.7 38.57 22 91.85 33.1 159.82 33.1h991.82" transform="scale(1.11696)"/></g><path fill="#683600" d="M143.209 48.9H87.795c-5.276 0-9.517.947-12.967 2.901-2.2 1.204-5.189 3.708-6.779 8.726-.883 2.8-1.311 6.139-1.311 10.199 0 1.972.102 3.764.31 5.422H26.044c-4.35 0-7.885.801-10.807 2.453-1.982 1.087-4.668 3.327-6.073 7.757-.731 2.324-1.087 5.052-1.087 8.34s.354 6.01 1.083 8.323c1.112 3.512 3.422 6.324 6.679 8.133 2.711 1.507 6.139 2.207 10.789 2.207h12.018l-1.003 1.473c-2.527 3.708-5.076 7.797-7.575 12.154-2.687 4.677-5.006 10.026-6.888 15.884-1.967 6.133-2.965 12.227-2.965 18.114 0 2.224.082 3.837.258 5.075.297 2.061 1.111 4.094 2.417 6.055 1.274 1.91 3.738 4.397 8.233 5.366 2.029.442 4.528.655 7.64.655s5.612-.213 7.643-.655c4.409-.952 6.855-3.333 8.132-5.159 1.291-1.865 2.133-3.797 2.508-5.747.262-1.361.383-3.064.383-5.355 0-2.918 1.175-9.723 9.042-22.505l8.535-13.582c3.05-4.85 5.699-9.835 7.873-14.815 2.509-5.741 3.729-10.619 3.729-14.921 0-.986-.021-1.893-.062-2.739a47.11 47.11 0 0 0 2.019.045h20.841l-4.131 6.066c-3.298 4.845-6.623 10.177-9.884 15.862-3.454 6.01-6.435 12.894-8.861 20.444-2.51 7.825-3.783 15.588-3.783 23.082 0 2.806.099 4.817.313 6.318.335 2.324 1.267 4.638 2.77 6.895 1.411 2.117 4.156 4.867 9.219 5.965 2.489.538 5.603.801 9.521.801s7.031-.263 9.525-.801c3.996-.868 7.064-2.801 9.118-5.741 1.487-2.145 2.454-4.352 2.878-6.564.313-1.624.458-3.713.458-6.564 0-7.332 4.144-17.783 12.317-31.069l11.271-17.934.137-.218a13.76 13.76 0 0 0 2.651 1.91c2.711 1.507 6.139 2.207 10.788 2.207h12.018l-1.003 1.473c-2.529 3.713-5.078 7.802-7.575 12.154-2.688 4.682-5.006 10.026-6.888 15.884-1.968 6.133-2.965 12.227-2.965 18.114 0 2.224.082 3.837.258 5.075.299 2.061 1.111 4.094 2.417 6.055 1.275 1.916 3.739 4.397 8.234 5.366 2.029.442 4.527.655 7.639.655s5.612-.213 7.643-.655c4.409-.952 6.856-3.333 8.133-5.159 1.29-1.865 2.132-3.792 2.507-5.741.262-1.367.384-3.069.384-5.36 0-2.918 1.175-9.723 9.042-22.505l8.535-13.582c3.05-4.85 5.699-9.835 7.873-14.815 2.508-5.741 3.728-10.619 3.728-14.921 0-4.162-.357-7.018-1.159-9.258-1.218-3.697-5.125-9.992-17.392-9.992H164.68c.234-1.585.351-3.086.351-4.498 0-5.114-.439-8.715-1.382-11.342-1.697-5.175-6.641-11.409-20.445-11.409zm0 2.274c12.411 0 16.809 5.349 18.303 9.903.851 2.369 1.248 5.741 1.248 10.575 0 2.117-.284 4.391-.823 6.828.402-.017.776-.056 1.194-.056h42.014c10.263 0 13.962 4.582 15.25 8.486.709 1.983 1.026 4.61 1.026 8.491 0 3.982-1.158 8.564-3.538 14.008-2.128 4.878-4.724 9.757-7.714 14.512l-8.547 13.605c-7.752 12.597-9.379 19.839-9.379 23.698 0 2.145-.109 3.708-.343 4.929-.315 1.635-1.03 3.265-2.138 4.867-1.043 1.495-3.06 3.445-6.748 4.24-1.872.403-4.215.599-7.163.599s-5.292-.196-7.159-.599c-3.751-.807-5.78-2.845-6.821-4.402-1.117-1.675-1.809-3.394-2.058-5.114-.16-1.131-.235-2.638-.235-4.755 0-5.651.961-11.51 2.855-17.414 1.833-5.713 4.086-10.911 6.695-15.453 2.469-4.302 4.986-8.34 7.482-12.003l3.423-5.03h-16.32c-4.247 0-7.324-.611-9.684-1.921-1.702-.947-3.053-2.246-4.088-3.781l-1.73 2.862-11.284 17.957c-8.397 13.65-12.654 24.504-12.654 32.262 0 2.705-.133 4.654-.417 6.139-.365 1.893-1.205 3.803-2.51 5.691-1.716 2.453-4.317 4.072-7.733 4.817-2.333.504-5.292.745-9.044.745s-6.712-.241-9.04-.745c-4.318-.935-6.628-3.237-7.806-5.002-1.314-1.972-2.124-3.971-2.411-5.954-.198-1.395-.291-3.299-.291-5.999 0-7.259 1.236-14.787 3.675-22.387 2.377-7.399 5.294-14.131 8.668-20.007 3.231-5.629 6.525-10.916 9.79-15.711l6.546-9.628H88.566c-1.652 0-3.14-.078-4.514-.224.19 1.439.282 3.137.282 5.198 0 3.982-1.157 8.564-3.538 14.014-2.128 4.873-4.723 9.751-7.714 14.507l-8.547 13.605c-7.752 12.597-9.379 19.839-9.379 23.698 0 2.145-.109 3.708-.343 4.929-.315 1.635-1.03 3.265-2.139 4.867-1.043 1.495-3.061 3.445-6.747 4.24-1.872.403-4.215.599-7.163.599s-5.292-.196-7.159-.599c-3.751-.807-5.78-2.845-6.821-4.402-1.117-1.68-1.808-3.394-2.057-5.114-.161-1.131-.235-2.638-.235-4.755 0-5.651.961-11.51 2.856-17.414 1.833-5.713 4.086-10.911 6.695-15.453 2.468-4.302 4.985-8.34 7.482-12.003l3.423-5.03h-16.32c-4.247 0-7.324-.611-9.684-1.921-2.739-1.523-4.68-3.881-5.613-6.828-.658-2.089-.978-4.587-.978-7.64s.32-5.551.981-7.651c1.172-3.697 3.362-5.556 5.022-6.469 2.571-1.451 5.742-2.156 9.687-2.156h42.014a27.64 27.64 0 0 1 1.699.05c-.493-2.201-.743-4.744-.743-7.746 0-3.825.392-6.934 1.204-9.51 1.358-4.285 3.849-6.402 5.73-7.433 3.098-1.759 6.974-2.61 11.846-2.61h55.413"/><path fill="#fff" d="M159.341 60.44a9.217 9.217 0 0 0-5.899 5.9 9.22 9.22 0 0 0-5.9-5.9 9.22 9.22 0 0 0 5.9-5.9 9.217 9.217 0 0 0 5.899 5.9m-7.82 11.578a6.37 6.37 0 0 0-4.08 4.08 6.36 6.36 0 0 0-4.079-4.08 6.364 6.364 0 0 0 4.079-4.08 6.364 6.364 0 0 0 4.08 4.08m66.087 16.496a6.37 6.37 0 0 0-4.079 4.08 6.37 6.37 0 0 0-4.08-4.08 6.37 6.37 0 0 0 4.08-4.08 6.37 6.37 0 0 0 4.079 4.08"/></svg>