<?xml version="1.0" encoding="UTF-8" standalone="no"?>
<!-- Created with Inkscape (http://www.inkscape.org/) -->

<svg
   width="230.0px"
   height="230.0px"
   viewBox="0 0 230.0 230.0"
   version="1.1"
   id="SVGRoot"
   inkscape:version="1.2.2 (1:1.2.2+202212051550+b0a8486541)"
   xmlns:inkscape="http://www.inkscape.org/namespaces/inkscape"
   xmlns:xlink="http://www.w3.org/1999/xlink"
   xmlns="http://www.w3.org/2000/svg"
   xmlns:svg="http://www.w3.org/2000/svg">
  <defs
      id="defs6426">
    <clipPath
        clipPathUnits="userSpaceOnUse"
        id="clipPath741">
      <path
          d="m 3685.99,2767 c -18.23,0 -36.33,0.1 -54.46,0.3 v 452.1 c 0,26 -1.86,45.2 -5.55,57.8 -9.65,27.4 -40.4,41.2 -92.27,41.2 -47.45,0 -76.37,-10 -86.74,-30.1 -5.92,-11.1 -9.43,-20.9 -10.56,-29.4 -1.1,-8.5 -1.65,-21.3 -1.65,-38.4 v -447.3 c -71.98,3.6 -142.95,8.7 -212.81,15.3 l 138.3,399.8 c 8.91,26.7 13.37,44.8 13.37,54.5 0,29.6 -24.87,53.4 -74.51,71.1 -20.02,7.4 -37.44,11.1 -52.24,11.1 -14.85,0 -27.24,-3.9 -37.25,-11.6 -10.01,-7.8 -16.87,-15.8 -20.56,-23.9 -3.73,-8.2 -8.55,-20.8 -14.46,-37.8 l -122.3,-373.6 -127.87,385.8 c -4.45,11.8 -14.82,23.9 -31.12,36.1 -16.32,12.3 -33.93,18.4 -52.82,18.4 -18.91,0 -34.29,-2.6 -46.13,-7.8 -27.43,-11.9 -46.35,-33.4 -56.72,-64.5 L 2618.66,2887 c -1.61,0.4 -3.18,0.7 -4.79,1.1 l -119.71,363.6 c -7.41,24.4 -15.77,42.6 -25.02,54.4 -9.27,11.9 -22.61,17.8 -40.03,17.8 -17.42,0 -36.89,-3.7 -58.37,-11.1 -49.67,-17 -74.48,-40.4 -74.48,-70 0,-11.9 4.06,-30 12.21,-54.5 l 83.14,-239.1 c -155.75,48.5 -298.26,105.4 -424.33,169.4 v 669.5 c 0,120 97.62,217.6 217.61,217.6 H 5187.1 c 119.98,0 217.6,-97.6 217.6,-217.6 v -669.5 c -99.04,-50.3 -208.18,-96.2 -325.95,-137 -12.96,84.9 -52.14,158.5 -117.51,220.6 -81.52,77.4 -176.05,116.2 -283.51,116.2 l -205.67,1.1 c -47.45,0 -76.38,-10 -86.75,-30 -5.92,-11.2 -9.42,-20.8 -10.56,-29 -1.09,-8.1 -1.64,-21.1 -1.64,-38.9 v -406.8 c -146.31,-20.9 -298.77,-35.3 -455.84,-42.5 v 447.1 c 0,26 -1.86,45.2 -5.55,57.8 -9.64,27.4 -40.4,41.2 -92.27,41.2 -47.45,0 -76.37,-10 -86.75,-30.1 -5.92,-11.1 -9.43,-20.9 -10.55,-29.4 -1.1,-8.5 -1.65,-21.3 -1.65,-38.4 v -453.4 c -11.5,0 -22.97,-0.1 -34.51,-0.1 m -815.17,68.1 c -23.03,4 -45.93,8.2 -68.61,12.5 9.93,29.3 20.64,61 32.15,95 l 36.46,-107.5 m 1699.05,12.5 v 274 h 106.76 c 56.32,0 105.42,-20.2 147.31,-60.6 39.23,-37.9 60.11,-84.4 62.57,-139.5 -100.81,-28.2 -206.61,-52.9 -316.64,-73.9"
          id="path739" />
    </clipPath>
    <linearGradient
        x1="0"
        y1="0"
        x2="1"
        y2="0"
        gradientUnits="userSpaceOnUse"
        gradientTransform="matrix(0,2252.69,2252.69,0,3685.99,1913)"
        spreadMethod="pad"
        id="linearGradient753">
      <stop
          style="stop-opacity:1;stop-color:#3d6b00"
          offset="0"
          id="stop743" />
      <stop
          style="stop-opacity:1;stop-color:#3d6b00"
          offset="0.14005471"
          id="stop745" />
      <stop
          style="stop-opacity:1;stop-color:#a6ff31"
          offset="0.5"
          id="stop747" />
      <stop
          style="stop-opacity:1;stop-color:#549300"
          offset="0.9276977"
          id="stop749" />
      <stop
          style="stop-opacity:1;stop-color:#549300"
          offset="1"
          id="stop751" />
    </linearGradient>
    <clipPath
        clipPathUnits="userSpaceOnUse"
        id="clipPath763">
      <path
          d="M 5187.1,2073 H 2184.89 c -119.99,0 -217.61,97.7 -217.61,217.7 v 827.9 c 126.07,-64 268.58,-120.9 424.33,-169.4 l 131.45,-378 7.77,-16.7 c 5.19,-11.1 15.38,-22.2 30.57,-33.3 15.2,-11.1 34.67,-16.7 58.4,-16.7 23.72,0 44.1,8.5 61.15,25.6 6.65,6.7 12.6,14.1 17.79,22.2 5.16,8.2 8.51,14.5 10,18.9 1.27,3.9 32.44,96 93.47,276.4 22.68,-4.3 45.58,-8.5 68.61,-12.5 l 93.64,-276.1 c 5.19,-11.9 15.75,-23.9 31.67,-36.1 15.93,-12.3 34.85,-18.4 56.72,-18.4 21.85,0 40.77,6.1 56.69,18.4 15.93,12.2 25.75,22 29.48,29.4 3.69,7.4 6.28,13.7 7.78,18.9 l 75.15,217.3 c 69.86,-6.6 140.83,-11.7 212.81,-15.3 v -170.8 c 0,-26 2.2,-44.9 6.66,-56.7 8.9,-28.2 39.29,-42.3 91.16,-42.3 47.45,0 76.34,10 86.74,30 5.92,11.1 9.44,20.8 10.56,28.9 1.1,8.2 1.65,21.2 1.65,39 v 166 c 18.13,-0.2 36.23,-0.3 54.46,-0.3 11.54,0 23.01,0.1 34.51,0.1 v -164.7 c 0,-26 2.19,-44.9 6.66,-56.7 8.9,-28.2 39.29,-42.3 91.16,-42.3 h 400.28 c 24.43,0 43.72,3.7 57.78,11.1 8.91,4.5 15.2,12.6 18.92,24.5 3.7,11.8 5.55,27.6 5.55,47.2 0,19.7 -1.85,35.4 -5.55,47.3 -3.72,11.8 -11.1,20.6 -22.24,26.1 -11.1,5.6 -28.89,8.3 -53.36,8.3 h -302.43 v 104.4 c 157.07,7.2 309.53,21.6 455.84,42.5 v -211.3 c 0,-31.9 4.42,-55.6 13.33,-71.2 11.1,-18.5 39.27,-27.8 84.48,-27.8 h 203.48 c 113.42,0 209.95,40.4 289.62,121.2 79.66,80.8 119.54,177.7 119.54,290.7 0,22.4 -1.6,44.1 -4.81,65.2 117.77,40.8 226.91,86.7 325.95,137 v -827.9 c 0,-120 -97.62,-217.7 -217.6,-217.7 m -509.37,628.3 h -107.86 v 146.3 c 110.03,21 215.83,45.7 316.64,73.9 0.17,-3.7 0.25,-7.4 0.25,-11.2 0,-60 -21.51,-109.9 -64.5,-149.5 -42.99,-39.7 -91.17,-59.5 -144.53,-59.5 m -2061.28,179 -2.58,7.8 c 1.61,-0.4 3.18,-0.7 4.79,-1.1 l -2.21,-6.7"
          id="path761" />
    </clipPath>
    <linearGradient
        x1="0"
        y1="0"
        x2="1"
        y2="0"
        gradientUnits="userSpaceOnUse"
        gradientTransform="matrix(0,2252.69,2252.69,0,3685.99,1913)"
        spreadMethod="pad"
        id="linearGradient775">
      <stop
          style="stop-opacity:1;stop-color:#315600"
          offset="0"
          id="stop765" />
      <stop
          style="stop-opacity:1;stop-color:#315600"
          offset="0.14005471"
          id="stop767" />
      <stop
          style="stop-opacity:1;stop-color:#85cc27"
          offset="0.5"
          id="stop769" />
      <stop
          style="stop-opacity:1;stop-color:#437600"
          offset="0.9276977"
          id="stop771" />
      <stop
          style="stop-opacity:1;stop-color:#437600"
          offset="1"
          id="stop773" />
    </linearGradient>
    <clipPath
        clipPathUnits="userSpaceOnUse"
        id="clipPath785">
      <path
          d="m 5187.1,1913 v 0 c 208.54,0 377.6,169.1 377.6,377.7 0,-208.6 -169.06,-377.7 -377.6,-377.7 m -3010.74,0.1 c -4.46,0.1 -8.89,0.3 -13.31,0.6 -198.39,11.3 -355.76,175.7 -355.76,377 v 0 c 0,-205.7 164.46,-373 369.07,-377.6 M 5404.7,3118.6 v 669.5 c 0,120 -97.62,217.6 -217.6,217.6 H 2184.89 c -119.99,0 -217.61,-97.6 -217.61,-217.6 v -669.5 c -56.76,28.8 -110.16,59 -159.99,90.5 v 579 c 0,208.6 169.05,377.6 377.6,377.6 H 5187.1 c 208.54,0 377.6,-169 377.6,-377.6 v -579 c -49.84,-31.5 -103.24,-61.7 -160,-90.5"
          id="path783" />
    </clipPath>
    <clipPath
        clipPathUnits="userSpaceOnUse"
        id="clipPath807">
      <path
          d="M 5187.1,1913 H 2184.89 c -2.85,0 -5.69,0.1 -8.53,0.1 -204.61,4.6 -369.07,171.9 -369.07,377.6 v 918.4 c 49.83,-31.5 103.23,-61.7 159.99,-90.5 v -827.9 c 0,-120 97.62,-217.7 217.61,-217.7 H 5187.1 c 119.98,0 217.6,97.7 217.6,217.7 v 827.9 c 56.76,28.8 110.16,59 160,90.5 v -918.4 0 c 0,-208.6 -169.06,-377.7 -377.61,-377.7"
          id="path805" />
    </clipPath>
    <linearGradient
        x1="0"
        y1="0"
        x2="1"
        y2="0"
        gradientUnits="userSpaceOnUse"
        gradientTransform="matrix(0,2252.69,2252.69,0,3685.99,1913)"
        spreadMethod="pad"
        id="linearGradient819">
      <stop
          style="stop-opacity:1;stop-color:#274500"
          offset="0"
          id="stop809" />
      <stop
          style="stop-opacity:1;stop-color:#274500"
          offset="0.14005471"
          id="stop811" />
      <stop
          style="stop-opacity:1;stop-color:#6aa31f"
          offset="0.5"
          id="stop813" />
      <stop
          style="stop-opacity:1;stop-color:#365e00"
          offset="0.9276977"
          id="stop815" />
      <stop
          style="stop-opacity:1;stop-color:#365e00"
          offset="1"
          id="stop817" />
    </linearGradient>
    <clipPath
        clipPathUnits="userSpaceOnUse"
        id="clipPath829">
      <path
          d="M 5187.1,1793 H 2184.89 c -274.38,0 -497.61,223.3 -497.61,497.7 v 1497.4 c 0,274.4 223.23,497.6 497.61,497.6 H 5187.1 c 274.37,0 497.6,-223.2 497.6,-497.6 V 2290.7 c 0,-274.4 -223.23,-497.7 -497.6,-497.7 m -3379.81,497.7 v 0 c 0,-208.6 169.05,-377.7 377.6,-377.7 H 5187.1 c 208.54,0 377.6,169.1 377.6,377.7 v 1497.4 0 c 0,208.6 -169.06,377.6 -377.6,377.6 H 2184.89 c -208.55,0 -377.6,-169 -377.6,-377.6 v -579 -918.4"
          id="path827" />
    </clipPath>
    <linearGradient
        x1="0"
        y1="0"
        x2="1"
        y2="0"
        gradientUnits="userSpaceOnUse"
        gradientTransform="matrix(0,2492.69,2492.69,0,3685.99,1793)"
        spreadMethod="pad"
        id="linearGradient841">
      <stop
          style="stop-opacity:1;stop-color:#be6d00"
          offset="0"
          id="stop831" />
      <stop
          style="stop-opacity:1;stop-color:#fff57f"
          offset="0.25008721"
          id="stop833" />
      <stop
          style="stop-opacity:1;stop-color:#fff57f"
          offset="0.433036"
          id="stop835" />
      <stop
          style="stop-opacity:1;stop-color:#be6d00"
          offset="0.78897242"
          id="stop837" />
      <stop
          style="stop-opacity:1;stop-color:#be6d00"
          offset="1"
          id="stop839" />
    </linearGradient>
    <clipPath
        clipPathUnits="userSpaceOnUse"
        id="clipPath851">
      <path
          d="m 3221.95,2788.5 c -120.73,11.3 -237.97,27 -351.13,46.6 l -36.46,107.5 c -11.51,-34 -22.22,-65.7 -32.15,-95 -62.58,11.9 -123.85,25.1 -183.55,39.4 l 118.98,359.1 c 10.37,31.1 29.29,52.6 56.72,64.5 11.84,5.2 27.22,7.8 46.13,7.8 18.89,0 36.5,-6.1 52.82,-18.4 16.3,-12.2 26.67,-24.3 31.12,-36.1 l 127.87,-385.8 122.3,373.6 c 5.91,17 10.73,29.6 14.46,37.8 3.69,8.1 10.55,16.1 20.56,23.9 10.01,7.7 22.4,11.6 37.25,11.6 14.8,0 32.22,-3.7 52.24,-11.1 49.64,-17.7 74.51,-41.5 74.51,-71.1 0,-9.7 -4.46,-27.8 -13.37,-54.5 l -138.3,-399.8 m -608.08,99.6 c -76.69,18.5 -150.86,38.9 -222.26,61.1 l -83.14,239.1 c -8.15,24.5 -12.21,42.6 -12.21,54.5 0,29.6 24.81,53 74.48,70 21.48,7.4 40.95,11.1 58.37,11.1 17.42,0 30.76,-5.9 40.03,-17.8 9.25,-11.8 17.61,-30 25.02,-54.4 l 119.71,-363.6"
          id="path849" />
    </clipPath>
    <linearGradient
        x1="0"
        y1="0"
        x2="1"
        y2="0"
        gradientUnits="userSpaceOnUse"
        gradientTransform="matrix(0,2252.69,2252.69,0,3685.99,1913)"
        spreadMethod="pad"
        id="linearGradient863">
      <stop
          style="stop-opacity:1;stop-color:#1e3500"
          offset="0"
          id="stop853" />
      <stop
          style="stop-opacity:1;stop-color:#1e3500"
          offset="0.14005471"
          id="stop855" />
      <stop
          style="stop-opacity:1;stop-color:#537f18"
          offset="0.5"
          id="stop857" />
      <stop
          style="stop-opacity:1;stop-color:#2a4900"
          offset="0.9276977"
          id="stop859" />
      <stop
          style="stop-opacity:1;stop-color:#2a4900"
          offset="1"
          id="stop861" />
    </linearGradient>
    <clipPath
        clipPathUnits="userSpaceOnUse"
        id="clipPath873">
      <path
          d="m 3052.85,2504.5 c -21.87,0 -40.79,6.1 -56.72,18.4 -15.92,12.2 -26.48,24.2 -31.67,36.1 l -93.64,276.1 c 113.16,-19.6 230.4,-35.3 351.13,-46.6 l -75.15,-217.3 c -1.5,-5.2 -4.09,-11.5 -7.78,-18.9 -3.73,-7.4 -13.55,-17.2 -29.48,-29.4 -15.92,-12.3 -34.84,-18.4 -56.69,-18.4 m -433.05,0 c -23.73,0 -43.2,5.6 -58.4,16.7 -15.19,11.1 -25.38,22.2 -30.57,33.3 l -7.77,16.7 -131.45,378 c 71.4,-22.2 145.57,-42.6 222.26,-61.1 l 2.58,-7.8 2.21,6.7 c 59.7,-14.3 120.97,-27.5 183.55,-39.4 -61.03,-180.4 -92.2,-272.5 -93.47,-276.4 -1.49,-4.4 -4.84,-10.7 -10,-18.9 -5.19,-8.1 -11.14,-15.5 -17.79,-22.2 -17.05,-17.1 -37.43,-25.6 -61.15,-25.6"
          id="path871" />
    </clipPath>
    <linearGradient
        x1="0"
        y1="0"
        x2="1"
        y2="0"
        gradientUnits="userSpaceOnUse"
        gradientTransform="matrix(0,2252.69,2252.69,0,3685.99,1913)"
        spreadMethod="pad"
        id="linearGradient885">
      <stop
          style="stop-opacity:1;stop-color:#182b00"
          offset="0"
          id="stop875" />
      <stop
          style="stop-opacity:1;stop-color:#182b00"
          offset="0.14005471"
          id="stop877" />
      <stop
          style="stop-opacity:1;stop-color:#426613"
          offset="0.5"
          id="stop879" />
      <stop
          style="stop-opacity:1;stop-color:#213b00"
          offset="0.9276977"
          id="stop881" />
      <stop
          style="stop-opacity:1;stop-color:#213b00"
          offset="1"
          id="stop883" />
    </linearGradient>
    <clipPath
        clipPathUnits="userSpaceOnUse"
        id="clipPath895">
      <path
          d="m 3631.53,2767.3 c -66.27,0.7 -131.98,2.7 -196.77,5.9 v 447.3 c 0,17.1 0.55,29.9 1.65,38.4 1.13,8.5 4.64,18.3 10.56,29.4 10.37,20.1 39.29,30.1 86.74,30.1 51.87,0 82.62,-13.8 92.27,-41.2 3.69,-12.6 5.55,-31.8 5.55,-57.8 v -452.1"
          id="path893" />
    </clipPath>
    <clipPath
        clipPathUnits="userSpaceOnUse"
        id="clipPath917">
      <path
          d="m 3532.58,2503.4 c -51.87,0 -82.26,14.1 -91.16,42.3 -4.46,11.8 -6.66,30.7 -6.66,56.7 v 170.8 c 64.79,-3.2 130.5,-5.2 196.77,-5.9 v -166 c 0,-17.8 -0.55,-30.8 -1.65,-39 -1.12,-8.1 -4.64,-17.8 -10.56,-28.9 -10.4,-20 -39.29,-30 -86.74,-30"
          id="path915" />
    </clipPath>
    <clipPath
        clipPathUnits="userSpaceOnUse"
        id="clipPath939">
      <path
          d="m 3720.5,2767.1 v 453.4 c 0,17.1 0.55,29.9 1.65,38.4 1.12,8.5 4.63,18.3 10.55,29.4 10.38,20.1 39.3,30.1 86.75,30.1 51.87,0 82.63,-13.8 92.27,-41.2 3.69,-12.6 5.55,-31.8 5.55,-57.8 v -447.1 c -64.81,-3 -130.5,-4.7 -196.77,-5.2"
          id="path937" />
    </clipPath>
    <clipPath
        clipPathUnits="userSpaceOnUse"
        id="clipPath961">
      <path
          d="m 4218.6,2503.4 h -400.28 c -51.87,0 -82.26,14.1 -91.16,42.3 -4.47,11.8 -6.66,30.7 -6.66,56.7 v 164.7 c 66.27,0.5 131.96,2.2 196.77,5.2 v -104.4 h 302.43 c 24.47,0 42.26,-2.7 53.36,-8.3 11.14,-5.5 18.52,-14.3 22.24,-26.1 3.7,-11.9 5.55,-27.6 5.55,-47.3 0,-19.6 -1.85,-35.4 -5.55,-47.2 -3.72,-11.9 -10.01,-20 -18.92,-24.5 -14.06,-7.4 -33.35,-11.1 -57.78,-11.1"
          id="path959" />
    </clipPath>
    <clipPath
        clipPathUnits="userSpaceOnUse"
        id="clipPath983">
      <path
          d="m 4373.11,2814.8 v 406.8 c 0,17.8 0.55,30.8 1.64,38.9 1.14,8.2 4.64,17.8 10.56,29 10.37,20 39.3,30 86.75,30 l 205.67,-1.1 c 107.46,0 201.99,-38.8 283.51,-116.2 65.37,-62.1 104.55,-135.7 117.51,-220.6 -61.75,-21.5 -125.95,-41.5 -192.24,-60.1 -2.46,55.1 -23.34,101.6 -62.57,139.5 -41.89,40.4 -90.99,60.6 -147.31,60.6 h -106.76 v -274 c -64.22,-12.2 -129.81,-23.2 -196.76,-32.8"
          id="path981" />
    </clipPath>
    <clipPath
        clipPathUnits="userSpaceOnUse"
        id="clipPath1005">
      <path
          d="m 4674.4,2504.5 h -203.48 c -45.21,0 -73.38,9.3 -84.48,27.8 -8.91,15.6 -13.33,39.3 -13.33,71.2 v 211.3 c 66.95,9.6 132.54,20.6 196.76,32.8 v -146.3 h 107.86 c 53.36,0 101.54,19.8 144.53,59.5 42.99,39.6 64.5,89.5 64.5,149.5 0,3.8 -0.08,7.5 -0.25,11.2 66.29,18.6 130.49,38.6 192.24,60.1 3.21,-21.1 4.81,-42.8 4.81,-65.2 0,-113 -39.88,-209.9 -119.54,-290.7 -79.67,-80.8 -176.2,-121.2 -289.62,-121.2"
          id="path1003" />
    </clipPath>
    <clipPath
        clipPathUnits="userSpaceOnUse"
        id="clipPath1027">
      <path
          d="m 3299.11,3439.1 c 49.64,-17.8 74.51,-41.5 74.51,-71.2 0,-9.6 -4.45,-27.8 -13.37,-54.4 L 3146.8,2696.4 c -1.5,-5.2 -4.09,-11.5 -7.78,-18.9 -3.73,-7.4 -13.55,-17.2 -29.48,-29.5 -15.92,-12.2 -34.84,-18.3 -56.69,-18.3 -21.87,0 -40.79,6.1 -56.72,18.3 -15.92,12.3 -26.48,24.3 -31.67,36.2 l -130.1,383.5 c -82.26,-243.1 -124.15,-366.9 -125.61,-371.3 -1.5,-4.5 -4.85,-10.8 -10.01,-18.9 -5.19,-8.2 -11.14,-15.6 -17.79,-22.2 -17.05,-17.1 -37.43,-25.6 -61.15,-25.6 -23.73,0 -43.2,5.5 -58.39,16.7 -15.2,11.1 -25.39,22.2 -30.58,33.3 l -7.77,16.7 -214.59,617.1 c -8.15,24.4 -12.21,42.6 -12.21,54.4 0,29.7 24.81,53 74.48,70.1 21.48,7.4 40.95,11.1 58.37,11.1 17.42,0 30.76,-5.9 40.03,-17.8 9.25,-11.8 17.61,-30 25.02,-54.5 l 122.29,-371.3 121.19,365.8 c 10.37,31.1 29.29,52.6 56.72,64.4 11.84,5.2 27.22,7.8 46.13,7.8 18.89,0 36.5,-6.1 52.82,-18.3 16.29,-12.3 26.67,-24.3 31.12,-36.1 l 127.87,-385.9 122.29,373.6 c 5.92,17 10.74,29.7 14.47,37.8 3.69,8.2 10.55,16.1 20.56,23.9 10.01,7.8 22.4,11.7 37.26,11.7 14.79,0 32.21,-3.7 52.23,-11.1 z"
          id="path1025" />
    </clipPath>
    <linearGradient
        x1="0"
        y1="0"
        x2="1"
        y2="0"
        gradientUnits="userSpaceOnUse"
        gradientTransform="matrix(0,820.54,820.54,0,2834.94,2629.7)"
        spreadMethod="pad"
        id="linearGradient1039">
      <stop
          style="stop-opacity:1;stop-color:#be6d00"
          offset="0"
          id="stop1029" />
      <stop
          style="stop-opacity:1;stop-color:#be6d00"
          offset="0.04485749"
          id="stop1031" />
      <stop
          style="stop-opacity:1;stop-color:#fff57f"
          offset="0.473214"
          id="stop1033" />
      <stop
          style="stop-opacity:1;stop-color:#be6d00"
          offset="0.93905002"
          id="stop1035" />
      <stop
          style="stop-opacity:1;stop-color:#be6d00"
          offset="1"
          id="stop1037" />
    </linearGradient>
    <clipPath
        clipPathUnits="userSpaceOnUse"
        id="clipPath1049">
      <path
          d="m 3434.76,3345.7 c 0,17 0.55,29.8 1.65,38.4 1.13,8.5 4.64,18.3 10.56,29.4 10.37,20 39.29,30 86.74,30 51.87,0 82.62,-13.7 92.27,-41.1 3.69,-12.6 5.55,-31.9 5.55,-57.8 v -618.2 c 0,-17.8 -0.55,-30.8 -1.65,-38.9 -1.13,-8.2 -4.64,-17.8 -10.55,-28.9 -10.41,-20 -39.31,-30 -86.75,-30 -51.87,0 -82.26,14 -91.16,42.2 -4.46,11.9 -6.66,30.8 -6.66,56.7 z"
          id="path1047" />
    </clipPath>
    <linearGradient
        x1="0"
        y1="0"
        x2="1"
        y2="0"
        gradientUnits="userSpaceOnUse"
        gradientTransform="matrix(0,814.956,814.956,0,3533.15,2628.6)"
        spreadMethod="pad"
        id="linearGradient1061">
      <stop
          style="stop-opacity:1;stop-color:#be6d00"
          offset="0"
          id="stop1051" />
      <stop
          style="stop-opacity:1;stop-color:#be6d00"
          offset="0.04485749"
          id="stop1053" />
      <stop
          style="stop-opacity:1;stop-color:#fff57f"
          offset="0.473214"
          id="stop1055" />
      <stop
          style="stop-opacity:1;stop-color:#be6d00"
          offset="0.93905002"
          id="stop1057" />
      <stop
          style="stop-opacity:1;stop-color:#be6d00"
          offset="1"
          id="stop1059" />
    </linearGradient>
    <clipPath
        clipPathUnits="userSpaceOnUse"
        id="clipPath1071">
      <path
          d="m 3917.27,2793.1 h 302.43 c 24.47,0 42.25,-2.8 53.36,-8.3 11.13,-5.6 18.52,-14.3 22.24,-26.2 3.69,-11.8 5.55,-27.6 5.55,-47.2 0,-19.6 -1.86,-35.4 -5.55,-47.3 -3.72,-11.8 -10.01,-20 -18.91,-24.4 -14.07,-7.4 -33.35,-11.1 -57.79,-11.1 h -400.28 c -51.87,0 -82.26,14 -91.17,42.2 -4.45,11.9 -6.65,30.8 -6.65,56.7 v 618.2 c 0,17 0.55,29.8 1.65,38.4 1.13,8.5 4.64,18.3 10.56,29.4 10.37,20 39.29,30 86.74,30 51.87,0 82.63,-13.7 92.26,-41.1 3.7,-12.6 5.56,-31.9 5.56,-57.8 z"
          id="path1069" />
    </clipPath>
    <linearGradient
        x1="0"
        y1="0"
        x2="1"
        y2="0"
        gradientUnits="userSpaceOnUse"
        gradientTransform="matrix(0,814.956,814.956,0,4010.68,2628.6)"
        spreadMethod="pad"
        id="linearGradient1083">
      <stop
          style="stop-opacity:1;stop-color:#be6d00"
          offset="0"
          id="stop1073" />
      <stop
          style="stop-opacity:1;stop-color:#be6d00"
          offset="0.04485749"
          id="stop1075" />
      <stop
          style="stop-opacity:1;stop-color:#fff57f"
          offset="0.473214"
          id="stop1077" />
      <stop
          style="stop-opacity:1;stop-color:#be6d00"
          offset="0.93905002"
          id="stop1079" />
      <stop
          style="stop-opacity:1;stop-color:#be6d00"
          offset="1"
          id="stop1081" />
    </linearGradient>
    <clipPath
        clipPathUnits="userSpaceOnUse"
        id="clipPath1093">
      <path
          d="m 4822.26,2886 c 42.99,39.6 64.5,89.4 64.5,149.5 0,60 -20.96,110.2 -62.82,150.7 -41.89,40.3 -90.99,60.5 -147.31,60.5 h -106.76 v -420.2 h 107.86 c 53.36,0 101.54,19.8 144.53,59.5 z m -350.2,558.6 205.67,-1.1 c 107.46,0 201.99,-38.7 283.51,-116.2 81.53,-77.4 122.32,-172.7 122.32,-285.7 0,-113 -39.88,-209.9 -119.54,-290.7 -79.67,-80.8 -176.2,-121.2 -289.62,-121.2 h -203.48 c -45.21,0 -73.38,9.2 -84.48,27.8 -8.91,15.6 -13.33,39.3 -13.33,71.1 v 618.2 c 0,17.8 0.55,30.8 1.65,38.9 1.12,8.1 4.63,17.8 10.55,28.9 10.37,20 39.3,30 86.75,30 z"
          id="path1091" />
    </clipPath>
    <linearGradient
        x1="0"
        y1="0"
        x2="1"
        y2="0"
        gradientUnits="userSpaceOnUse"
        gradientTransform="matrix(0,814.986,814.986,0,4728.33,2629.7)"
        spreadMethod="pad"
        id="linearGradient1105">
      <stop
          style="stop-opacity:1;stop-color:#be6d00"
          offset="0"
          id="stop1095" />
      <stop
          style="stop-opacity:1;stop-color:#be6d00"
          offset="0.04485749"
          id="stop1097" />
      <stop
          style="stop-opacity:1;stop-color:#fff57f"
          offset="0.473214"
          id="stop1099" />
      <stop
          style="stop-opacity:1;stop-color:#be6d00"
          offset="0.93905002"
          id="stop1101" />
      <stop
          style="stop-opacity:1;stop-color:#be6d00"
          offset="1"
          id="stop1103" />
    </linearGradient>
    <linearGradient
        inkscape:collect="always"
        xlink:href="#linearGradient775"
        id="linearGradient6993"
        gradientUnits="userSpaceOnUse"
        gradientTransform="matrix(0,2252.69,2252.69,0,3685.99,1913)"
        x1="0"
        y1="0"
        x2="1"
        y2="0"
        spreadMethod="pad" />
    <linearGradient
        inkscape:collect="always"
        xlink:href="#linearGradient775"
        id="linearGradient6995"
        gradientUnits="userSpaceOnUse"
        gradientTransform="matrix(0,2252.69,2252.69,0,3685.99,1913)"
        x1="0"
        y1="0"
        x2="1"
        y2="0"
        spreadMethod="pad" />
    <linearGradient
        inkscape:collect="always"
        xlink:href="#linearGradient863"
        id="linearGradient6997"
        gradientUnits="userSpaceOnUse"
        gradientTransform="matrix(0,2252.69,2252.69,0,3685.99,1913)"
        x1="0"
        y1="0"
        x2="1"
        y2="0"
        spreadMethod="pad" />
    <linearGradient
        inkscape:collect="always"
        xlink:href="#linearGradient885"
        id="linearGradient6999"
        gradientUnits="userSpaceOnUse"
        gradientTransform="matrix(0,2252.69,2252.69,0,3685.99,1913)"
        x1="0"
        y1="0"
        x2="1"
        y2="0"
        spreadMethod="pad" />
    <linearGradient
        inkscape:collect="always"
        xlink:href="#linearGradient863"
        id="linearGradient7001"
        gradientUnits="userSpaceOnUse"
        gradientTransform="matrix(0,2252.69,2252.69,0,3685.99,1913)"
        x1="0"
        y1="0"
        x2="1"
        y2="0"
        spreadMethod="pad" />
    <linearGradient
        inkscape:collect="always"
        xlink:href="#linearGradient885"
        id="linearGradient7003"
        gradientUnits="userSpaceOnUse"
        gradientTransform="matrix(0,2252.69,2252.69,0,3685.99,1913)"
        x1="0"
        y1="0"
        x2="1"
        y2="0"
        spreadMethod="pad" />
    <linearGradient
        inkscape:collect="always"
        xlink:href="#linearGradient863"
        id="linearGradient7005"
        gradientUnits="userSpaceOnUse"
        gradientTransform="matrix(0,2252.69,2252.69,0,3685.99,1913)"
        x1="0"
        y1="0"
        x2="1"
        y2="0"
        spreadMethod="pad" />
    <linearGradient
        inkscape:collect="always"
        xlink:href="#linearGradient885"
        id="linearGradient7007"
        gradientUnits="userSpaceOnUse"
        gradientTransform="matrix(0,2252.69,2252.69,0,3685.99,1913)"
        x1="0"
        y1="0"
        x2="1"
        y2="0"
        spreadMethod="pad" />
    <linearGradient
        inkscape:collect="always"
        xlink:href="#linearGradient863"
        id="linearGradient7009"
        gradientUnits="userSpaceOnUse"
        gradientTransform="matrix(0,2252.69,2252.69,0,3685.99,1913)"
        x1="0"
        y1="0"
        x2="1"
        y2="0"
        spreadMethod="pad" />
    <linearGradient
        inkscape:collect="always"
        xlink:href="#linearGradient885"
        id="linearGradient7011"
        gradientUnits="userSpaceOnUse"
        gradientTransform="matrix(0,2252.69,2252.69,0,3685.99,1913)"
        x1="0"
        y1="0"
        x2="1"
        y2="0"
        spreadMethod="pad" />
  </defs>
  <g
     inkscape:label="Layer 1"
     inkscape:groupmode="layer"
     id="layer1">
    <g
       id="g7129"
       transform="matrix(0.4219268,0,0,0.4219268,3.0711263,168.25648)">
      <g
         id="g735"
         transform="matrix(0.13333333,0,0,-0.13333333,-225.90924,271.82717)">
        <g
           id="g737"
           clip-path="url(#clipPath741)">
          <path
             d="m 3685.99,2767 c -18.23,0 -36.33,0.1 -54.46,0.3 v 452.1 c 0,26 -1.86,45.2 -5.55,57.8 -9.65,27.4 -40.4,41.2 -92.27,41.2 -47.45,0 -76.37,-10 -86.74,-30.1 -5.92,-11.1 -9.43,-20.9 -10.56,-29.4 -1.1,-8.5 -1.65,-21.3 -1.65,-38.4 v -447.3 c -71.98,3.6 -142.95,8.7 -212.81,15.3 l 138.3,399.8 c 8.91,26.7 13.37,44.8 13.37,54.5 0,29.6 -24.87,53.4 -74.51,71.1 -20.02,7.4 -37.44,11.1 -52.24,11.1 -14.85,0 -27.24,-3.9 -37.25,-11.6 -10.01,-7.8 -16.87,-15.8 -20.56,-23.9 -3.73,-8.2 -8.55,-20.8 -14.46,-37.8 l -122.3,-373.6 -127.87,385.8 c -4.45,11.8 -14.82,23.9 -31.12,36.1 -16.32,12.3 -33.93,18.4 -52.82,18.4 -18.91,0 -34.29,-2.6 -46.13,-7.8 -27.43,-11.9 -46.35,-33.4 -56.72,-64.5 L 2618.66,2887 c -1.61,0.4 -3.18,0.7 -4.79,1.1 l -119.71,363.6 c -7.41,24.4 -15.77,42.6 -25.02,54.4 -9.27,11.9 -22.61,17.8 -40.03,17.8 -17.42,0 -36.89,-3.7 -58.37,-11.1 -49.67,-17 -74.48,-40.4 -74.48,-70 0,-11.9 4.06,-30 12.21,-54.5 l 83.14,-239.1 c -155.75,48.5 -298.26,105.4 -424.33,169.4 v 669.5 c 0,120 97.62,217.6 217.61,217.6 H 5187.1 c 119.98,0 217.6,-97.6 217.6,-217.6 v -669.5 c -99.04,-50.3 -208.18,-96.2 -325.95,-137 -12.96,84.9 -52.14,158.5 -117.51,220.6 -81.52,77.4 -176.05,116.2 -283.51,116.2 l -205.67,1.1 c -47.45,0 -76.38,-10 -86.75,-30 -5.92,-11.2 -9.42,-20.8 -10.56,-29 -1.09,-8.1 -1.64,-21.1 -1.64,-38.9 v -406.8 c -146.31,-20.9 -298.77,-35.3 -455.84,-42.5 v 447.1 c 0,26 -1.86,45.2 -5.55,57.8 -9.64,27.4 -40.4,41.2 -92.27,41.2 -47.45,0 -76.37,-10 -86.75,-30.1 -5.92,-11.1 -9.43,-20.9 -10.55,-29.4 -1.1,-8.5 -1.65,-21.3 -1.65,-38.4 v -453.4 c -11.5,0 -22.97,-0.1 -34.51,-0.1 m -815.17,68.1 c -23.03,4 -45.93,8.2 -68.61,12.5 9.93,29.3 20.64,61 32.15,95 l 36.46,-107.5 m 1699.05,12.5 v 274 h 106.76 c 56.32,0 105.42,-20.2 147.31,-60.6 39.23,-37.9 60.11,-84.4 62.57,-139.5 -100.81,-28.2 -206.61,-52.9 -316.64,-73.9"
             style="fill:url(#linearGradient753);fill-opacity:1;fill-rule:nonzero;stroke:none"
             id="path755" />
        </g>
      </g>
      <g
         id="g757"
         transform="matrix(0.13333333,0,0,-0.13333333,-225.90924,271.82717)">
        <g
           id="g759"
           clip-path="url(#clipPath763)">
          <path
             d="M 5187.1,2073 H 2184.89 c -119.99,0 -217.61,97.7 -217.61,217.7 v 827.9 c 126.07,-64 268.58,-120.9 424.33,-169.4 l 131.45,-378 7.77,-16.7 c 5.19,-11.1 15.38,-22.2 30.57,-33.3 15.2,-11.1 34.67,-16.7 58.4,-16.7 23.72,0 44.1,8.5 61.15,25.6 6.65,6.7 12.6,14.1 17.79,22.2 5.16,8.2 8.51,14.5 10,18.9 1.27,3.9 32.44,96 93.47,276.4 22.68,-4.3 45.58,-8.5 68.61,-12.5 l 93.64,-276.1 c 5.19,-11.9 15.75,-23.9 31.67,-36.1 15.93,-12.3 34.85,-18.4 56.72,-18.4 21.85,0 40.77,6.1 56.69,18.4 15.93,12.2 25.75,22 29.48,29.4 3.69,7.4 6.28,13.7 7.78,18.9 l 75.15,217.3 c 69.86,-6.6 140.83,-11.7 212.81,-15.3 v -170.8 c 0,-26 2.2,-44.9 6.66,-56.7 8.9,-28.2 39.29,-42.3 91.16,-42.3 47.45,0 76.34,10 86.74,30 5.92,11.1 9.44,20.8 10.56,28.9 1.1,8.2 1.65,21.2 1.65,39 v 166 c 18.13,-0.2 36.23,-0.3 54.46,-0.3 11.54,0 23.01,0.1 34.51,0.1 v -164.7 c 0,-26 2.19,-44.9 6.66,-56.7 8.9,-28.2 39.29,-42.3 91.16,-42.3 h 400.28 c 24.43,0 43.72,3.7 57.78,11.1 8.91,4.5 15.2,12.6 18.92,24.5 3.7,11.8 5.55,27.6 5.55,47.2 0,19.7 -1.85,35.4 -5.55,47.3 -3.72,11.8 -11.1,20.6 -22.24,26.1 -11.1,5.6 -28.89,8.3 -53.36,8.3 h -302.43 v 104.4 c 157.07,7.2 309.53,21.6 455.84,42.5 v -211.3 c 0,-31.9 4.42,-55.6 13.33,-71.2 11.1,-18.5 39.27,-27.8 84.48,-27.8 h 203.48 c 113.42,0 209.95,40.4 289.62,121.2 79.66,80.8 119.54,177.7 119.54,290.7 0,22.4 -1.6,44.1 -4.81,65.2 117.77,40.8 226.91,86.7 325.95,137 v -827.9 c 0,-120 -97.62,-217.7 -217.6,-217.7 m -509.37,628.3 h -107.86 v 146.3 c 110.03,21 215.83,45.7 316.64,73.9 0.17,-3.7 0.25,-7.4 0.25,-11.2 0,-60 -21.51,-109.9 -64.5,-149.5 -42.99,-39.7 -91.17,-59.5 -144.53,-59.5 m -2061.28,179 -2.58,7.8 c 1.61,-0.4 3.18,-0.7 4.79,-1.1 l -2.21,-6.7"
             style="fill:url(#linearGradient6993);fill-opacity:1;fill-rule:nonzero;stroke:none"
             id="path777" />
        </g>
      </g>
      <g
         id="g779"
         transform="matrix(0.13333333,0,0,-0.13333333,-225.90924,271.82717)">
        <g
           id="g781"
           clip-path="url(#clipPath785)">
          <path
             d="m 5187.1,1913 v 0 c 208.54,0 377.6,169.1 377.6,377.7 0,-208.6 -169.06,-377.7 -377.6,-377.7 m -3010.74,0.1 c -4.46,0.1 -8.89,0.3 -13.31,0.6 -198.39,11.3 -355.76,175.7 -355.76,377 v 0 c 0,-205.7 164.46,-373 369.07,-377.6 M 5404.7,3118.6 v 669.5 c 0,120 -97.62,217.6 -217.6,217.6 H 2184.89 c -119.99,0 -217.61,-97.6 -217.61,-217.6 v -669.5 c -56.76,28.8 -110.16,59 -159.99,90.5 v 579 c 0,208.6 169.05,377.6 377.6,377.6 H 5187.1 c 208.54,0 377.6,-169 377.6,-377.6 v -579 c -49.84,-31.5 -103.24,-61.7 -160,-90.5"
             style="fill:url(#linearGradient6995);fill-opacity:1;fill-rule:nonzero;stroke:none"
             id="path799" />
        </g>
      </g>
      <g
         id="g801"
         transform="matrix(0.13333333,0,0,-0.13333333,-225.90924,271.82717)">
        <g
           id="g803"
           clip-path="url(#clipPath807)">
          <path
             d="M 5187.1,1913 H 2184.89 c -2.85,0 -5.69,0.1 -8.53,0.1 -204.61,4.6 -369.07,171.9 -369.07,377.6 v 918.4 c 49.83,-31.5 103.23,-61.7 159.99,-90.5 v -827.9 c 0,-120 97.62,-217.7 217.61,-217.7 H 5187.1 c 119.98,0 217.6,97.7 217.6,217.7 v 827.9 c 56.76,28.8 110.16,59 160,90.5 v -918.4 0 c 0,-208.6 -169.06,-377.7 -377.61,-377.7"
             style="fill:url(#linearGradient819);fill-opacity:1;fill-rule:nonzero;stroke:none"
             id="path821" />
        </g>
      </g>
      <g
         id="g823"
         transform="matrix(0.13333333,0,0,-0.13333333,-225.90924,271.82717)">
        <g
           id="g825"
           clip-path="url(#clipPath829)">
          <path
             d="M 5187.1,1793 H 2184.89 c -274.38,0 -497.61,223.3 -497.61,497.7 v 1497.4 c 0,274.4 223.23,497.6 497.61,497.6 H 5187.1 c 274.37,0 497.6,-223.2 497.6,-497.6 V 2290.7 c 0,-274.4 -223.23,-497.7 -497.6,-497.7 m -3379.81,497.7 v 0 c 0,-208.6 169.05,-377.7 377.6,-377.7 H 5187.1 c 208.54,0 377.6,169.1 377.6,377.7 v 1497.4 0 c 0,208.6 -169.06,377.6 -377.6,377.6 H 2184.89 c -208.55,0 -377.6,-169 -377.6,-377.6 v -579 -918.4"
             style="fill:url(#linearGradient841);fill-opacity:1;fill-rule:nonzero;stroke:none"
             id="path843" />
        </g>
      </g>
      <g
         id="g845"
         transform="matrix(0.13333333,0,0,-0.13333333,-225.90924,271.82717)">
        <g
           id="g847"
           clip-path="url(#clipPath851)">
          <path
             d="m 3221.95,2788.5 c -120.73,11.3 -237.97,27 -351.13,46.6 l -36.46,107.5 c -11.51,-34 -22.22,-65.7 -32.15,-95 -62.58,11.9 -123.85,25.1 -183.55,39.4 l 118.98,359.1 c 10.37,31.1 29.29,52.6 56.72,64.5 11.84,5.2 27.22,7.8 46.13,7.8 18.89,0 36.5,-6.1 52.82,-18.4 16.3,-12.2 26.67,-24.3 31.12,-36.1 l 127.87,-385.8 122.3,373.6 c 5.91,17 10.73,29.6 14.46,37.8 3.69,8.1 10.55,16.1 20.56,23.9 10.01,7.7 22.4,11.6 37.25,11.6 14.8,0 32.22,-3.7 52.24,-11.1 49.64,-17.7 74.51,-41.5 74.51,-71.1 0,-9.7 -4.46,-27.8 -13.37,-54.5 l -138.3,-399.8 m -608.08,99.6 c -76.69,18.5 -150.86,38.9 -222.26,61.1 l -83.14,239.1 c -8.15,24.5 -12.21,42.6 -12.21,54.5 0,29.6 24.81,53 74.48,70 21.48,7.4 40.95,11.1 58.37,11.1 17.42,0 30.76,-5.9 40.03,-17.8 9.25,-11.8 17.61,-30 25.02,-54.4 l 119.71,-363.6"
             style="fill:url(#linearGradient6997);fill-opacity:1;fill-rule:nonzero;stroke:none"
             id="path865" />
        </g>
      </g>
      <g
         id="g867"
         transform="matrix(0.13333333,0,0,-0.13333333,-225.90924,271.82717)">
        <g
           id="g869"
           clip-path="url(#clipPath873)">
          <path
             d="m 3052.85,2504.5 c -21.87,0 -40.79,6.1 -56.72,18.4 -15.92,12.2 -26.48,24.2 -31.67,36.1 l -93.64,276.1 c 113.16,-19.6 230.4,-35.3 351.13,-46.6 l -75.15,-217.3 c -1.5,-5.2 -4.09,-11.5 -7.78,-18.9 -3.73,-7.4 -13.55,-17.2 -29.48,-29.4 -15.92,-12.3 -34.84,-18.4 -56.69,-18.4 m -433.05,0 c -23.73,0 -43.2,5.6 -58.4,16.7 -15.19,11.1 -25.38,22.2 -30.57,33.3 l -7.77,16.7 -131.45,378 c 71.4,-22.2 145.57,-42.6 222.26,-61.1 l 2.58,-7.8 2.21,6.7 c 59.7,-14.3 120.97,-27.5 183.55,-39.4 -61.03,-180.4 -92.2,-272.5 -93.47,-276.4 -1.49,-4.4 -4.84,-10.7 -10,-18.9 -5.19,-8.1 -11.14,-15.5 -17.79,-22.2 -17.05,-17.1 -37.43,-25.6 -61.15,-25.6"
             style="fill:url(#linearGradient6999);fill-opacity:1;fill-rule:nonzero;stroke:none"
             id="path887" />
        </g>
      </g>
      <g
         id="g889"
         transform="matrix(0.13333333,0,0,-0.13333333,-225.90924,271.82717)">
        <g
           id="g891"
           clip-path="url(#clipPath895)">
          <path
             d="m 3631.53,2767.3 c -66.27,0.7 -131.98,2.7 -196.77,5.9 v 447.3 c 0,17.1 0.55,29.9 1.65,38.4 1.13,8.5 4.64,18.3 10.56,29.4 10.37,20.1 39.29,30.1 86.74,30.1 51.87,0 82.62,-13.8 92.27,-41.2 3.69,-12.6 5.55,-31.8 5.55,-57.8 v -452.1"
             style="fill:url(#linearGradient7001);fill-opacity:1;fill-rule:nonzero;stroke:none"
             id="path909" />
        </g>
      </g>
      <g
         id="g911"
         transform="matrix(0.13333333,0,0,-0.13333333,-225.90924,271.82717)">
        <g
           id="g913"
           clip-path="url(#clipPath917)">
          <path
             d="m 3532.58,2503.4 c -51.87,0 -82.26,14.1 -91.16,42.3 -4.46,11.8 -6.66,30.7 -6.66,56.7 v 170.8 c 64.79,-3.2 130.5,-5.2 196.77,-5.9 v -166 c 0,-17.8 -0.55,-30.8 -1.65,-39 -1.12,-8.1 -4.64,-17.8 -10.56,-28.9 -10.4,-20 -39.29,-30 -86.74,-30"
             style="fill:url(#linearGradient7003);fill-opacity:1;fill-rule:nonzero;stroke:none"
             id="path931" />
        </g>
      </g>
      <g
         id="g933"
         transform="matrix(0.13333333,0,0,-0.13333333,-225.90924,271.82717)">
        <g
           id="g935"
           clip-path="url(#clipPath939)">
          <path
             d="m 3720.5,2767.1 v 453.4 c 0,17.1 0.55,29.9 1.65,38.4 1.12,8.5 4.63,18.3 10.55,29.4 10.38,20.1 39.3,30.1 86.75,30.1 51.87,0 82.63,-13.8 92.27,-41.2 3.69,-12.6 5.55,-31.8 5.55,-57.8 v -447.1 c -64.81,-3 -130.5,-4.7 -196.77,-5.2"
             style="fill:url(#linearGradient7005);fill-opacity:1;fill-rule:nonzero;stroke:none"
             id="path953" />
        </g>
      </g>
      <g
         id="g955"
         transform="matrix(0.13333333,0,0,-0.13333333,-225.90924,271.82717)">
        <g
           id="g957"
           clip-path="url(#clipPath961)">
          <path
             d="m 4218.6,2503.4 h -400.28 c -51.87,0 -82.26,14.1 -91.16,42.3 -4.47,11.8 -6.66,30.7 -6.66,56.7 v 164.7 c 66.27,0.5 131.96,2.2 196.77,5.2 v -104.4 h 302.43 c 24.47,0 42.26,-2.7 53.36,-8.3 11.14,-5.5 18.52,-14.3 22.24,-26.1 3.7,-11.9 5.55,-27.6 5.55,-47.3 0,-19.6 -1.85,-35.4 -5.55,-47.2 -3.72,-11.9 -10.01,-20 -18.92,-24.5 -14.06,-7.4 -33.35,-11.1 -57.78,-11.1"
             style="fill:url(#linearGradient7007);fill-opacity:1;fill-rule:nonzero;stroke:none"
             id="path975" />
        </g>
      </g>
      <g
         id="g977"
         transform="matrix(0.13333333,0,0,-0.13333333,-225.90924,271.82717)">
        <g
           id="g979"
           clip-path="url(#clipPath983)">
          <path
             d="m 4373.11,2814.8 v 406.8 c 0,17.8 0.55,30.8 1.64,38.9 1.14,8.2 4.64,17.8 10.56,29 10.37,20 39.3,30 86.75,30 l 205.67,-1.1 c 107.46,0 201.99,-38.8 283.51,-116.2 65.37,-62.1 104.55,-135.7 117.51,-220.6 -61.75,-21.5 -125.95,-41.5 -192.24,-60.1 -2.46,55.1 -23.34,101.6 -62.57,139.5 -41.89,40.4 -90.99,60.6 -147.31,60.6 h -106.76 v -274 c -64.22,-12.2 -129.81,-23.2 -196.76,-32.8"
             style="fill:url(#linearGradient7009);fill-opacity:1;fill-rule:nonzero;stroke:none"
             id="path997" />
        </g>
      </g>
      <g
         id="g999"
         transform="matrix(0.13333333,0,0,-0.13333333,-225.90924,271.82717)">
        <g
           id="g1001"
           clip-path="url(#clipPath1005)">
          <path
             d="m 4674.4,2504.5 h -203.48 c -45.21,0 -73.38,9.3 -84.48,27.8 -8.91,15.6 -13.33,39.3 -13.33,71.2 v 211.3 c 66.95,9.6 132.54,20.6 196.76,32.8 v -146.3 h 107.86 c 53.36,0 101.54,19.8 144.53,59.5 42.99,39.6 64.5,89.5 64.5,149.5 0,3.8 -0.08,7.5 -0.25,11.2 66.29,18.6 130.49,38.6 192.24,60.1 3.21,-21.1 4.81,-42.8 4.81,-65.2 0,-113 -39.88,-209.9 -119.54,-290.7 -79.67,-80.8 -176.2,-121.2 -289.62,-121.2"
             style="fill:url(#linearGradient7011);fill-opacity:1;fill-rule:nonzero;stroke:none"
             id="path1019" />
        </g>
      </g>
      <g
         id="g1021"
         transform="matrix(0.13333333,0,0,-0.13333333,-225.90924,271.82717)">
        <g
           id="g1023"
           clip-path="url(#clipPath1027)">
          <path
             d="m 3299.11,3439.1 c 49.64,-17.8 74.51,-41.5 74.51,-71.2 0,-9.6 -4.45,-27.8 -13.37,-54.4 L 3146.8,2696.4 c -1.5,-5.2 -4.09,-11.5 -7.78,-18.9 -3.73,-7.4 -13.55,-17.2 -29.48,-29.5 -15.92,-12.2 -34.84,-18.3 -56.69,-18.3 -21.87,0 -40.79,6.1 -56.72,18.3 -15.92,12.3 -26.48,24.3 -31.67,36.2 l -130.1,383.5 c -82.26,-243.1 -124.15,-366.9 -125.61,-371.3 -1.5,-4.5 -4.85,-10.8 -10.01,-18.9 -5.19,-8.2 -11.14,-15.6 -17.79,-22.2 -17.05,-17.1 -37.43,-25.6 -61.15,-25.6 -23.73,0 -43.2,5.5 -58.39,16.7 -15.2,11.1 -25.39,22.2 -30.58,33.3 l -7.77,16.7 -214.59,617.1 c -8.15,24.4 -12.21,42.6 -12.21,54.4 0,29.7 24.81,53 74.48,70.1 21.48,7.4 40.95,11.1 58.37,11.1 17.42,0 30.76,-5.9 40.03,-17.8 9.25,-11.8 17.61,-30 25.02,-54.5 l 122.29,-371.3 121.19,365.8 c 10.37,31.1 29.29,52.6 56.72,64.4 11.84,5.2 27.22,7.8 46.13,7.8 18.89,0 36.5,-6.1 52.82,-18.3 16.29,-12.3 26.67,-24.3 31.12,-36.1 l 127.87,-385.9 122.29,373.6 c 5.92,17 10.74,29.7 14.47,37.8 3.69,8.2 10.55,16.1 20.56,23.9 10.01,7.8 22.4,11.7 37.26,11.7 14.79,0 32.21,-3.7 52.23,-11.1"
             style="fill:url(#linearGradient1039);fill-opacity:1;fill-rule:nonzero;stroke:none"
             id="path1041" />
        </g>
      </g>
      <g
         id="g1043"
         transform="matrix(0.13333333,0,0,-0.13333333,-225.90924,271.82717)">
        <g
           id="g1045"
           clip-path="url(#clipPath1049)">
          <path
             d="m 3434.76,3345.7 c 0,17 0.55,29.8 1.65,38.4 1.13,8.5 4.64,18.3 10.56,29.4 10.37,20 39.29,30 86.74,30 51.87,0 82.62,-13.7 92.27,-41.1 3.69,-12.6 5.55,-31.9 5.55,-57.8 v -618.2 c 0,-17.8 -0.55,-30.8 -1.65,-38.9 -1.13,-8.2 -4.64,-17.8 -10.55,-28.9 -10.41,-20 -39.31,-30 -86.75,-30 -51.87,0 -82.26,14 -91.16,42.2 -4.46,11.9 -6.66,30.8 -6.66,56.7 v 618.2"
             style="fill:url(#linearGradient1061);fill-opacity:1;fill-rule:nonzero;stroke:none"
             id="path1063" />
        </g>
      </g>
      <g
         id="g1065"
         transform="matrix(0.13333333,0,0,-0.13333333,-225.90924,271.82717)">
        <g
           id="g1067"
           clip-path="url(#clipPath1071)">
          <path
             d="m 3917.27,2793.1 h 302.43 c 24.47,0 42.25,-2.8 53.36,-8.3 11.13,-5.6 18.52,-14.3 22.24,-26.2 3.69,-11.8 5.55,-27.6 5.55,-47.2 0,-19.6 -1.86,-35.4 -5.55,-47.3 -3.72,-11.8 -10.01,-20 -18.91,-24.4 -14.07,-7.4 -33.35,-11.1 -57.79,-11.1 h -400.28 c -51.87,0 -82.26,14 -91.17,42.2 -4.45,11.9 -6.65,30.8 -6.65,56.7 v 618.2 c 0,17 0.55,29.8 1.65,38.4 1.13,8.5 4.64,18.3 10.56,29.4 10.37,20 39.29,30 86.74,30 51.87,0 82.63,-13.7 92.26,-41.1 3.7,-12.6 5.56,-31.9 5.56,-57.8 v -551.5"
             style="fill:url(#linearGradient1083);fill-opacity:1;fill-rule:nonzero;stroke:none"
             id="path1085" />
        </g>
      </g>
      <g
         id="g1087"
         transform="matrix(0.13333333,0,0,-0.13333333,-225.90924,271.82717)">
        <g
           id="g1089"
           clip-path="url(#clipPath1093)">
          <path
             d="m 4822.26,2886 c 42.99,39.6 64.5,89.4 64.5,149.5 0,60 -20.96,110.2 -62.82,150.7 -41.89,40.3 -90.99,60.5 -147.31,60.5 h -106.76 v -420.2 h 107.86 c 53.36,0 101.54,19.8 144.53,59.5 z m -350.2,558.6 205.67,-1.1 c 107.46,0 201.99,-38.7 283.51,-116.2 81.53,-77.4 122.32,-172.7 122.32,-285.7 0,-113 -39.88,-209.9 -119.54,-290.7 -79.67,-80.8 -176.2,-121.2 -289.62,-121.2 h -203.48 c -45.21,0 -73.38,9.2 -84.48,27.8 -8.91,15.6 -13.33,39.3 -13.33,71.1 v 618.2 c 0,17.8 0.55,30.8 1.65,38.9 1.12,8.1 4.63,17.8 10.55,28.9 10.37,20 39.3,30 86.75,30"
             style="fill:url(#linearGradient1105);fill-opacity:1;fill-rule:nonzero;stroke:none"
             id="path1107" />
        </g>
      </g>
      <path
         d="m 207.00808,-194.33282 c -3.34533,0 -6.26933,0.94667 -8.68933,2.82667 -2.11733,1.64 -3.644,3.48 -4.54533,5.46666 -0.57734,1.26667 -1.276,3.09334 -2.13334,5.56 l -10.61066,32.41334 -11.256,-33.96 c -1.09867,-2.93334 -3.12267,-5.4 -6.26534,-7.76 -3.24133,-2.42667 -6.83466,-3.66667 -10.68533,-3.66667 -3.39867,0 -6.20667,0.50667 -8.584,1.54667 -5.19467,2.25333 -8.96667,6.48 -10.884,12.24 l -10.38667,31.34666 -10.56,-32.06666 c -1.17333,-3.88 -2.6,-6.90667 -4.31733,-9.10667 -1.676,-2.13333 -4.792,-4.69333 -10.118665,-4.69333 -2.993333,0 -6.278666,0.61333 -9.764,1.81333 -11.581333,3.97333 -14.014666,10.38667 -14.014666,15.06667 0,2.29333 0.616,5.21333 1.937333,9.18666 l 28.637338,82.346669 c 0.068,0.2 0.14533,0.386667 0.232,0.573333 l 1.036,2.226667 c 1.14666,2.453333 3.10799,4.666666 5.99599,6.773333 3.08267,2.253333 6.90534,3.4 11.36534,3.4 4.75066,0 9.05466,-1.8 12.44666,-5.2 1.19334,-1.186667 2.26934,-2.533333 3.19467,-3.986666 0.98533,-1.546667 1.608,-2.773334 1.96933,-3.853334 0.156,-0.466666 2.488,-7.36 7.00534,-20.706662 l 3.99866,-11.82667 11.596,34.186666 c 0.0547,0.16 0.11734,0.32 0.18534,0.48 1.11733,2.559999 3.108,4.906666 6.08533,7.199999 3.20133,2.453334 6.98933,3.706667 11.25867,3.706667 4.26933,0 8.056,-1.253333 11.256,-3.706667 2.96533,-2.28 4.70933,-4.133333 5.65333,-6.013333 0.63467,-1.266666 1.08933,-2.373333 1.39467,-3.386666 l 28.416,-82.146666 c 1.48933,-4.45333 2.116,-7.2 2.116,-9.25333 0,-4.65334 -2.42134,-11.06667 -13.95467,-15.2 -3.332,-1.22667 -6.29733,-1.82667 -9.01067,-1.82667 z m 0,6.05333 c 1.972,0 4.29467,0.50667 6.964,1.49334 6.61867,2.36 9.93467,5.53333 9.93467,9.48 0,1.29333 -0.59333,3.70666 -1.78267,7.26666 l -28.46,82.280002 c -0.2,0.68 -0.54533,1.533334 -1.03733,2.52 -0.49733,0.986667 -1.80667,2.293334 -3.93067,3.92 -2.12266,1.64 -4.64533,2.453333 -7.55866,2.453333 -2.916,0 -5.43867,-0.813333 -7.56267,-2.453333 -2.12267,-1.626666 -3.53067,-3.226666 -4.22267,-4.813333 l -17.34666,-51.146669 c -10.968,32.42667 -16.55334,48.920002 -16.748,49.520002 -0.2,0.586667 -0.64667,1.426667 -1.33467,2.52 -0.692,1.08 -1.48533,2.066667 -2.372,2.96 -2.27333,2.28 -4.99067,3.413333 -8.15333,3.413333 -3.164,0 -5.76,-0.746666 -7.78534,-2.226666 -2.02666,-1.48 -3.38533,-2.973333 -4.07733,-4.453333 l -1.036,-2.213334 -28.611998,-82.280002 c -1.086666,-3.26666 -1.628,-5.68 -1.628,-7.26666 0,-3.94667 3.308,-7.06667 9.930667,-9.33334 2.864,-0.98666 5.46,-1.48 7.782666,-1.48 2.322665,0 4.101335,0.78667 5.337335,2.37334 1.23333,1.57333 2.348,4 3.336,7.25333 l 16.30533,49.52 16.15867,-48.77333 c 1.38266,-4.14667 3.90533,-7.01334 7.56266,-8.6 1.57867,-0.69334 3.62934,-1.04 6.15067,-1.04 2.51867,0 4.86667,0.81333 7.04267,2.45333 2.172,1.62667 3.556,3.24 4.14933,4.81333 l 17.04933,51.44 16.30534,-49.81333 c 0.78933,-2.26667 1.432,-3.94667 1.928,-5.04 0.49333,-1.08 1.408,-2.14667 2.74266,-3.18667 1.33467,-1.02666 2.98667,-1.56 4.968,-1.56"
         style="fill:#683600;fill-opacity:1;fill-rule:nonzero;stroke:none;stroke-width:0.133333"
         id="path1109" />
      <path
         d="m 245.25208,-193.45282 c -3.26,0 -13.18,0 -16.952,7.28 -1.10933,2.08 -1.78533,4.04 -2.03466,5.92 -0.18534,1.44 -0.27334,3.36 -0.27334,5.92 v 82.413332 c 0,4.213334 0.388,7.253334 1.22,9.546667 1.47067,4.466666 5.78,9.72 17.88933,9.72 3.25734,0 13.16934,0 16.94934,-7.28 1.10666,-2.066667 1.78133,-3.986667 2.03333,-5.813333 0.19067,-1.4 0.27733,-3.306667 0.27733,-6.026667 v -82.413329 c 0,-4.08 -0.32266,-7.16 -0.98533,-9.41334 l -0.0987,-0.30666 c -1.532,-4.36 -5.90133,-9.54667 -18.02533,-9.54667 z m 0,6.06667 c 6.916,0 11.016,1.84 12.30267,5.49333 0.492,1.68 0.74,4.24 0.74,7.70667 v 82.413329 c 0,2.373333 -0.0733,4.106667 -0.22,5.2 -0.15067,1.08 -0.61867,2.373333 -1.40667,3.853333 -1.388,2.666667 -5.24133,4 -11.56667,4 -6.91599,0 -10.96799,-1.88 -12.15466,-5.64 -0.59467,-1.573333 -0.888,-4.093333 -0.888,-7.56 v -82.413332 c 0,-2.28 0.0733,-3.98667 0.22,-5.12 0.15067,-1.13333 0.61867,-2.44 1.408,-3.93333 1.38267,-2.66667 5.23867,-4 11.56533,-4"
         style="fill:#683600;fill-opacity:1;fill-rule:nonzero;stroke:none;stroke-width:0.133333"
         id="path1111" />
      <path
         d="m 283.35075,-193.45282 c -3.26,0 -13.17867,0 -16.952,7.28 -1.11067,2.08 -1.78534,4.04 -2.03467,5.92 -0.18533,1.44 -0.27333,3.36 -0.27333,5.92 v 82.413332 c 0,4.213334 0.388,7.253334 1.22,9.546667 1.47066,4.466666 5.78,9.72 17.88933,9.72 h 53.37067 c 4.30266,0 7.74933,-0.72 10.53333,-2.186667 1.74667,-0.866667 4.23067,-2.813333 5.48267,-6.813333 0.68533,-2.2 1.01733,-4.853333 1.01733,-8.12 0,-3.253333 -0.332,-5.906666 -1.01467,-8.093333 -0.99733,-3.186666 -3.088,-5.639996 -6.052,-7.119996 -2.38,-1.18667 -5.50266,-1.74667 -9.82,-1.74667 h -34.25866 v -67.45333 c 0,-4.08 -0.32134,-7.16 -0.984,-9.41334 l -0.1,-0.30666 c -1.53067,-4.36 -5.89867,-9.54667 -18.024,-9.54667 z m 0,6.06667 c 6.916,0 11.01733,1.84 12.30133,5.49333 0.49333,1.68 0.74133,4.24 0.74133,7.70667 v 73.52 h 40.324 c 3.26267,0 5.63334,0.37333 7.11467,1.119996 1.484,0.733333 2.46933,1.893333 2.96533,3.48 0.492,1.586666 0.74,3.68 0.74,6.293333 0,2.626667 -0.248,4.733333 -0.74,6.306667 -0.496,1.586666 -1.33466,2.666666 -2.52133,3.266666 -1.876,0.986667 -4.44667,1.48 -7.70533,1.48 h -53.37067 c -6.916,0 -10.968,-1.88 -12.156,-5.64 -0.59333,-1.573333 -0.88667,-4.093333 -0.88667,-7.56 v -82.413332 c 0,-2.28 0.0733,-3.98667 0.22,-5.12 0.15067,-1.13333 0.61867,-2.44 1.408,-3.93333 1.38267,-2.66667 5.23867,-4 11.56534,-4"
         style="fill:#683600;fill-opacity:1;fill-rule:nonzero;stroke:none;stroke-width:0.133333"
         id="path1113" />
      <path
         d="m 389.47341,-155.07949 h 8.168 c 5.93067,0 10.97867,2.09334 15.432,6.38667 4.38533,4.22667 6.51867,9.37333 6.51867,15.72 0,6.29333 -2.17334,11.34667 -6.644,15.46667 -4.616,4.26666 -9.57334,6.33333 -15.16,6.33333 h -8.31467 z m -19.108,-38.52 c -3.26133,0 -13.18133,0 -16.95333,7.28 -1.104,2.08 -1.77867,4 -2.02933,5.81334 -0.19067,1.41333 -0.27734,3.32 -0.27734,6.01333 v 82.426666 c 0,5.373333 0.84267,9.466666 2.576,12.506666 4.05467,6.76 13.44667,6.76 16.532,6.76 h 27.13067 c 16.73466,0 31.18,-6.04 42.936,-17.973333 11.73466,-11.893329 17.68533,-26.373329 17.68533,-43.013329 0,-16.73334 -6.12267,-31.04 -18.19867,-42.50667 -11.98133,-11.38667 -26.10533,-17.16 -41.97866,-17.16 l -27.39067,-0.14667 z m 13.04133,88.49334 h 14.38134 c 7.11466,0 13.53866,-2.64 19.27066,-7.93334 5.732,-5.28 8.6,-11.93333 8.6,-19.93333 0,-8.01333 -2.79466,-14.70667 -8.376,-20.09333 -5.58533,-5.38667 -12.132,-8.08 -19.64133,-8.08 h -14.23467 v 56.04 m -13.04133,-82.42667 27.42267,0.14667 c 14.328,0 26.932,5.16 37.80133,15.49333 10.87067,10.33333 16.30933,23.02667 16.30933,38.10667 0,15.06666 -5.31733,27.98666 -15.93866,38.759996 -10.62267,10.773333 -23.49334,16.159999 -38.616,16.159999 h -27.13067 c -6.028,0 -9.784,-1.24 -11.264,-3.706666 -1.188,-2.08 -1.77733,-5.24 -1.77733,-9.493333 v -82.426666 c 0,-2.36 0.0733,-4.09333 0.22,-5.17333 0.14933,-1.09334 0.61733,-2.37334 1.40667,-3.86667 1.38266,-2.66667 5.24,-4 11.56666,-4"
         style="fill:#683600;fill-opacity:1;fill-rule:nonzero;stroke:none;stroke-width:0.133333"
         id="path1115" />
      <path
         d="M 465.70274,-305.66615 H 65.409419 c -39.929332,0 -72.4146645,32.48 -72.4146645,72.41333 v 199.653331 c 0,39.9333323 32.4853325,72.426665 72.4146645,72.426665 H 465.70274 c 39.92934,0 72.41467,-32.4933327 72.41467,-72.426665 V -233.25282 c 0,-39.93333 -32.48533,-72.41333 -72.41467,-72.41333 z m 0,6.06667 c 36.584,0 66.348,29.76 66.348,66.34666 v 199.653331 c 0,36.5866657 -29.764,66.359998 -66.348,66.359998 H 65.409419 c -36.583999,0 -66.34799796,-29.7733323 -66.34799796,-66.359998 V -233.25282 c 0,-36.58666 29.76399896,-66.34666 66.34799796,-66.34666 H 465.70274"
         style="fill:#683600;fill-opacity:1;fill-rule:nonzero;stroke:none;stroke-width:0.133333"
         id="path1117" />
      <path
         d="m 524.07341,-283.59948 v 0 c -7.452,2.42666 -13.29467,8.26666 -15.72667,15.72 -2.432,-7.45334 -8.27466,-13.29334 -15.72666,-15.72 7.452,-2.44 13.29466,-8.28 15.72666,-15.73334 2.432,7.45334 8.27467,13.29334 15.72667,15.73334"
         style="fill:#ffffff;fill-opacity:1;fill-rule:nonzero;stroke:none;stroke-width:0.133333"
         id="path1119" />
      <path
         d="m 483.10674,-278.74615 v 0 c -5.152,1.68 -9.192,5.72 -10.87333,10.86667 -1.68133,-5.14667 -5.72133,-9.18667 -10.87333,-10.86667 5.152,-1.69333 9.192,-5.72 10.87333,-10.88 1.68133,5.16 5.72133,9.18667 10.87333,10.88"
         style="fill:#ffffff;fill-opacity:1;fill-rule:nonzero;stroke:none;stroke-width:0.133333"
         id="path1121" />
    </g>
  </g>
</svg>
