<svg xmlns="http://www.w3.org/2000/svg" xmlns:xlink="http://www.w3.org/1999/xlink" width="230" height="230" xmlns:v="https://vecta.io/nano"><defs><clipPath id="A"><path d="M16314 6263.1c-794.2 0-1440.6 631.2-1465.7 1419.3 25.5 787.8 671.7 1418.7 1465.7 1418.7s1440.3-630.8 1465.8-1418.7c-25.2-788.1-671.6-1419.3-1465.8-1419.3m-1107.8 1416.7h0c0-611.8 496-1107.8 1107.8-1107.8 611.9 0 1107.8 496 1107.8 1107.8h0 0c0 611.8-495.9 1107.8-1107.8 1107.8-611.8 0-1107.8-496-1107.8-1107.8h0"/></clipPath><linearGradient x1="0" y1="0" x2="1" y2="0" gradientTransform="matrix(0,2933.87,2933.87,0,16314,6212.9)" spreadMethod="pad" id="B" xlink:href="#Q"><stop offset="0" stop-color="#be6d00"/><stop offset=".27" stop-color="#be6d00"/><stop offset=".545" stop-color="#fff57f"/><stop offset=".994" stop-color="#de9700"/></linearGradient><clipPath id="C"><path d="M16314 6212.9c-810.2 0-1466.9 656.7-1466.9 1466.9h0c0-7.7.4-15.2.5-22.8l.7 25.4c25.1-788.1 671.5-1419.3 1465.7-1419.3s1440.6 631.2 1465.8 1419.3l.6-25.4.5 22.8h0c0-810.2-656.7-1466.9-1466.9-1466.9"/></clipPath><linearGradient x1="0" y1="0" x2="1" y2="0" gradientTransform="matrix(0,2933.87,2933.87,0,16314,6212.9)" spreadMethod="pad" id="D" xlink:href="#Q"><stop offset="0" stop-color="#8c5408"/><stop offset=".27" stop-color="#8c5408"/><stop offset=".545" stop-color="#bab361"/><stop offset=".994" stop-color="#a37108"/></linearGradient><clipPath id="E"><path d="M17780.9 7679.8c0 8.4-.4 16.7-.6 25.1l-.5-22.5c-25.5 787.9-671.8 1418.7-1465.8 1418.7s-1440.2-630.9-1465.7-1418.7l-.6 22.5-.6-25.1c0 810.2 656.7 1466.9 1466.9 1466.9s1466.9-656.7 1466.9-1466.9"/></clipPath><linearGradient x1="0" y1="0" x2="1" y2="0" gradientTransform="matrix(0,2933.87,2933.87,0,16314,6212.9)" spreadMethod="pad" id="F" xlink:href="#Q"><stop offset="0" stop-color="#e8d7c2"/><stop offset=".27" stop-color="#e8d7c2"/><stop offset=".545" stop-color="#f5f3db"/><stop offset=".994" stop-color="#eee0c2"/></linearGradient><clipPath id="G"><path d="M17780.4 7657l-.6 25.4.5 22.5.6-25.1h0c0-7.7-.4-15.2-.5-22.8m-2932.8 0l-.5 22.8h0c0 8.4.5 16.7.6 25.1l.6-22.5-.7-25.4"/></clipPath><linearGradient x1="0" y1="0" x2="1" y2="0" gradientTransform="matrix(0,2933.87,2933.87,0,16314,6212.9)" spreadMethod="pad" id="H" xlink:href="#Q"><stop offset="0" stop-color="#ded2c3"/><stop offset=".27" stop-color="#ded2c3"/><stop offset=".545" stop-color="#e7e5d5"/><stop offset=".994" stop-color="#e2d8c3"/></linearGradient><clipPath id="I"><path d="M16314 6072.2c-886.4 0-1607.6 721.1-1607.6 1607.6s721.2 1607.6 1607.6 1607.6c886.5 0 1607.6-721.1 1607.6-1607.6s-721.1-1607.6-1607.6-1607.6m-1466.9 1607.6h0c0-810.2 656.7-1466.9 1466.9-1466.9s1466.9 656.7 1466.9 1466.9h0 0 0c0 810.2-656.7 1466.9-1466.9 1466.9s-1466.9-656.7-1466.9-1466.9h0"/></clipPath><linearGradient x1="0" y1="0" x2="1" y2="0" gradientTransform="matrix(0,3215.26,3215.26,0,16314,6072.2)" spreadMethod="pad" id="J" xlink:href="#Q"><stop offset="0" stop-color="#900093"/><stop offset=".072" stop-color="#900093"/><stop offset=".5" stop-color="#fb31ff"/><stop offset=".86" stop-color="#69006b"/></linearGradient><clipPath id="K"><path d="M16314 6572c-611.8 0-1107.8 496-1107.8 1107.8h0c0-611.8 496-1107.8 1107.8-1107.8 611.9 0 1107.8 496 1107.8 1107.8h0c0-611.8-495.9-1107.8-1107.8-1107.8"/></clipPath><linearGradient x1="0" y1="0" x2="1" y2="0" gradientTransform="matrix(0,2933.87,2933.87,0,16314,6212.9)" spreadMethod="pad" id="L" xlink:href="#Q"><stop offset="0" stop-color="#5c3b10"/><stop offset=".27" stop-color="#5c3b10"/><stop offset=".545" stop-color="#767242"/><stop offset=".994" stop-color="#684c10"/></linearGradient><clipPath id="M"><path d="M16356 6763.6h-86.4v203.2h-93.4c-193.1 0-289.6 102.8-289.6 308.4v156.4h275.6v-196.2h0c0-12.5 4.2-23.3 12.8-32.7 8.6-9.3 19.1-14 31.5-14h63.1v436.8h0-93.4c-193.1 0-289.6 102.8-289.6 308.3v282.6c0 205.6 96.5 308.3 289.6 308.3h93.4v121.5h86.4v-121.5h79.4c193.1 0 289.7-102.7 289.7-308.3v-112.1h-275.6v149.5h0c0 12.4-4.3 23.3-12.8 32.7-8.6 9.4-19.1 14-31.6 14h-49.1v-413.4h0 95.8c193-3.1 289.6-105.9 289.6-308.3v-303.6c0-205.6-96.6-308.4-289.6-308.4h-95.8v-203.2m0 425.1h0 65.5c12.4 0 22.9 4.7 31.5 14h0c8.5 9.3 12.7 20 12.8 32.4v.3 343.4h0 0c0 12.4-4.3 23.3-12.8 32.7-8.6 9.3-19.1 14-31.5 14h-65.5v-436.8m-191.5 745.1h0c0-12.5 4.3-23.4 12.9-32.7 8.5-9.3 19-14 31.5-14h60.7v413.4h-60.7c-12.5 0-23-4.6-31.5-14-1.6-1.8-3.1-3.6-4.4-5.5-5.5-7.8-8.3-16.6-8.5-26.3v-320.9"/></clipPath><linearGradient x1="0" y1="0" x2="1" y2="0" gradientTransform="matrix(0,1882.62,1882.62,0,16314,6763.6)" spreadMethod="pad" id="N" xlink:href="#Q"><stop offset="0" stop-color="#be6d00"/><stop offset=".27" stop-color="#be6d00"/><stop offset=".545" stop-color="#fff57f"/><stop offset=".994" stop-color="#de9700"/></linearGradient><clipPath id="O"><path d="M16269.6 6763.6h0v203.2-203.2m151.9 425.1h-65.5 65.5c12.4 0 22.9 4.7 31.5 14h0 0c-8.6-9.3-19.1-14-31.5-14m-151.9 0h-63.1c-12.4 0-22.9 4.7-31.5 14-8.6 9.4-12.8 20.2-12.8 32.7h0c0-12.5 4.2-23.3 12.8-32.7 8.6-9.3 19.1-14 31.6-14h63v436.8h0v-436.8m196.2 46.4v.3 343.4h0v-343.4-.3m-579.2 40.1h0v156.4h275.6 0-275.6v-156.4m854.8 303.6c0 202.4-96.6 305.2-289.6 308.3h-95.8 95.8c193-3.1 289.6-105.9 289.6-308.3h0m-471.8 308.3h-60.7c-12.5 0-23 4.7-31.5 14-8.6 9.3-12.9 20.2-12.9 32.7h0c0-12.5 4.3-23.4 12.9-32.7 8.5-9.3 19-14 31.5-14h60.7v413.4-413.4m-383 46.7h0v282.6c0 205.6 96.5 308.3 289.6 308.3h93.4v121.5h86.4 0-86.4v-121.5h-93.4c-193.1 0-289.6-102.7-289.6-308.3v-282.6m562.9 170.5h0v149.5h0v-149.5m275.6 112.1c0 205.6-96.6 308.3-289.7 308.3h-79.4 79.4c193.1 0 289.7-102.7 289.7-308.3h0m-560.6 38.3c.2 9.7 3 18.5 8.5 26.3-5.5-7.8-8.3-16.6-8.5-26.3"/></clipPath><linearGradient x1="0" y1="0" x2="1" y2="0" gradientTransform="matrix(0,1882.62,1882.62,0,16314,6763.6)" spreadMethod="pad" id="P" xlink:href="#Q"><stop offset="0" stop-color="#5c3b10"/><stop offset=".27" stop-color="#5c3b10"/><stop offset=".545" stop-color="#767242"/><stop offset=".994" stop-color="#684c10"/></linearGradient><linearGradient id="Q" gradientUnits="userSpaceOnUse"/></defs><g transform="matrix(.067519 0 0 -.067519 -983.97516 634.31046)"><g clip-path="url(#A)"><g transform="scale(1.09079)"><path d="M14956.2 5741.83c-728.1 0-1320.7 578.66-1343.7 1301.17 23.4 722.23 615.8 1300.62 1343.7 1300.62S16276.6 7765.32 16300 7043c-23.1-722.51-615.7-1301.17-1343.8-1301.17m-1015.6 1298.79h0c0-560.88 454.7-1015.6 1015.6-1015.6 561 0 1015.6 454.72 1015.6 1015.6h0 0c0 560.88-454.6 1015.6-1015.6 1015.6-560.9 0-1015.6-454.72-1015.6-1015.6h0" fill="url(#B)"/></g></g><g clip-path="url(#C)"><g transform="scale(1.09085)"><path d="M14955.3 5695.45c-742.7 0-1344.8 602.01-1344.8 1344.73h0c0-7.06.4-13.93.5-20.9l.6 23.29c23.1-722.47 615.6-1301.1 1343.7-1301.1 728 0 1320.6 578.63 1343.7 1301.1l.5-23.29.5 20.9h0c0-742.72-602-1344.73-1344.7-1344.73" fill="url(#D)"/></g></g><g clip-path="url(#E)"><g transform="scale(1.09085)"><path d="M16300 7040.18c0 7.7-.4 15.31-.6 23.01 0-6.87-.2-13.75-.4-20.62-23.4 722.27-615.9 1300.54-1343.7 1300.54-727.9 0-1320.3-578.36-1343.7-1300.54l-.5 20.62-.6-23.01c0 742.72 602.1 1344.73 1344.8 1344.73S16300 7782.9 16300 7040.18" fill="url(#F)"/></g></g><g clip-path="url(#G)"><g transform="scale(1.09085)"><path d="M16299.5 7019.28l-.5 23.29.4 20.62.6-23.01h0c0-7.06-.4-13.93-.5-20.9m-2688.5 0l-.5 20.9h0c0 7.7.5 15.31.6 23.01l.5-20.62-.6-23.29" fill="url(#H)"/></g></g><g clip-path="url(#I)"><g transform="scale(1.09948)"><path d="M14837.9 5522.77c-806.2 0-1462.2 655.85-1462.2 1462.14s656 1462.14 1462.2 1462.14S16300 7791.2 16300 6984.91s-655.9-1462.14-1462.1-1462.14m-1334.2 1462.14h0c0-736.89 597.3-1334.17 1334.2-1334.17S16172 6248.02 16172 6984.91h0 0 0c0 736.89-597.2 1334.17-1334.1 1334.17s-1334.2-597.28-1334.2-1334.17h0" fill="url(#J)"/></g></g></g><path d="M192.314 115.784c0 41.307-33.485 74.797-74.799 74.797-41.307 0-74.792-33.49-74.792-74.797s33.485-74.797 74.792-74.797c41.314 0 74.799 33.489 74.799 74.797" fill="#3a2000"/><g clip-path="url(#K)" transform="matrix(.067519 0 0 -.067519 -983.97516 634.31046)"><g transform="scale(1.06882)"><path d="M15263.5 6148.82c-572.4 0-1036.4 464.07-1036.4 1036.47h0c0-572.4 464-1036.47 1036.4-1036.47 572.5 0 1036.5 464.07 1036.5 1036.47h0c0-572.4-464-1036.47-1036.5-1036.47" fill="url(#L)"/></g></g><path d="M117.515 190.581c-41.307 0-74.792-33.49-74.792-74.797s33.485-74.797 74.792-74.797c41.314 0 74.799 33.489 74.799 74.797s-33.485 74.797-74.799 74.797m0-146.663c-39.626 0-71.862 32.24-71.862 71.866s32.236 71.866 71.862 71.866 71.869-32.24 71.869-71.866-32.243-71.866-71.869-71.866" fill="#271c10"/><g clip-path="url(#M)" transform="matrix(.067519 0 0 -.067519 -983.97516 634.31046)"><g transform="scale(1.02708)"><path d="M15924.8 6585.27h-84.2v197.84h-90.9c-188 0-282 100.09-282 300.27v152.28h268.4v-191.03h0c0-12.17 4.1-22.68 12.4-31.84 8.4-9.05 18.6-13.63 30.7-13.63h61.4v425.29h0-90.9c-188 0-282 100.09-282 300.17v275.15c0 200.18 94 300.17 282 300.17h90.9v118.29h84.2v-118.29h77.3c188 0 282-99.99 282-300.17v-109.15h-268.3v145.56h0c0 12.07-4.2 22.69-12.5 31.84s-18.6 13.63-30.7 13.63h-47.8v-402.5h0 93.2c187.9-3.02 282-103.11 282-300.17v-295.6c0-200.18-94.1-300.27-282-300.27h-93.2v-197.84m0 413.89h0 63.7c12.1 0 22.3 4.58 30.7 13.63h0c8.3 9.06 12.4 19.48 12.5 31.55v.29 334.35h0 0c0 12.07-4.2 22.68-12.5 31.84-8.4 9.05-18.6 13.63-30.7 13.63h-63.7v-425.29m-186.5 725.46h0c0-12.17 4.2-22.78 12.6-31.84 8.2-9.05 18.5-13.63 30.6-13.63h59.1v402.5h-59.1c-12.1 0-22.4-4.48-30.6-13.63-1.6-1.75-3.1-3.5-4.3-5.36-5.4-7.59-8.1-16.16-8.3-25.6v-312.44" fill="url(#N)"/></g></g><path d="M120.357 180.58h-5.833a2.94 2.94 0 0 1-2.934-2.938v-10.789h-3.372c-14.712 0-22.492-8.21-22.492-23.753v-10.56a2.94 2.94 0 0 1 2.941-2.937h18.605a2.93 2.93 0 0 1 2.927 2.937v13.247c0 .095 0 .122.063.223h1.328v-23.632h-3.372c-14.712 0-22.492-8.21-22.492-23.746V79.552c0-15.543 7.78-23.753 22.492-23.753h3.372v-5.267c0-1.62 1.314-2.931 2.934-2.931h5.833c1.62 0 2.934 1.311 2.934 2.931v5.267h2.426c14.719 0 22.492 8.21 22.492 23.753v7.569a2.93 2.93 0 0 1-2.934 2.93H126.67c-1.62 0-2.941-1.31-2.941-2.93V77.027c0-.081 0-.121-.056-.222h-.382v22.052h3.581c14.677.236 22.443 8.446 22.443 23.746v20.499c0 15.542-7.78 23.753-22.492 23.753h-3.532v10.789a2.94 2.94 0 0 1-2.934 2.938m-5.833-2.938h0 5.833v-13.72h6.466c13.029 0 19.558-6.941 19.558-20.822v-20.499h0 0c0-13.666-6.529-20.606-19.558-20.816h-6.466V73.873h3.316a2.78 2.78 0 0 1 2.134.946c.57.635.862 1.37.862 2.207v10.095h18.605v-7.569h0c0-13.882-6.522-20.816-19.558-20.816h-5.361v-8.203h0-5.833v8.203h-6.306c-13.036 0-19.551 6.934-19.551 20.816v19.081h0 0c0 13.875 6.515 20.816 19.551 20.816h6.306v29.493h-4.255c-.841 0-1.55-.318-2.134-.946-.577-.635-.862-1.364-.862-2.208V132.54h0-18.605v10.56h0c0 13.881 6.515 20.822 19.551 20.822h6.306v13.72m10.255-28.701h-4.422v-29.493h4.422a2.8 2.8 0 0 1 2.128.946c.57.635.862 1.37.862 2.207v23.186.02a3.18 3.18 0 0 1-.862 2.188h0a2.8 2.8 0 0 1-2.128.946m-1.488-26.562v23.638h1.446c.104-.108.104-.142.104-.23v-23.186c0-.081 0-.121-.063-.222h-1.488m-8.767-20.593h-4.102a2.75 2.75 0 0 1-2.121-.946c-.584-.628-.876-1.363-.876-2.207V77.027v-.06c.014-.655.202-1.249.577-1.776.083-.129.188-.25.299-.371a2.73 2.73 0 0 1 2.121-.946h4.102v27.912m-4.067-24.982c-.097.108-.097.142-.097.222v21.606c0 .088 0 .122.042.216l.021.007h1.168V76.804h-1.133" fill="#271c10"/><g clip-path="url(#O)" transform="matrix(.067519 0 0 -.067519 -983.97516 634.31046)"><g transform="scale(1.02708)"><path d="M15840.6 6585.27h0v197.84-197.84m147.9 413.89h-63.7 63.7c12.1 0 22.3 4.58 30.7 13.63h0 0c-8.4-9.05-18.6-13.63-30.7-13.63m-147.9 0h-61.4c-12.1 0-22.3 4.58-30.7 13.63-8.3 9.16-12.4 19.67-12.4 31.84h0c0-12.17 4.1-22.68 12.4-31.84 8.4-9.05 18.6-13.63 30.8-13.63h61.3v425.29h0v-425.29m191.1 45.18v.29 334.35h0v-334.35-.29m-564 39.04h0v152.28h268.4 0-268.4v-152.28m832.3 295.6c0 197.06-94.1 297.15-282 300.17h-93.2 93.2c187.9-3.02 282-103.11 282-300.17h0m-459.4 300.17h-59.1c-12.1 0-22.4 4.58-30.6 13.63-8.4 9.06-12.6 19.67-12.6 31.84h0c0-12.17 4.2-22.78 12.6-31.84 8.2-9.05 18.5-13.63 30.6-13.63h59.1v402.5-402.5m-372.9 45.47h0v275.15c0 200.18 94 300.17 282 300.17h90.9v118.29h84.2 0-84.2v-118.29h-90.9c-188 0-282-99.99-282-300.17v-275.15m548.1 166h0v145.56h0v-145.56m268.3 109.15c0 200.18-94 300.17-282 300.17h-77.3 77.3c188 0 282-99.99 282-300.17h0m-545.8 37.29c.2 9.44 2.9 18.01 8.3 25.6-5.4-7.59-8.1-16.16-8.3-25.6" fill="url(#P)"/></g></g><path d="M117.522 4.167C55.981 4.167 5.909 54.239 5.909 115.782s50.072 111.615 111.614 111.615 111.614-50.072 111.614-111.615S179.064 4.167 117.522 4.167zm0 3.072c59.852 0 108.54 48.695 108.54 108.543 0 59.855-48.688 108.543-108.54 108.543S8.975 175.637 8.975 115.782c0-59.848 48.696-108.543 108.547-108.543" fill="#340041"/><path d="M178.264 33.138h0a12.43 12.43 0 0 0-7.957 7.967c-1.241-3.774-4.193-6.732-7.972-7.967 3.779-1.229 6.731-4.186 7.972-7.96 1.226 3.774 4.185 6.732 7.957 7.96m-21.565 4.628h0c-2.603.851-4.654 2.896-5.5 5.51a8.59 8.59 0 0 0-5.514-5.51c2.617-.851 4.661-2.896 5.514-5.503a8.59 8.59 0 0 0 5.5 5.503" fill="#fff"/></svg>