<?xml version="1.0" encoding="UTF-8" standalone="no"?>
<!-- Created with Inkscape (http://www.inkscape.org/) -->

<svg
   width="230.0px"
   height="230.0px"
   viewBox="0 0 230.0 230.0"
   version="1.1"
   id="SVGRoot"
   inkscape:version="1.2.2 (1:1.2.2+202212051550+b0a8486541)"
   xmlns:inkscape="http://www.inkscape.org/namespaces/inkscape"
   xmlns="http://www.w3.org/2000/svg"
   xmlns:svg="http://www.w3.org/2000/svg">
  <defs
     id="defs8589">
    <clipPath
       clipPathUnits="userSpaceOnUse"
       id="clipPath4679">
      <path
         d="m 5470.45,17541.7 c 108.91,0 172.7,-29.6 191.37,-88.7 9.31,-24.9 14,-68.5 14,-130.7 0,-62.2 -20.27,-139.6 -60.71,-232.1 -40.44,-92.6 -89.05,-184 -145.79,-274.2 -56.8,-90.2 -113.95,-181.2 -171.52,-273 -136.9,-222.4 -205.32,-401.3 -205.32,-536.6 0,-34.2 -1.54,-59.5 -4.68,-75.9 -3.14,-16.3 -10.91,-33.4 -23.3,-51.3 -12.51,-17.9 -33.08,-29.9 -61.84,-36.2 -28.81,-6.2 -68.07,-9.3 -117.86,-9.3 -49.8,0 -89.05,3.1 -117.81,9.3 -28.81,6.3 -49.39,18.7 -61.84,37.4 -12.45,18.7 -19.8,36.1 -22.17,52.5 -2.32,16.3 -3.5,42.3 -3.5,78.1 0,101.1 17.13,204.9 51.35,311.5 34.2,106.6 75.41,201.9 123.67,285.9 48.2,84 96.4,161.3 144.66,232.2 48.2,70.7 89.41,131.3 123.67,181.9 34.16,50.5 51.3,86 51.3,106.2 h -531.95 c -62.24,0 -107.36,7.8 -135.35,23.3 -27.98,15.5 -46.66,38.1 -56.02,67.7 -9.31,29.5 -13.99,68.4 -13.99,116.6 0,48.2 4.68,87.1 13.99,116.7 9.36,29.5 24.13,49.8 44.35,60.7 32.66,18.6 77.78,28 135.35,28 z"
         id="path4677" />
    </clipPath>
    <linearGradient
       x1="0"
       y1="0"
       x2="1"
       y2="0"
       gradientUnits="userSpaceOnUse"
       gradientTransform="matrix(0,1707.97,1707.97,0,5056.32,15833.7)"
       spreadMethod="pad"
       id="linearGradient4693">
      <stop
         style="stop-opacity:1;stop-color:#900093"
         offset="0"
         id="stop4683" />
      <stop
         style="stop-opacity:1;stop-color:#900093"
         offset="0.0723023"
         id="stop4685" />
      <stop
         style="stop-opacity:1;stop-color:#fb31ff"
         offset="0.5"
         id="stop4687" />
      <stop
         style="stop-opacity:1;stop-color:#69006b"
         offset="0.85994529"
         id="stop4689" />
      <stop
         style="stop-opacity:1;stop-color:#69006b"
         offset="1"
         id="stop4691" />
    </linearGradient>
    <clipPath
       clipPathUnits="userSpaceOnUse"
       id="clipPath4703">
      <path
         d="m 2729.8,17541.7 c 108.91,0 172.7,-29.6 191.38,-88.7 9.31,-24.9 13.99,-68.5 13.99,-130.7 0,-62.2 -20.27,-139.6 -60.71,-232.1 -40.43,-92.6 -89.04,-184 -145.79,-274.2 -56.79,-90.2 -113.95,-181.2 -171.52,-273 -136.89,-222.4 -205.31,-401.3 -205.31,-536.6 0,-34.2 -1.55,-59.5 -4.69,-75.9 -3.13,-16.3 -10.9,-33.4 -23.3,-51.3 -12.5,-17.9 -33.08,-29.9 -61.84,-36.2 -28.81,-6.2 -68.06,-9.3 -117.86,-9.3 -49.79,0 -89.05,3.1 -117.81,9.3 -28.81,6.3 -49.38,18.7 -61.83,37.4 -12.45,18.7 -19.81,36.1 -22.18,52.5 -2.31,16.3 -3.49,42.3 -3.49,78.1 0,101.1 17.13,204.9 51.34,311.5 34.21,106.6 75.42,201.9 123.67,285.9 48.21,84 96.41,161.3 144.67,232.2 48.2,70.7 89.4,131.3 123.67,181.9 34.16,50.5 51.29,86 51.29,106.2 h -531.94 c -62.25,0 -107.37,7.8 -135.35,23.3 -27.99,15.5 -46.66,38.1 -56.03,67.7 -9.31,29.5 -13.99,68.4 -13.99,116.6 0,48.2 4.68,87.1 13.99,116.7 9.37,29.5 24.13,49.8 44.35,60.7 32.67,18.6 77.78,28 135.35,28 z"
         id="path4701" />
    </clipPath>
    <linearGradient
       x1="0"
       y1="0"
       x2="1"
       y2="0"
       gradientUnits="userSpaceOnUse"
       gradientTransform="matrix(0,1707.97,1707.97,0,2315.67,15833.7)"
       spreadMethod="pad"
       id="linearGradient4717">
      <stop
         style="stop-opacity:1;stop-color:#900093"
         offset="0"
         id="stop4707" />
      <stop
         style="stop-opacity:1;stop-color:#900093"
         offset="0.0723023"
         id="stop4709" />
      <stop
         style="stop-opacity:1;stop-color:#fb31ff"
         offset="0.5"
         id="stop4711" />
      <stop
         style="stop-opacity:1;stop-color:#69006b"
         offset="0.85994529"
         id="stop4713" />
      <stop
         style="stop-opacity:1;stop-color:#69006b"
         offset="1"
         id="stop4715" />
    </linearGradient>
    <clipPath
       clipPathUnits="userSpaceOnUse"
       id="clipPath4727">
      <path
         d="m 5470.45,17661.7 h -839.94 c -78.9,0 -142.28,-14.1 -193.7,-43.2 -33.2,-18.2 -76.96,-55.3 -100.39,-129.2 -13.21,-42 -19.6,-92 -19.6,-153 0,-61 6.39,-111 19.55,-152.7 18.65,-58.9 57.45,-106.1 112.21,-136.5 47.18,-26.2 108.7,-38.4 193.6,-38.4 h 326.26 c -20.98,-30.9 -43.79,-64.4 -68.44,-100.6 -49.91,-73.2 -100.23,-154 -149.58,-240 -52.16,-90.8 -97.2,-194.7 -133.85,-308.9 -37.88,-118 -57.09,-235.1 -57.09,-348.2 0,-42.2 1.49,-72.4 4.69,-95 4.99,-34.4 18.81,-68.7 41.14,-102.2 20.82,-31.2 61.39,-71.9 136.36,-88.1 37.34,-8 84.17,-12 143.13,-12 58.92,0 105.76,4 143.19,12 73.71,16 114.04,54.9 134.89,84.8 22.17,32 36.46,64.6 42.75,97.4 4.68,24.3 6.85,55.6 6.85,98.5 0,77.1 32.53,221.9 187.52,473.8 56.99,90.8 114.11,181.7 170.87,271.9 59.79,95.1 111.66,192.7 154.21,290.1 47.6,108.9 70.74,200.5 70.74,280.1 0,77.6 -6.34,130.1 -20.5,169.7 -25.74,78.1 -99.71,169.7 -304.87,169.7 z m 0,-120 c 108.91,0 172.7,-29.6 191.37,-88.7 9.31,-24.9 14,-68.5 14,-130.7 0,-62.2 -20.27,-139.6 -60.71,-232.1 -40.43,-92.6 -89.05,-184 -145.79,-274.2 -56.8,-90.2 -113.95,-181.2 -171.52,-273 -136.9,-222.4 -205.32,-401.3 -205.32,-536.6 0,-34.2 -1.54,-59.5 -4.68,-75.9 -3.14,-16.3 -10.91,-33.4 -23.3,-51.3 -12.5,-17.9 -33.08,-29.9 -61.84,-36.2 -28.81,-6.2 -68.06,-9.3 -117.86,-9.3 -49.8,0 -89.05,3.1 -117.81,9.3 -28.81,6.3 -49.39,18.7 -61.84,37.4 -12.44,18.7 -19.8,36.1 -22.17,52.5 -2.32,16.3 -3.5,42.3 -3.5,78.1 0,101.1 17.13,204.9 51.35,311.6 34.2,106.5 75.41,201.8 123.67,285.8 48.2,84 96.4,161.3 144.66,232.2 48.2,70.7 89.41,131.3 123.68,181.9 34.15,50.5 51.29,86 51.29,106.2 h -531.95 c -62.24,0 -107.36,7.8 -135.35,23.3 -27.98,15.5 -46.66,38.1 -56.02,67.7 -9.31,29.5 -13.99,68.4 -13.99,116.6 0,48.2 4.68,87.1 13.99,116.7 9.36,29.5 24.13,49.8 44.35,60.7 32.66,18.6 77.78,28 135.35,28 h 839.94"
         id="path4725" />
    </clipPath>
    <linearGradient
       x1="0"
       y1="0"
       x2="1"
       y2="0"
       gradientUnits="userSpaceOnUse"
       gradientTransform="matrix(0,1947.97,1947.97,0,5056.32,15713.7)"
       spreadMethod="pad"
       id="linearGradient4741">
      <stop
         style="stop-opacity:1;stop-color:#be6d00"
         offset="0"
         id="stop4731" />
      <stop
         style="stop-opacity:1;stop-color:#fff57f"
         offset="0.25008721"
         id="stop4733" />
      <stop
         style="stop-opacity:1;stop-color:#fff57f"
         offset="0.433036"
         id="stop4735" />
      <stop
         style="stop-opacity:1;stop-color:#be6d00"
         offset="0.78897242"
         id="stop4737" />
      <stop
         style="stop-opacity:1;stop-color:#be6d00"
         offset="1"
         id="stop4739" />
    </linearGradient>
    <clipPath
       clipPathUnits="userSpaceOnUse"
       id="clipPath4751">
      <path
         d="m 2729.8,17661.7 h -839.94 c -78.89,0 -142.27,-14.1 -193.68,-43.2 -33.2,-18.2 -76.98,-55.3 -100.4,-129.2 -13.22,-42 -19.61,-92 -19.61,-153 0,-61 6.4,-111 19.55,-152.7 18.66,-58.9 57.45,-106.1 112.22,-136.5 47.17,-26.2 108.69,-38.4 193.6,-38.4 h 326.25 c -20.98,-30.9 -43.79,-64.4 -68.43,-100.6 -49.92,-73.2 -100.24,-154 -149.59,-240 -52.15,-90.8 -97.2,-194.7 -133.85,-308.9 -37.88,-118 -57.08,-235.1 -57.08,-348.2 0,-42.2 1.49,-72.4 4.69,-95 4.98,-34.4 18.8,-68.7 41.14,-102.2 20.81,-31.2 61.37,-71.9 136.35,-88.1 37.34,-8 84.18,-12 143.14,-12 58.92,0 105.76,4 143.18,12 73.71,16 114.03,54.9 134.89,84.8 22.17,32 36.47,64.6 42.77,97.4 4.67,24.3 6.84,55.6 6.84,98.5 0,77.1 32.53,221.9 187.51,473.8 56.99,90.8 114.12,181.7 170.88,271.9 59.78,95.1 111.65,192.7 154.21,290.1 47.59,108.9 70.73,200.5 70.73,280.1 0,77.6 -6.33,130.1 -20.5,169.7 -25.74,78.1 -99.71,169.7 -304.87,169.7 z m 0,-120 c 108.91,0 172.7,-29.6 191.38,-88.7 9.31,-24.9 13.99,-68.5 13.99,-130.7 0,-62.2 -20.27,-139.6 -60.7,-232.1 -40.44,-92.6 -89.05,-184 -145.8,-274.2 -56.79,-90.2 -113.95,-181.2 -171.52,-273 -136.89,-222.4 -205.31,-401.3 -205.31,-536.6 0,-34.2 -1.55,-59.5 -4.69,-75.9 -3.13,-16.3 -10.9,-33.4 -23.3,-51.3 -12.5,-17.9 -33.08,-29.9 -61.84,-36.2 -28.81,-6.2 -68.06,-9.3 -117.85,-9.3 -49.8,0 -89.06,3.1 -117.82,9.3 -28.81,6.3 -49.38,18.7 -61.83,37.4 -12.45,18.7 -19.81,36.1 -22.18,52.5 -2.31,16.3 -3.49,42.3 -3.49,78.1 0,101.1 17.13,204.9 51.34,311.6 34.21,106.5 75.42,201.8 123.67,285.8 48.21,84 96.41,161.3 144.67,232.2 48.2,70.7 89.4,131.3 123.67,181.9 34.16,50.5 51.29,86 51.29,106.2 h -531.94 c -62.25,0 -107.37,7.8 -135.35,23.3 -27.99,15.5 -46.66,38.1 -56.02,67.7 -9.32,29.5 -14,68.4 -14,116.6 0,48.2 4.68,87.1 14,116.7 9.36,29.5 24.12,49.8 44.34,60.7 32.67,18.6 77.78,28 135.35,28 h 839.94"
         id="path4749" />
    </clipPath>
    <linearGradient
       x1="0"
       y1="0"
       x2="1"
       y2="0"
       gradientUnits="userSpaceOnUse"
       gradientTransform="matrix(0,1947.97,1947.97,0,2315.67,15713.7)"
       spreadMethod="pad"
       id="linearGradient4765">
      <stop
         style="stop-opacity:1;stop-color:#be6d00"
         offset="0"
         id="stop4755" />
      <stop
         style="stop-opacity:1;stop-color:#fff57f"
         offset="0.25008721"
         id="stop4757" />
      <stop
         style="stop-opacity:1;stop-color:#fff57f"
         offset="0.433036"
         id="stop4759" />
      <stop
         style="stop-opacity:1;stop-color:#be6d00"
         offset="0.78897242"
         id="stop4761" />
      <stop
         style="stop-opacity:1;stop-color:#be6d00"
         offset="1"
         id="stop4763" />
    </linearGradient>
    <clipPath
       clipPathUnits="userSpaceOnUse"
       id="clipPath4775">
      <path
         d="m 4232.2,18086.4 c 143.64,0 227.78,-39 252.41,-117 12.28,-32.8 18.46,-90.3 18.46,-172.3 0,-82 -26.74,-184.2 -80.07,-306.2 -53.33,-122.1 -117.45,-242.6 -192.29,-361.6 -74.91,-119 -150.29,-239 -226.22,-360 -180.55,-293.4 -270.8,-529.4 -270.8,-707.9 0,-45.1 -2.03,-78.4 -6.17,-100 -4.14,-21.5 -14.39,-44.1 -30.74,-67.7 -16.49,-23.6 -43.63,-39.5 -81.56,-47.7 -37.99,-8.2 -89.77,-12.3 -155.44,-12.3 -65.69,0 -117.46,4.1 -155.39,12.3 -37.99,8.2 -65.14,24.6 -81.55,49.3 -16.42,24.6 -26.13,47.7 -29.25,69.2 -3.05,21.5 -4.62,55.9 -4.62,103.1 0,133.3 22.6,270.3 67.72,410.8 45.13,140.6 99.47,266.2 163.12,377 63.58,110.8 127.15,212.8 190.8,306.3 63.57,93.2 117.93,173.2 163.12,239.9 45.05,66.7 67.64,113.4 67.64,140.1 h -701.58 c -82.11,0 -141.61,10.2 -178.53,30.7 -36.9,20.5 -61.54,50.3 -73.89,89.3 -12.28,39 -18.45,90.3 -18.45,153.8 0,63.6 6.17,114.9 18.45,153.9 12.35,39 31.82,65.7 58.49,80 43.09,24.7 102.6,37 178.52,37 z"
         id="path4773" />
    </clipPath>
    <linearGradient
       x1="0"
       y1="0"
       x2="1"
       y2="0"
       gradientUnits="userSpaceOnUse"
       gradientTransform="matrix(0,2252.69,2252.69,0,3685.99,15833.7)"
       spreadMethod="pad"
       id="linearGradient4789">
      <stop
         style="stop-opacity:1;stop-color:#900093"
         offset="0"
         id="stop4779" />
      <stop
         style="stop-opacity:1;stop-color:#900093"
         offset="0.0723023"
         id="stop4781" />
      <stop
         style="stop-opacity:1;stop-color:#fb31ff"
         offset="0.5"
         id="stop4783" />
      <stop
         style="stop-opacity:1;stop-color:#69006b"
         offset="0.85994529"
         id="stop4785" />
      <stop
         style="stop-opacity:1;stop-color:#69006b"
         offset="1"
         id="stop4787" />
    </linearGradient>
    <clipPath
       clipPathUnits="userSpaceOnUse"
       id="clipPath4799">
      <path
         d="M 4232.2,18206.4 H 3124.38 c -97.39,0 -174.87,-17 -236.83,-52.1 -37.6,-20.6 -87.41,-63 -114.56,-148.6 -16.22,-51.5 -24.07,-113.7 -24.07,-190.2 0,-76.5 7.85,-138.6 24.01,-189.9 21.6,-68.2 66.56,-122.8 130.08,-158.1 56.33,-31.2 131.56,-45.8 236.78,-45.8 h 502.55 c -38.11,-56.2 -81.74,-120.3 -130.89,-192.5 -65.28,-95.8 -131.13,-201.5 -195.72,-314 -67.46,-117.5 -125.77,-252.1 -173.29,-400.1 -48.75,-151.8 -73.46,-302.4 -73.46,-447.5 0,-53.9 1.84,-92 5.81,-119.9 5.73,-39.7 21.93,-79.6 48.19,-119 23.56,-35.3 69.74,-81.3 156.06,-100 46.55,-10.1 105.68,-15 180.74,-15 75.01,0 134.15,4.9 180.8,15 68.3,14.8 120.3,47.2 154.59,96.3 26.09,37.7 42.89,75.8 50.19,113.8 5.68,29.6 8.33,68.6 8.33,122.6 0,155.2 85.12,372.2 253,645 75.35,120.1 150.7,240 225.58,359 77.83,123.7 145.35,250.7 200.7,377.5 60.62,138.7 90.1,254.5 90.1,354.2 0,96.6 -7.94,164 -24.96,211.4 -29.86,91 -117.78,197.9 -365.91,197.9 z m 0,-120 c 143.64,0 227.78,-39 252.41,-117 12.28,-32.8 18.46,-90.3 18.46,-172.3 0,-82 -26.74,-184.2 -80.07,-306.2 -53.33,-122.1 -117.45,-242.6 -192.29,-361.6 -74.91,-119 -150.29,-239 -226.22,-360 -180.55,-293.4 -270.8,-529.4 -270.8,-707.9 0,-45.1 -2.03,-78.4 -6.17,-100 -4.14,-21.5 -14.39,-44.1 -30.74,-67.7 -16.49,-23.6 -43.63,-39.5 -81.56,-47.7 -37.99,-8.2 -89.77,-12.3 -155.44,-12.3 -65.68,0 -117.46,4.1 -155.39,12.3 -37.99,8.2 -65.13,24.6 -81.55,49.3 -16.42,24.6 -26.13,47.7 -29.25,69.2 -3.05,21.5 -4.61,55.9 -4.61,103.1 0,133.3 22.59,270.3 67.71,410.8 45.13,140.6 99.48,266.2 163.12,377 63.58,110.8 127.15,212.8 190.8,306.3 63.58,93.2 117.93,173.2 163.12,239.9 45.05,66.7 67.65,113.4 67.65,140.1 h -701.59 c -82.1,0 -141.61,10.2 -178.53,30.7 -36.9,20.5 -61.53,50.3 -73.89,89.3 -12.28,39 -18.45,90.3 -18.45,153.8 0,63.6 6.17,114.9 18.45,153.9 12.36,39 31.83,65.7 58.49,80 43.09,24.7 102.6,37 178.52,37 H 4232.2"
         id="path4797" />
    </clipPath>
    <linearGradient
       x1="0"
       y1="0"
       x2="1"
       y2="0"
       gradientUnits="userSpaceOnUse"
       gradientTransform="matrix(0,2492.69,2492.69,0,3685.99,15713.7)"
       spreadMethod="pad"
       id="linearGradient4813">
      <stop
         style="stop-opacity:1;stop-color:#be6d00"
         offset="0"
         id="stop4803" />
      <stop
         style="stop-opacity:1;stop-color:#fff57f"
         offset="0.25008721"
         id="stop4805" />
      <stop
         style="stop-opacity:1;stop-color:#fff57f"
         offset="0.433036"
         id="stop4807" />
      <stop
         style="stop-opacity:1;stop-color:#be6d00"
         offset="0.78897242"
         id="stop4809" />
      <stop
         style="stop-opacity:1;stop-color:#be6d00"
         offset="1"
         id="stop4811" />
    </linearGradient>
    <clipPath
       clipPathUnits="userSpaceOnUse"
       id="clipPath4317">
      <path
         d="M 12410.4,15106.4 H 7593.6 v 3708 h 4816.8 v -3708 m -4077.82,1835.5 -268.69,-109 c 316.69,-781.2 1069.03,-1255.1 1863.19,-1255.2 251.42,0 506.92,47.5 754.32,147.7 1028.6,417 1524.5,1588.9 1107.5,2617.5 l -268.7,-108.9 v 0 L 8332.58,16941.9 v 0"
         id="path4315" />
    </clipPath>
    <clipPath
       clipPathUnits="userSpaceOnUse"
       id="clipPath4323">
      <path
         d="m 9655.2,17463.2 h 1039.2 v 343.203 H 9655.2 Z"
         id="path4321" />
    </clipPath>
    <clipPath
       clipPathUnits="userSpaceOnUse"
       id="clipPath4353">
      <path
         d="M 12410.4,15106.4 H 7593.6 v 3708 h 4816.8 v -3708 m -4077.82,1835.5 -268.69,-109 c 316.69,-781.2 1069.03,-1255.1 1863.19,-1255.2 251.42,0 506.92,47.5 754.32,147.7 1028.6,417 1524.5,1588.9 1107.5,2617.5 l -268.7,-108.9 v 0 L 8332.58,16941.9 v 0"
         id="path4351" />
    </clipPath>
    <clipPath
       clipPathUnits="userSpaceOnUse"
       id="clipPath4359">
      <path
         d="m 8277.6,16788.8 h 693.598 v 343.199 H 8277.6 Z"
         id="path4357" />
    </clipPath>
    <clipPath
       clipPathUnits="userSpaceOnUse"
       id="clipPath4479">
      <path
         d="m 9927.08,15577.7 c -794.16,0.1 -1546.5,474 -1863.19,1255.2 l 268.69,109 v 0 0 c 76.92,-189.8 183.87,-358.4 313.14,-502.5 326.17,-363.6 794.56,-571.7 1281.26,-571.7 215.12,0 433.82,40.6 645.52,126.4 668.8,271.1 1074.4,915.1 1074.1,1595 0,94.8 -7.9,190.3 -24.1,285.6 -20.5,120.7 -54.4,241.1 -102.3,359.3 l 268.7,108.9 c 417,-1028.6 -78.9,-2200.5 -1107.5,-2617.5 -247.4,-100.2 -502.9,-147.7 -754.32,-147.7"
         id="path4477" />
    </clipPath>
    <linearGradient
       x1="0"
       y1="0"
       x2="1"
       y2="0"
       gradientUnits="userSpaceOnUse"
       gradientTransform="matrix(0,2765.24,2765.24,0,10000.3,15577.7)"
       spreadMethod="pad"
       id="linearGradient4493">
      <stop
         style="stop-opacity:1;stop-color:#549300"
         offset="0"
         id="stop4483" />
      <stop
         style="stop-opacity:1;stop-color:#549300"
         offset="0.0723023"
         id="stop4485" />
      <stop
         style="stop-opacity:1;stop-color:#a6ff31"
         offset="0.5"
         id="stop4487" />
      <stop
         style="stop-opacity:1;stop-color:#3d6b00"
         offset="0.85994529"
         id="stop4489" />
      <stop
         style="stop-opacity:1;stop-color:#3d6b00"
         offset="1"
         id="stop4491" />
    </linearGradient>
    <clipPath
       clipPathUnits="userSpaceOnUse"
       id="clipPath4503">
      <path
         d="m 9926.98,15867.7 c -486.7,0 -955.09,208.1 -1281.26,571.7 326.17,-363.6 794.56,-571.7 1281.26,-571.7 215.12,0 433.82,40.6 645.52,126.4 668.8,271.1 1074.4,915.1 1074.1,1595 0.3,-679.9 -405.3,-1323.9 -1074.1,-1595 -211.7,-85.8 -430.4,-126.4 -645.52,-126.4 m -81.08,200.9 c -610.44,0 -1191.74,327.4 -1500.28,878.6 l -13.04,-5.3 v 0 0 L 11520.2,18234 v 0 c 47.9,-118.2 81.8,-238.6 102.3,-359.3 -20.5,120.7 -54.4,241.1 -102.3,359.3 l -13,-5.3 c 219.5,-825.4 -204,-1704.5 -1016.2,-2033.7 -211.5,-85.7 -430.1,-126.4 -645.1,-126.4"
         id="path4501" />
    </clipPath>
    <linearGradient
       x1="0"
       y1="0"
       x2="1"
       y2="0"
       gradientUnits="userSpaceOnUse"
       gradientTransform="matrix(0,2366.32,2366.32,0,9989.61,15867.7)"
       spreadMethod="pad"
       id="linearGradient4517">
      <stop
         style="stop-opacity:1;stop-color:#6b0000"
         offset="0"
         id="stop4507" />
      <stop
         style="stop-opacity:1;stop-color:#6b0000"
         offset="0.14005471"
         id="stop4509" />
      <stop
         style="stop-opacity:1;stop-color:#ff3131"
         offset="0.5"
         id="stop4511" />
      <stop
         style="stop-opacity:1;stop-color:#930000"
         offset="0.9276977"
         id="stop4513" />
      <stop
         style="stop-opacity:1;stop-color:#930000"
         offset="1"
         id="stop4515" />
    </linearGradient>
    <clipPath
       clipPathUnits="userSpaceOnUse"
       id="clipPath4527">
      <path
         d="m 8645.72,16439.4 c -129.27,144.1 -236.22,312.7 -313.14,502.5 v 0 c 76.92,-189.8 183.87,-358.4 313.14,-502.5 m 3000.88,1149.7 c 0,94.8 -7.9,190.3 -24.1,285.6 16.2,-95.3 24.1,-190.8 24.1,-285.6"
         id="path4525" />
    </clipPath>
    <linearGradient
       x1="0"
       y1="0"
       x2="1"
       y2="0"
       gradientUnits="userSpaceOnUse"
       gradientTransform="matrix(0,2765.24,2765.24,0,10000.3,15577.7)"
       spreadMethod="pad"
       id="linearGradient4541">
      <stop
         style="stop-opacity:1;stop-color:#4c760c"
         offset="0"
         id="stop4531" />
      <stop
         style="stop-opacity:1;stop-color:#4c760c"
         offset="0.0723023"
         id="stop4533" />
      <stop
         style="stop-opacity:1;stop-color:#8dcc33"
         offset="0.5"
         id="stop4535" />
      <stop
         style="stop-opacity:1;stop-color:#39560c"
         offset="0.85994529"
         id="stop4537" />
      <stop
         style="stop-opacity:1;stop-color:#39560c"
         offset="1"
         id="stop4539" />
    </linearGradient>
    <clipPath
       clipPathUnits="userSpaceOnUse"
       id="clipPath4551">
      <path
         d="m 9926.98,15867.7 c -486.7,0 -955.09,208.1 -1281.26,571.7 -129.27,144.1 -236.22,312.7 -313.14,502.5 l 13.04,5.3 c 308.54,-551.2 889.84,-878.6 1500.28,-878.6 215,0 433.6,40.7 645.1,126.4 812.2,329.2 1235.7,1208.3 1016.2,2033.7 l 13,5.3 c 47.9,-118.2 81.8,-238.6 102.3,-359.3 16.2,-95.3 24.1,-190.8 24.1,-285.6 0.3,-679.9 -405.3,-1323.9 -1074.1,-1595 -211.7,-85.8 -430.4,-126.4 -645.52,-126.4"
         id="path4549" />
    </clipPath>
    <linearGradient
       x1="0"
       y1="0"
       x2="1"
       y2="0"
       gradientUnits="userSpaceOnUse"
       gradientTransform="matrix(0,2366.32,2366.32,0,9989.61,15867.7)"
       spreadMethod="pad"
       id="linearGradient4565">
      <stop
         style="stop-opacity:1;stop-color:#5e000c"
         offset="0"
         id="stop4555" />
      <stop
         style="stop-opacity:1;stop-color:#5e000c"
         offset="0.14005471"
         id="stop4557" />
      <stop
         style="stop-opacity:1;stop-color:#d52733"
         offset="0.5"
         id="stop4559" />
      <stop
         style="stop-opacity:1;stop-color:#7e000c"
         offset="0.9276977"
         id="stop4561" />
      <stop
         style="stop-opacity:1;stop-color:#7e000c"
         offset="1"
         id="stop4563" />
    </linearGradient>
    <clipPath
       clipPathUnits="userSpaceOnUse"
       id="clipPath4575">
      <path
         d="m 11830.1,18241.4 0.1,0.1 z m -82.2,203.1 h -0.1 l -268.7,-108.9 -3187.68,-1292.2 -268.69,-108.9 c -56.07,-22.8 -83.1,-86.6 -60.37,-142.7 439,-1083 1677.22,-1606.9 2760.14,-1167.9 1081.6,438.4 1605.5,1674 1169.7,2755.9 -0.5,1.4 -1.1,2.9 -1.7,4.3 -22.7,56.1 -86.5,83.2 -142.6,60.4 z m 41,-101.6 c 417,-1028.6 -78.9,-2200.5 -1107.5,-2617.5 -1028.64,-416.9 -2200.54,78.9 -2617.51,1107.5 l 268.69,109 3187.62,1292.1 268.7,108.9 m 0,0 0.2,0.1"
         id="path4573" />
    </clipPath>
    <linearGradient
       x1="0"
       y1="0"
       x2="1"
       y2="0"
       gradientUnits="userSpaceOnUse"
       gradientTransform="matrix(0,2983.95,2983.95,0,10000,15468.6)"
       spreadMethod="pad"
       id="linearGradient4589">
      <stop
         style="stop-opacity:1;stop-color:#be6d00"
         offset="0"
         id="stop4579" />
      <stop
         style="stop-opacity:1;stop-color:#fff57f"
         offset="0.25008721"
         id="stop4581" />
      <stop
         style="stop-opacity:1;stop-color:#fff57f"
         offset="0.433036"
         id="stop4583" />
      <stop
         style="stop-opacity:1;stop-color:#be6d00"
         offset="0.78897242"
         id="stop4585" />
      <stop
         style="stop-opacity:1;stop-color:#be6d00"
         offset="1"
         id="stop4587" />
    </linearGradient>
    <clipPath
       clipPathUnits="userSpaceOnUse"
       id="clipPath3387">
      <path
         d="M 5620.8,10229.6 H 1752 v 4180.8 h 3868.8 v -4180.8 m -1935.12,408.6 c 103.24,-60.8 221.89,-92.8 344.98,-92.8 76.63,0 151.87,12.7 223.65,37.7 627.32,218.7 1048.8,783.9 1048.8,1406.5 0,594.5 -378.32,1134 -963.8,1374.3 -79.77,32.8 -164.04,50.6 -250.8,53.1 1.97,2.5 3.96,4.9 5.97,7.4 41.33,50 91.3,92.9 148.49,127.3 66.32,39.9 108.84,109.8 113.76,187 4.93,77.4 -28.46,152.3 -89.33,200.4 l -23.29,18.5 -63.92,50.5 c -41.65,32.9 -93.81,51.1 -146.87,51.1 -63.83,0 -123.51,-25.1 -168.03,-70.6 -20.98,-21.4 -41.53,-43.9 -61.42,-67.2 -58.71,41.4 -127.36,75.6 -204.69,101.8 -144.29,49 -303.85,71.8 -502.16,71.8 v 0 c -109.18,0 -221.38,-7 -311.53,-12.6 -73.17,-4.5 -135.39,-57.7 -151.3,-129.2 -15.9,-71.6 17.95,-146.1 82.31,-181.2 67.71,-37 115.09,-72.3 149.1,-111.2 28.64,-32.8 54.17,-75.8 81.2,-121.4 31.32,-52.9 65.8,-111 112.16,-165 -638.12,-249.3 -1034.02,-847 -986.18,-1491.1 42.95,-578.4 449.62,-1087.4 1036.03,-1296.7 74.72,-26.7 153.05,-40.2 232.83,-40.2 122.88,0 241.19,31.7 344.04,91.8 m 344.98,-47.3 c -124.82,0 -244.26,35.4 -344.89,100.7 v 0 0 c 100.64,-65.3 220.07,-100.7 344.9,-100.7 -0.01,0 -0.01,0 -0.01,0 m -689.02,1 c -74.54,0 -147.73,12.7 -217.53,37.6 -569.47,203.2 -964.34,696.7 -1005.96,1257.2 -46.63,627.8 342.66,1210.4 968.71,1449.7 17.99,6.9 36.25,12.9 54.72,18.1 -0.97,0.9 -1.94,1.8 -2.9,2.7 -67.74,62 -112.91,138.2 -152.75,205.4 -28.13,47.4 -54.71,92.2 -86.08,128.1 -37.66,43.1 -89,81.6 -161.57,121.2 -46.93,25.6 -71.27,79.2 -59.67,131.4 11.6,52.2 56.33,90.4 109.7,93.7 89.55,5.6 200.98,12.5 308.71,12.5 v 0 c -107.73,0 -219.16,-6.9 -308.7,-12.5 -53.37,-3.3 -98.11,-41.5 -109.71,-93.7 -11.59,-52.2 12.74,-105.8 59.68,-131.4 72.56,-39.6 123.9,-78.1 161.57,-121.2 31.37,-35.9 57.94,-80.7 86.08,-128.1 39.84,-67.2 85.01,-143.4 152.75,-205.4 0.96,-0.9 1.93,-1.8 2.9,-2.7 -18.47,-5.2 -36.73,-11.2 -54.73,-18.1 -626.04,-239.3 -1015.34,-821.9 -968.71,-1449.7 41.63,-560.5 436.49,-1054 1005.96,-1257.2 69.81,-24.9 143,-37.6 217.54,-37.6 -0.01,0 -0.01,0 -0.01,0 m 689.03,119 c -32.97,0 -65.78,3.1 -97.93,9.3 32.15,-6.2 64.96,-9.3 97.93,-9.3 26.86,0 53.8,2.1 80.57,6.3 -26.77,-4.2 -53.71,-6.3 -80.57,-6.3 m -1796.35,1278.4 c -0.12,556.8 369.63,1034 895.38,1235 14.44,5.5 29.05,10.4 43.78,14.5 -14.74,-4.1 -29.33,-9 -43.78,-14.5 -525.75,-201 -895.5,-678.2 -895.38,-1235 m 2903.29,0.3 c 0,0 0,0 0,0 0,0.6 0,1.3 0,2 v 0 c 0,-0.7 0,-1.3 0,-2 v 0 m 0,2.1 c 0,0 0,0 0,0 -0.51,301.8 -109.64,580.1 -293.33,803.6 183.69,-223.5 292.82,-501.9 293.33,-803.6 m -1328.14,1197.8 c 0.92,4.7 1.87,9.4 2.89,14.2 -1.01,-4.7 -1.96,-9.5 -2.87,-14.2 -0.01,0 -0.01,0 -0.02,0 m -329.03,157.3 v 0 c 80.33,1.3 159.68,29.6 223.49,78.4 -1.7,-4.8 -3.37,-9.6 -5,-14.4 1.63,4.8 3.3,9.6 5,14.4 -63.81,-48.8 -143.16,-77.1 -223.49,-78.4 v 0 m 520.4,21.8 v 0 c 22.02,2.1 44.17,3.2 66.35,3.2 v 0 c -22.18,0 -44.34,-1.1 -66.35,-3.2 m -128.75,12.9 c 23.28,48.4 53.21,97.2 91.52,144.3 -38.33,-47.1 -68.2,-95.9 -91.42,-144.3 -0.03,0 -0.07,0 -0.1,0 m -174.87,24.2 c 0.02,0.1 0.05,0.1 0.07,0.2 -0.03,-0.1 -0.05,-0.1 -0.07,-0.2 m 0.35,1.1 c 0.04,0.1 0.08,0.2 0.12,0.3 -0.04,-0.1 -0.08,-0.2 -0.12,-0.3 m 0.33,0.9 c 0.06,0.2 0.12,0.4 0.19,0.6 -0.07,-0.2 -0.13,-0.4 -0.19,-0.6 m 0.35,1.1 c 0.08,0.2 0.16,0.4 0.24,0.7 -0.08,-0.3 -0.16,-0.5 -0.24,-0.7 m 0.33,0.9 c 0.1,0.3 0.2,0.6 0.3,0.9 -0.1,-0.3 -0.2,-0.6 -0.3,-0.9 m 265.04,116.1 c 0.35,0.4 0.7,0.8 1.06,1.3 -0.36,-0.5 -0.71,-0.9 -1.06,-1.3 m 1.11,1.3 c 0.35,0.5 0.68,0.8 1.04,1.3 -0.35,-0.4 -0.69,-0.9 -1.04,-1.3 m 1.07,1.3 c 0.36,0.5 0.71,0.9 1.07,1.3 62.14,75.3 130.76,127.7 190.78,163.8 22.47,13.5 34,36.7 34.06,60.1 -0.06,-23.4 -11.59,-46.6 -34.06,-60.1 -60.02,-36.1 -128.64,-88.5 -190.78,-163.8 -0.36,-0.4 -0.71,-0.8 -1.07,-1.3 m -154.64,330.4 v 0 c 27.54,34.5 56.48,67.2 86.64,98 35.9,36.7 84.03,56.9 135.52,56.9 v 0 c -51.49,0 -99.61,-20.2 -135.51,-56.9 -30.17,-30.8 -59.1,-63.5 -86.65,-98 m 172.41,14.1 c 10.9,11.1 24.71,17.8 39.15,20 -14.44,-2.2 -28.25,-8.9 -39.15,-20 m 94.01,5.4 c -9.42,7.4 -20.22,12.1 -31.36,14.2 11.14,-2.1 21.94,-6.8 31.36,-14.2 m -757.73,38.7 c -73.48,9.1 -148,12.5 -222.83,12.5 -100.46,0 -201.44,-6.1 -301.26,-12.3 99.82,6.2 200.8,12.3 301.26,12.3 74.82,0 149.34,-3.4 222.83,-12.5"
         id="path3385" />
    </clipPath>
    <clipPath
       clipPathUnits="userSpaceOnUse"
       id="clipPath3393">
      <path
         d="m 3156,13016 h 708 v 352.801 h -708 z"
         id="path3391" />
    </clipPath>
    <clipPath
       clipPathUnits="userSpaceOnUse"
       id="clipPath3441">
      <path
         d="M 5620.8,10229.6 H 1752 v 4180.8 h 3868.8 v -4180.8 m -1935.12,408.6 c 103.24,-60.8 221.89,-92.8 344.98,-92.8 76.63,0 151.87,12.7 223.65,37.7 627.32,218.7 1048.8,783.9 1048.8,1406.5 0,594.5 -378.32,1134 -963.8,1374.3 -79.77,32.8 -164.04,50.6 -250.8,53.1 1.97,2.5 3.96,4.9 5.97,7.4 41.33,50 91.3,92.9 148.49,127.3 66.32,39.9 108.84,109.8 113.76,187 4.93,77.4 -28.46,152.3 -89.33,200.4 l -23.29,18.5 -63.92,50.5 c -41.65,32.9 -93.81,51.1 -146.87,51.1 -63.83,0 -123.51,-25.1 -168.03,-70.6 -20.98,-21.4 -41.53,-43.9 -61.42,-67.2 -58.71,41.4 -127.36,75.6 -204.69,101.8 -144.29,49 -303.85,71.8 -502.16,71.8 v 0 c -109.18,0 -221.38,-7 -311.53,-12.6 -73.17,-4.5 -135.39,-57.7 -151.3,-129.2 -15.9,-71.6 17.95,-146.1 82.31,-181.2 67.71,-37 115.09,-72.3 149.1,-111.2 28.64,-32.8 54.17,-75.8 81.2,-121.4 31.32,-52.9 65.8,-111 112.16,-165 -638.12,-249.3 -1034.02,-847 -986.18,-1491.1 42.95,-578.4 449.62,-1087.4 1036.03,-1296.7 74.72,-26.7 153.05,-40.2 232.83,-40.2 122.88,0 241.19,31.7 344.04,91.8 m 344.98,-47.3 c -124.82,0 -244.26,35.4 -344.89,100.7 v 0 0 c 100.64,-65.3 220.07,-100.7 344.9,-100.7 -0.01,0 -0.01,0 -0.01,0 m -689.02,1 c -74.54,0 -147.73,12.7 -217.53,37.6 -569.47,203.2 -964.34,696.7 -1005.96,1257.2 -46.63,627.8 342.66,1210.4 968.71,1449.7 17.99,6.9 36.25,12.9 54.72,18.1 -0.97,0.9 -1.94,1.8 -2.9,2.7 -67.74,62 -112.91,138.2 -152.75,205.4 -28.13,47.4 -54.71,92.2 -86.08,128.1 -37.66,43.1 -89,81.6 -161.57,121.2 -46.93,25.6 -71.27,79.2 -59.67,131.4 11.6,52.2 56.33,90.4 109.7,93.7 89.55,5.6 200.98,12.5 308.71,12.5 v 0 c -107.73,0 -219.16,-6.9 -308.7,-12.5 -53.37,-3.3 -98.11,-41.5 -109.71,-93.7 -11.59,-52.2 12.74,-105.8 59.68,-131.4 72.56,-39.6 123.9,-78.1 161.57,-121.2 31.37,-35.9 57.94,-80.7 86.08,-128.1 39.84,-67.2 85.01,-143.4 152.75,-205.4 0.96,-0.9 1.93,-1.8 2.9,-2.7 -18.47,-5.2 -36.73,-11.2 -54.73,-18.1 -626.04,-239.3 -1015.34,-821.9 -968.71,-1449.7 41.63,-560.5 436.49,-1054 1005.96,-1257.2 69.81,-24.9 143,-37.6 217.54,-37.6 -0.01,0 -0.01,0 -0.01,0 m 689.03,119 c -32.97,0 -65.78,3.1 -97.93,9.3 32.15,-6.2 64.96,-9.3 97.93,-9.3 26.86,0 53.8,2.1 80.57,6.3 -26.77,-4.2 -53.71,-6.3 -80.57,-6.3 m -1796.35,1278.4 c -0.12,556.8 369.63,1034 895.38,1235 14.44,5.5 29.05,10.4 43.78,14.5 -14.74,-4.1 -29.33,-9 -43.78,-14.5 -525.75,-201 -895.5,-678.2 -895.38,-1235 m 2903.29,0.3 c 0,0 0,0 0,0 0,0.6 0,1.3 0,2 v 0 c 0,-0.7 0,-1.3 0,-2 v 0 m 0,2.1 c 0,0 0,0 0,0 -0.51,301.8 -109.64,580.1 -293.33,803.6 183.69,-223.5 292.82,-501.9 293.33,-803.6 m -1328.14,1197.8 c 0.92,4.7 1.87,9.4 2.89,14.2 -1.01,-4.7 -1.96,-9.5 -2.87,-14.2 -0.01,0 -0.01,0 -0.02,0 m -329.03,157.3 v 0 c 80.33,1.3 159.68,29.6 223.49,78.4 -1.7,-4.8 -3.37,-9.6 -5,-14.4 1.63,4.8 3.3,9.6 5,14.4 -63.81,-48.8 -143.16,-77.1 -223.49,-78.4 v 0 m 520.4,21.8 v 0 c 22.02,2.1 44.17,3.2 66.35,3.2 v 0 c -22.18,0 -44.34,-1.1 -66.35,-3.2 m -128.75,12.9 c 23.28,48.4 53.21,97.2 91.52,144.3 -38.33,-47.1 -68.2,-95.9 -91.42,-144.3 -0.03,0 -0.07,0 -0.1,0 m -174.87,24.2 c 0.02,0.1 0.05,0.1 0.07,0.2 -0.03,-0.1 -0.05,-0.1 -0.07,-0.2 m 0.35,1.1 c 0.04,0.1 0.08,0.2 0.12,0.3 -0.04,-0.1 -0.08,-0.2 -0.12,-0.3 m 0.33,0.9 c 0.06,0.2 0.12,0.4 0.19,0.6 -0.07,-0.2 -0.13,-0.4 -0.19,-0.6 m 0.35,1.1 c 0.08,0.2 0.16,0.4 0.24,0.7 -0.08,-0.3 -0.16,-0.5 -0.24,-0.7 m 0.33,0.9 c 0.1,0.3 0.2,0.6 0.3,0.9 -0.1,-0.3 -0.2,-0.6 -0.3,-0.9 m 265.04,116.1 c 0.35,0.4 0.7,0.8 1.06,1.3 -0.36,-0.5 -0.71,-0.9 -1.06,-1.3 m 1.11,1.3 c 0.35,0.5 0.68,0.8 1.04,1.3 -0.35,-0.4 -0.69,-0.9 -1.04,-1.3 m 1.07,1.3 c 0.36,0.5 0.71,0.9 1.07,1.3 62.14,75.3 130.76,127.7 190.78,163.8 22.47,13.5 34,36.7 34.06,60.1 -0.06,-23.4 -11.59,-46.6 -34.06,-60.1 -60.02,-36.1 -128.64,-88.5 -190.78,-163.8 -0.36,-0.4 -0.71,-0.8 -1.07,-1.3 m -154.64,330.4 v 0 c 27.54,34.5 56.48,67.2 86.64,98 35.9,36.7 84.03,56.9 135.52,56.9 v 0 c -51.49,0 -99.61,-20.2 -135.51,-56.9 -30.17,-30.8 -59.1,-63.5 -86.65,-98 m 172.41,14.1 c 10.9,11.1 24.71,17.8 39.15,20 -14.44,-2.2 -28.25,-8.9 -39.15,-20 m 94.01,5.4 c -9.42,7.4 -20.22,12.1 -31.36,14.2 11.14,-2.1 21.94,-6.8 31.36,-14.2 m -757.73,38.7 c -73.48,9.1 -148,12.5 -222.83,12.5 -100.46,0 -201.44,-6.1 -301.26,-12.3 99.82,6.2 200.8,12.3 301.26,12.3 74.82,0 149.34,-3.4 222.83,-12.5"
         id="path3439" />
    </clipPath>
    <clipPath
       clipPathUnits="userSpaceOnUse"
       id="clipPath3447">
      <path
         d="m 2450.4,12665.6 h 357.602 v 355.199 H 2450.4 Z"
         id="path3445" />
    </clipPath>
    <clipPath
       clipPathUnits="userSpaceOnUse"
       id="clipPath3549">
      <path
         d="m 3641.28,13156.7 c -0.08,0.1 -0.16,0.1 -0.24,0.2 9.14,74.1 25.96,158.8 56.18,248.8 0.02,0.1 0.04,0.1 0.07,0.2 0.09,0.3 0.19,0.6 0.28,0.9 0.04,0.1 0.08,0.2 0.12,0.3 0.07,0.2 0.14,0.4 0.21,0.6 0.06,0.2 0.12,0.4 0.19,0.6 0.05,0.1 0.11,0.3 0.16,0.5 0.08,0.2 0.16,0.4 0.24,0.7 0.03,0.1 0.06,0.2 0.09,0.2 0.1,0.3 0.2,0.6 0.3,0.9 0.02,0.1 0.03,0.1 0.05,0.2 1.63,4.8 3.3,9.6 5,14.4 -63.81,-48.8 -143.16,-77.1 -223.49,-78.4 v 0 c -1.95,-0.1 -3.88,-0.1 -5.83,-0.1 -93.24,0 -186.1,36 -254.89,99 v 0 c -97.91,89.6 -142.15,224.1 -229.52,324 -53.83,61.6 -122.64,108.4 -194.44,147.5 v 0 c 99.82,6.2 200.8,12.3 301.26,12.3 74.83,0 149.35,-3.4 222.83,-12.5 76.78,-9.6 152.44,-25.5 226.13,-50.5 109.8,-37.3 217.76,-100.8 275.88,-199.4 52.79,83.7 109.47,152.4 161.71,205.8 v 0 c 10.9,11.1 24.71,17.8 39.15,20 3.5,0.5 7.04,0.8 10.59,0.8 4.32,0 8.64,-0.4 12.91,-1.2 11.14,-2.1 21.94,-6.8 31.36,-14.2 v 0 c 29.05,-23 58.11,-46 87.17,-69 18.15,-14.3 27.02,-35.1 26.96,-55.7 -0.06,-23.4 -11.59,-46.6 -34.06,-60.1 -60.02,-36.1 -128.64,-88.5 -190.78,-163.8 -0.36,-0.4 -0.71,-0.8 -1.07,-1.3 -0.01,0 -0.02,0 -0.03,0 -0.36,-0.5 -0.69,-0.8 -1.04,-1.3 -0.02,0 -0.04,0 -0.05,0 -0.36,-0.5 -0.71,-0.9 -1.06,-1.3 h -0.01 c -38.31,-47.1 -68.24,-95.9 -91.52,-144.3 -62.76,-26.4 -129.3,-45.6 -198.52,-56.7 -15.67,-59.9 -25.85,-116.6 -32.29,-168.1 m -307.44,700.8 c -39.9,0 -72.25,-28.9 -72.25,-64.6 0,-35.6 32.35,-64.5 72.25,-64.5 39.91,0 72.26,28.9 72.26,64.5 0,35.7 -32.35,64.6 -72.26,64.6"
         id="path3547" />
    </clipPath>
    <linearGradient
       x1="0"
       y1="0"
       x2="1"
       y2="0"
       gradientUnits="userSpaceOnUse"
       gradientTransform="matrix(0,988.161,988.161,0,3493.73,12941.3)"
       spreadMethod="pad"
       id="linearGradient3561">
      <stop
         style="stop-opacity:1;stop-color:#3d6b00"
         offset="0"
         id="stop3551" />
      <stop
         style="stop-opacity:1;stop-color:#3d6b00"
         offset="0.14005471"
         id="stop3553" />
      <stop
         style="stop-opacity:1;stop-color:#a6ff31"
         offset="0.5"
         id="stop3555" />
      <stop
         style="stop-opacity:1;stop-color:#549300"
         offset="0.9276977"
         id="stop3557" />
      <stop
         style="stop-opacity:1;stop-color:#549300"
         offset="1"
         id="stop3559" />
    </linearGradient>
    <clipPath
       clipPathUnits="userSpaceOnUse"
       id="clipPath3571">
      <path
         d="m 3809.19,13189.3 c 11.56,60.1 31,125.8 62.9,192.2 0.03,0 0.07,0 0.1,0 -29.3,-61.1 -48.03,-121.7 -59.83,-177.8 -1.02,-4.8 -1.97,-9.5 -2.89,-14.2 -0.09,-0.1 -0.19,-0.1 -0.28,-0.2"
         id="path3569" />
    </clipPath>
    <clipPath
       clipPathUnits="userSpaceOnUse"
       id="clipPath3583">
      <path
         d="m 3696.99,13110.7 -6.66,6.1 c -15.56,14.3 -31.96,27.7 -49.05,39.9 6.44,51.5 16.62,108.2 32.29,168.1 69.22,11.1 135.76,30.3 198.52,56.7 -31.9,-66.4 -51.34,-132.1 -62.9,-192.2 -40.46,-21.1 -78.27,-47.4 -112.2,-78.6"
         id="path3581" />
    </clipPath>
    <linearGradient
       x1="0"
       y1="0"
       x2="1"
       y2="0"
       gradientUnits="userSpaceOnUse"
       gradientTransform="matrix(0,988.161,988.161,0,3493.73,12941.3)"
       spreadMethod="pad"
       id="linearGradient3595">
      <stop
         style="stop-opacity:1;stop-color:#315600"
         offset="0"
         id="stop3585" />
      <stop
         style="stop-opacity:1;stop-color:#315600"
         offset="0.14005471"
         id="stop3587" />
      <stop
         style="stop-opacity:1;stop-color:#85cc27"
         offset="0.5"
         id="stop3589" />
      <stop
         style="stop-opacity:1;stop-color:#437600"
         offset="0.9276977"
         id="stop3591" />
      <stop
         style="stop-opacity:1;stop-color:#437600"
         offset="1"
         id="stop3593" />
    </linearGradient>
    <clipPath
       clipPathUnits="userSpaceOnUse"
       id="clipPath3605">
      <path
         d="m 4030.67,10710.9 c -32.97,0 -65.78,3.1 -97.93,9.3 -32.22,6.1 -63.76,15.2 -94.12,27.3 60.64,-24.1 126.06,-36.6 192.05,-36.6 47.21,0 94.68,6.4 140.97,19.6 -19.95,-5.7 -40.12,-10.1 -60.4,-13.3 -26.77,-4.2 -53.71,-6.3 -80.57,-6.3 m 167.73,28 c 0.48,0.2 0.96,0.3 1.44,0.5 -0.48,-0.2 -0.96,-0.3 -1.44,-0.5 m -512.41,749.1 c -592.67,0 -1115.35,299.4 -1425.29,755.1 -22.89,-109.6 -31.47,-224 -23.32,-341.4 -2.04,29.4 -3.05,58.6 -3.06,87.6 -0.12,556.8 369.63,1034 895.38,1235 14.45,5.5 29.04,10.4 43.78,14.5 48.02,13.7 97.35,20.3 146.45,20.3 0.03,0 0.05,0 0.08,0 114.77,0 228.31,-36.1 320.99,-102.5 0.02,0.1 0.03,0.2 0.04,0.3 0.08,-0.1 0.16,-0.1 0.24,-0.2 17.09,-12.2 33.49,-25.6 49.05,-39.9 l 6.66,-6.1 c 33.93,31.2 71.74,57.5 112.2,78.6 0.09,0.1 0.19,0.1 0.28,0.2 0.01,0 0.01,0 0.02,0 -0.03,-0.1 -0.06,-0.3 -0.08,-0.4 78.96,41.2 167.94,62.7 257.79,62.7 70.72,0 141.97,-13.4 209.27,-41 225.46,-92.5 420.58,-236.4 567.81,-415.5 183.69,-223.5 292.82,-501.8 293.33,-803.6 -0.16,85.7 -10,169.3 -26.92,250.6 C 4800.68,11787 4278.31,11488 3685.99,11488 m 823.76,1396.6 c -39.91,0 -72.26,-28.9 -72.26,-64.6 0,-35.6 32.35,-64.5 72.26,-64.5 39.9,0 72.24,28.9 72.24,64.5 0,35.7 -32.34,64.6 -72.24,64.6 m -356.28,232.2 c -111.73,0 -202.31,-80.9 -202.31,-180.6 0,-99.8 90.58,-180.7 202.31,-180.7 111.73,0 202.31,80.9 202.31,180.7 0,99.7 -90.58,180.6 -202.31,180.6 M 2237.7,11897.2 c -0.01,0.2 -0.02,0.4 -0.04,0.5 0.02,-0.1 0.03,-0.3 0.04,-0.5 m -0.11,1.6 c -0.02,0.2 -0.03,0.4 -0.05,0.6 0.02,-0.2 0.03,-0.4 0.05,-0.6 m -0.11,1.5 c -0.02,0.3 -0.04,0.5 -0.06,0.8 0.02,-0.3 0.04,-0.5 0.06,-0.8 m 2900.13,89.3 c 0,0.7 0,1.3 0,2 0,-0.7 0,-1.4 0,-2"
         id="path3603" />
    </clipPath>
    <linearGradient
       x1="0"
       y1="0"
       x2="1"
       y2="0"
       gradientUnits="userSpaceOnUse"
       gradientTransform="matrix(0,2548.24,2548.24,0,3685.96,10710.9)"
       spreadMethod="pad"
       id="linearGradient3617">
      <stop
         style="stop-opacity:1;stop-color:#6b0000"
         offset="0"
         id="stop3607" />
      <stop
         style="stop-opacity:1;stop-color:#6b0000"
         offset="0.14005471"
         id="stop3609" />
      <stop
         style="stop-opacity:1;stop-color:#ff3131"
         offset="0.5"
         id="stop3611" />
      <stop
         style="stop-opacity:1;stop-color:#930000"
         offset="0.9276977"
         id="stop3613" />
      <stop
         style="stop-opacity:1;stop-color:#930000"
         offset="1"
         id="stop3615" />
    </linearGradient>
    <clipPath
       clipPathUnits="userSpaceOnUse"
       id="clipPath3627">
      <path
         d="m 4030.67,10590.9 c -124.83,0 -244.26,35.4 -344.9,100.7 v 0 c -100.39,-64.8 -219.46,-99.7 -344.13,-99.7 -74.53,0 -147.72,12.7 -217.53,37.6 -569.47,203.2 -964.33,696.7 -1005.96,1257.2 -46.63,627.8 342.67,1210.4 968.71,1449.7 18,6.9 36.26,12.9 54.73,18.1 -0.97,0.9 -1.94,1.8 -2.9,2.7 -67.74,62 -112.91,138.2 -152.75,205.4 -28.14,47.4 -54.71,92.2 -86.08,128.1 -37.67,43.1 -89.01,81.6 -161.57,121.2 -46.94,25.6 -71.27,79.2 -59.68,131.4 11.6,52.2 56.34,90.4 109.71,93.7 89.54,5.6 200.97,12.5 308.7,12.5 193.18,0 348.09,-22.1 487.53,-69.4 88.89,-30.2 165.19,-71.2 226.61,-121.3 v 0 0 c 27.55,34.5 56.48,67.2 86.65,98 35.9,36.7 84.02,56.9 135.51,56.9 42.86,0 85.02,-14.7 118.65,-41.3 l 63.91,-50.5 23.29,-18.4 c 49.16,-38.9 76.13,-99.4 72.15,-161.9 -3.97,-62.3 -38.28,-118.7 -91.8,-150.9 -61.64,-37.1 -115.51,-83.3 -160.12,-137.4 -21.94,-26.5 -41.48,-54.8 -58.56,-84.7 v 0 0 c 22.01,2.1 44.17,3.2 66.35,3.2 88.33,0 174.07,-16.8 254.84,-49.9 568.34,-233.3 935.57,-756.3 935.57,-1332.3 0,-603.3 -409.21,-1151.2 -1018.27,-1363.5 -66.93,-23.4 -137.14,-35.2 -208.67,-35.2 m -97.92,129.3 c 32.15,-6.2 64.96,-9.3 97.93,-9.3 26.86,0 53.8,2.1 80.57,6.3 20.28,3.2 40.45,7.6 60.4,13.3 8.97,2.5 17.9,5.3 26.76,8.4 0.48,0.2 0.96,0.3 1.44,0.5 v 0 c 548.07,191 937.77,678.6 937.77,1250.2 v 0 0 c 0,0.7 0,1.3 0,2 0,0 0,0 0,0.1 -0.51,301.7 -109.64,580.1 -293.33,803.6 -147.23,179.1 -342.35,323 -567.81,415.5 -67.3,27.6 -138.55,41 -209.27,41 -89.85,0 -178.83,-21.5 -257.79,-62.7 0.02,0.1 0.05,0.3 0.08,0.4 0.91,4.7 1.86,9.5 2.87,14.2 11.8,56.1 30.53,116.7 59.83,177.8 23.22,48.4 53.09,97.2 91.42,144.3 h 0.01 c 0.35,0.4 0.7,0.8 1.06,1.3 0.01,0 0.03,0 0.05,0 0.35,0.4 0.69,0.9 1.04,1.3 0.01,0 0.02,0 0.03,0 0.36,0.5 0.71,0.9 1.07,1.3 62.14,75.3 130.76,127.7 190.78,163.8 22.47,13.5 34,36.7 34.06,60.1 0.06,20.6 -8.81,41.4 -26.96,55.7 -29.06,23 -58.12,46 -87.17,69 v 0 c -9.42,7.4 -20.22,12.1 -31.36,14.2 -4.27,0.8 -8.59,1.2 -12.91,1.2 -3.55,0 -7.09,-0.3 -10.59,-0.8 -14.44,-2.2 -28.25,-8.9 -39.15,-20 v 0 c -52.24,-53.4 -108.92,-122.1 -161.71,-205.8 -58.12,98.6 -166.08,162.1 -275.88,199.4 -73.69,25 -149.35,40.9 -226.13,50.5 -73.49,9.1 -148.01,12.5 -222.83,12.5 -100.46,0 -201.44,-6.1 -301.26,-12.3 v 0 0 c 71.8,-39.1 140.61,-85.9 194.44,-147.5 87.37,-99.9 131.61,-234.4 229.52,-324 v 0 c 68.79,-63 161.65,-99 254.89,-99 1.95,0 3.88,0 5.83,0.1 v 0 c 80.33,1.3 159.68,29.6 223.49,78.4 -1.7,-4.8 -3.37,-9.6 -5,-14.4 -0.02,-0.1 -0.03,-0.1 -0.05,-0.2 -0.1,-0.3 -0.2,-0.6 -0.3,-0.9 -0.03,0 -0.06,-0.1 -0.09,-0.2 -0.08,-0.3 -0.16,-0.5 -0.24,-0.7 -0.05,-0.2 -0.11,-0.4 -0.16,-0.5 -0.07,-0.2 -0.13,-0.4 -0.19,-0.6 -0.07,-0.2 -0.14,-0.4 -0.21,-0.6 -0.04,-0.1 -0.08,-0.2 -0.12,-0.3 -0.09,-0.3 -0.19,-0.6 -0.28,-0.9 -0.02,-0.1 -0.05,-0.1 -0.07,-0.2 -30.22,-90 -47.04,-174.7 -56.18,-248.8 -0.01,-0.1 -0.02,-0.2 -0.04,-0.3 -92.68,66.4 -206.22,102.5 -320.99,102.5 -0.03,0 -0.05,0 -0.08,0 -49.1,0 -98.43,-6.6 -146.45,-20.3 -14.73,-4.1 -29.34,-9 -43.78,-14.5 -525.75,-201 -895.5,-678.2 -895.38,-1235 0.01,-29 1.02,-58.2 3.06,-87.6 0.02,-0.2 0.03,-0.4 0.04,-0.6 0.02,-0.3 0.04,-0.5 0.06,-0.8 0.02,-0.3 0.04,-0.6 0.06,-0.9 0.02,-0.2 0.03,-0.4 0.05,-0.6 0.02,-0.4 0.05,-0.7 0.07,-1.1 0.02,-0.1 0.03,-0.3 0.04,-0.5 0.04,-0.5 0.08,-1.1 0.12,-1.6 38.99,-524.9 414.01,-970.2 926.62,-1153.1 57.59,-20.6 117.66,-30.6 177.2,-30.6 126.84,0 251.29,45.4 344.32,131.1 l 0.36,-0.3 c 44.55,-41.1 96.41,-73 152.3,-95.2 30.36,-12.1 61.9,-21.2 94.12,-27.3"
         id="path3625" />
    </clipPath>
    <linearGradient
       x1="0"
       y1="0"
       x2="1"
       y2="0"
       gradientUnits="userSpaceOnUse"
       gradientTransform="matrix(0,3458.59,3458.59,0,3685.99,10590.9)"
       spreadMethod="pad"
       id="linearGradient3639">
      <stop
         style="stop-opacity:1;stop-color:#be6d00"
         offset="0"
         id="stop3629" />
      <stop
         style="stop-opacity:1;stop-color:#fff57f"
         offset="0.25008721"
         id="stop3631" />
      <stop
         style="stop-opacity:1;stop-color:#fff57f"
         offset="0.433036"
         id="stop3633" />
      <stop
         style="stop-opacity:1;stop-color:#be6d00"
         offset="0.78897242"
         id="stop3635" />
      <stop
         style="stop-opacity:1;stop-color:#be6d00"
         offset="1"
         id="stop3637" />
    </linearGradient>
    <clipPath
       clipPathUnits="userSpaceOnUse"
       id="clipPath3651">
      <path
         d="m 5137.61,11989.6 v 0 c 0,0 0,0 0,0 v 0 m 0,2 c 0,0 0,0 0,0.1 0,0 0,0 0,0 0,-0.1 0,-0.1 0,-0.1 v 0"
         id="path3649" />
    </clipPath>
    <clipPath
       clipPathUnits="userSpaceOnUse"
       id="clipPath3663">
      <path
         d="m 4030.67,10710.9 c -65.99,0 -131.41,12.5 -192.05,36.6 -55.89,22.2 -107.75,54.1 -152.3,95.2 l -0.36,0.3 v 0 c -93.03,-85.7 -217.48,-131.1 -344.31,-131.1 -59.54,0 -119.63,10 -177.21,30.6 v 0 c -0.5,0.2 -1,0.3 -1.5,0.5 -511.84,183.3 -886.17,628.2 -925.12,1152.6 -0.04,0.5 -0.08,1 -0.12,1.6 -0.01,0.2 -0.02,0.4 -0.04,0.5 -0.02,0.4 -0.05,0.7 -0.07,1.1 -0.02,0.2 -0.03,0.4 -0.05,0.6 -0.02,0.3 -0.04,0.6 -0.06,0.9 -0.02,0.3 -0.04,0.5 -0.06,0.8 -0.01,0.2 -0.02,0.4 -0.04,0.6 -8.15,117.4 0.43,231.8 23.32,341.4 309.94,-455.7 832.62,-755.1 1425.29,-755.1 592.32,0 1114.69,299 1424.7,754.3 16.92,-81.3 26.76,-164.9 26.92,-250.6 0,-0.1 0,-0.1 0,-0.1 0,-0.7 0,-1.3 0,-2 0,0 0,0 0,0 0,-571.6 -389.7,-1059.2 -937.77,-1250.2 v 0 c -0.48,-0.2 -0.96,-0.3 -1.44,-0.5 -8.87,-3.1 -17.79,-5.9 -26.76,-8.4 -46.29,-13.2 -93.76,-19.6 -140.97,-19.6"
         id="path3661" />
    </clipPath>
    <linearGradient
       x1="0"
       y1="0"
       x2="1"
       y2="0"
       gradientUnits="userSpaceOnUse"
       gradientTransform="matrix(0,2548.24,2548.24,0,3685.96,10710.9)"
       spreadMethod="pad"
       id="linearGradient3675">
      <stop
         style="stop-opacity:1;stop-color:#5e000c"
         offset="0"
         id="stop3665" />
      <stop
         style="stop-opacity:1;stop-color:#5e000c"
         offset="0.14005471"
         id="stop3667" />
      <stop
         style="stop-opacity:1;stop-color:#d52733"
         offset="0.5"
         id="stop3669" />
      <stop
         style="stop-opacity:1;stop-color:#7e000c"
         offset="0.9276977"
         id="stop3671" />
      <stop
         style="stop-opacity:1;stop-color:#7e000c"
         offset="1"
         id="stop3673" />
    </linearGradient>
    <clipPath
       clipPathUnits="userSpaceOnUse"
       id="clipPath3685">
      <path
         d="m 3341.64,10711.9 c -59.54,0 -119.61,10 -177.2,30.6 -512.61,182.9 -887.63,628.2 -926.62,1153.1 -0.04,0.5 -0.08,1.1 -0.12,1.6 0.04,-0.6 0.08,-1.1 0.12,-1.6 38.95,-524.4 413.28,-969.3 925.12,-1152.6 0.5,-0.2 1,-0.3 1.5,-0.5 v 0 c 57.58,-20.6 117.67,-30.6 177.21,-30.6 126.83,0 251.28,45.4 344.31,131.1 v 0 l 0.36,-0.3 c 44.55,-41.1 96.41,-73 152.3,-95.2 -55.89,22.2 -107.75,54.1 -152.3,95.2 l -0.36,0.3 c -93.03,-85.7 -217.48,-131.1 -344.32,-131.1 m 830,18.6 c 8.97,2.5 17.89,5.3 26.76,8.4 -8.86,-3.1 -17.79,-5.9 -26.76,-8.4 m 28.2,8.9 v 0 c 548.07,191 937.77,678.6 937.77,1250.2 v 0 0 c 0,-571.6 -389.7,-1059.2 -937.77,-1250.2 v 0 m -1962.18,1158.3 c -0.02,0.4 -0.05,0.7 -0.07,1.1 0.02,-0.4 0.05,-0.7 0.07,-1.1 m -0.12,1.7 c -0.02,0.3 -0.04,0.6 -0.06,0.9 0.02,-0.3 0.04,-0.6 0.06,-0.9 m -0.12,1.7 c -0.01,0.2 -0.02,0.4 -0.04,0.6 0.02,-0.2 0.03,-0.4 0.04,-0.6 m 2900.19,90.5 c 0,0 0,0 0,0.1 0,-0.1 0,-0.1 0,-0.1"
         id="path3683" />
    </clipPath>
    <linearGradient
       x1="0"
       y1="0"
       x2="1"
       y2="0"
       gradientUnits="userSpaceOnUse"
       gradientTransform="matrix(0,3458.59,3458.59,0,3685.99,10590.9)"
       spreadMethod="pad"
       id="linearGradient3697">
      <stop
         style="stop-opacity:1;stop-color:#a1570c"
         offset="0"
         id="stop3687" />
      <stop
         style="stop-opacity:1;stop-color:#d5c471"
         offset="0.25008721"
         id="stop3689" />
      <stop
         style="stop-opacity:1;stop-color:#d5c471"
         offset="0.433036"
         id="stop3691" />
      <stop
         style="stop-opacity:1;stop-color:#a1570c"
         offset="0.78897242"
         id="stop3693" />
      <stop
         style="stop-opacity:1;stop-color:#a1570c"
         offset="1"
         id="stop3695" />
    </linearGradient>
    <clipPath
       clipPathUnits="userSpaceOnUse"
       id="clipPath3707">
      <path
         d="m 4153.47,12755.5 c -111.73,0 -202.31,80.9 -202.31,180.7 0,99.7 90.58,180.6 202.31,180.6 111.73,0 202.31,-80.9 202.31,-180.6 0,-99.8 -90.58,-180.7 -202.31,-180.7"
         id="path3705" />
    </clipPath>
    <linearGradient
       x1="0"
       y1="0"
       x2="1"
       y2="0"
       gradientUnits="userSpaceOnUse"
       gradientTransform="matrix(0,2548.24,2548.24,0,3685.96,10710.9)"
       spreadMethod="pad"
       id="linearGradient3719">
      <stop
         style="stop-opacity:1;stop-color:#944949"
         offset="0"
         id="stop3709" />
      <stop
         style="stop-opacity:1;stop-color:#944949"
         offset="0.14005471"
         id="stop3711" />
      <stop
         style="stop-opacity:1;stop-color:#fb6b6b"
         offset="0.5"
         id="stop3713" />
      <stop
         style="stop-opacity:1;stop-color:#b04949"
         offset="0.9276977"
         id="stop3715" />
      <stop
         style="stop-opacity:1;stop-color:#b04949"
         offset="1"
         id="stop3717" />
    </linearGradient>
    <clipPath
       clipPathUnits="userSpaceOnUse"
       id="clipPath3729">
      <path
         d="m 4509.75,12755.5 c -39.91,0 -72.26,28.9 -72.26,64.5 0,35.7 32.35,64.6 72.26,64.6 39.9,0 72.24,-28.9 72.24,-64.6 0,-35.6 -32.34,-64.5 -72.24,-64.5"
         id="path3727" />
    </clipPath>
    <clipPath
       clipPathUnits="userSpaceOnUse"
       id="clipPath3751">
      <path
         d="m 3333.84,13728.4 c -39.9,0 -72.25,28.9 -72.25,64.5 0,35.7 32.35,64.6 72.25,64.6 39.91,0 72.26,-28.9 72.26,-64.6 0,-35.6 -32.35,-64.5 -72.26,-64.5"
         id="path3749" />
    </clipPath>
    <linearGradient
       x1="0"
       y1="0"
       x2="1"
       y2="0"
       gradientUnits="userSpaceOnUse"
       gradientTransform="matrix(0,988.161,988.161,0,3493.73,12941.3)"
       spreadMethod="pad"
       id="linearGradient3763">
      <stop
         style="stop-opacity:1;stop-color:#749449"
         offset="0"
         id="stop3753" />
      <stop
         style="stop-opacity:1;stop-color:#749449"
         offset="0.14005471"
         id="stop3755" />
      <stop
         style="stop-opacity:1;stop-color:#bdfb6b"
         offset="0.5"
         id="stop3757" />
      <stop
         style="stop-opacity:1;stop-color:#84b049"
         offset="0.9276977"
         id="stop3759" />
      <stop
         style="stop-opacity:1;stop-color:#84b049"
         offset="1"
         id="stop3761" />
    </linearGradient>
    <clipPath
       clipPathUnits="userSpaceOnUse"
       id="clipPath1543">
      <path
         d="M 12151.2,5655.2 H 7848 V 9704 h 4303.2 V 5655.2 m -2150.1,938.6 c 146.9,-252.9 414.5,-430.2 722,-446.6 16.2,-0.8 32.4,-1.3 48.5,-1.3 75.4,0 148.6,9.4 218.5,27.1 386.1,97.3 671.8,446.9 671.8,863.2 v 0 0 c 0,258.1 -109.9,490.1 -285.5,652.4 -81.2,75.1 -184.3,111.5 -287.8,111.5 -64.1,0 -128.4,-13.9 -187.8,-41.4 -37.5,100.7 -84.5,194.6 -130.3,279.7 -135.9,252.1 -295.7,492.3 -475.6,715.3 133.4,90 273.1,161 416.2,209.6 67.2,22.9 103.2,95.9 80.4,163.1 -18.2,53.5 -68.1,87.2 -121.7,87.2 -13.7,0 -27.7,-2.2 -41.4,-6.8 -341.1,-115.8 -664.31,-338 -934.58,-642.5 -203.66,-229.4 -379.69,-504.5 -536.11,-838.2 -74.22,48.9 -160.38,74 -246.22,74 -103.72,0 -206.97,-36.6 -288.26,-111.8 -172.19,-159.4 -281.18,-385.9 -285.04,-638.2 -0.1,-5.9 -0.13,-11.8 -0.11,-17.8 0.37,-85.4 13.22,-168.4 36.84,-247.2 105.31,-351.1 424.56,-617.7 804.92,-637.9 16.27,-0.8 32.47,-1.3 48.56,-1.3 71.56,0 141.13,8.5 207.8,24.4 241.45,57.7 444.62,213.8 564.9,423.5 m -1.1,886.3 c -44.94,77.7 -101.31,148 -166.81,208.5 -81.18,75.1 -184.29,111.5 -287.84,111.5 -22.12,0 -44.24,-1.6 -66.2,-4.9 122.53,232 256.9,429.4 406.93,598.4 65.22,73.4 133.92,140.9 205.02,203.1 171.5,-212 323.7,-440.4 453,-680.3 25.1,-46.6 50.6,-95.9 74,-147.3 -52.4,20.5 -108,31 -163.4,31 -103.7,0 -207,-36.6 -288.2,-111.8 -65.4,-60.5 -121.6,-130.7 -166.5,-208.2"
         id="path1541" />
    </clipPath>
    <clipPath
       clipPathUnits="userSpaceOnUse"
       id="clipPath1549">
      <path
         d="m 8560.8,7340 h 364.801 v 340.801 H 8560.8 Z"
         id="path1547" />
    </clipPath>
    <clipPath
       clipPathUnits="userSpaceOnUse"
       id="clipPath1561">
      <path
         d="M 12151.2,5655.2 H 7848 V 9704 h 4303.2 V 5655.2 m -2150.1,938.6 c 146.9,-252.9 414.5,-430.2 722,-446.6 16.2,-0.8 32.4,-1.3 48.5,-1.3 75.4,0 148.6,9.4 218.5,27.1 386.1,97.3 671.8,446.9 671.8,863.2 v 0 0 c 0,258.1 -109.9,490.1 -285.5,652.4 -81.2,75.1 -184.3,111.5 -287.8,111.5 -64.1,0 -128.4,-13.9 -187.8,-41.4 -37.5,100.7 -84.5,194.6 -130.3,279.7 -135.9,252.1 -295.7,492.3 -475.6,715.3 133.4,90 273.1,161 416.2,209.6 67.2,22.9 103.2,95.9 80.4,163.1 -18.2,53.5 -68.1,87.2 -121.7,87.2 -13.7,0 -27.7,-2.2 -41.4,-6.8 -341.1,-115.8 -664.31,-338 -934.58,-642.5 -203.66,-229.4 -379.69,-504.5 -536.11,-838.2 -74.22,48.9 -160.38,74 -246.22,74 -103.72,0 -206.97,-36.6 -288.26,-111.8 -172.19,-159.4 -281.18,-385.9 -285.04,-638.2 -0.1,-5.9 -0.13,-11.8 -0.11,-17.8 0.37,-85.4 13.22,-168.4 36.84,-247.2 105.31,-351.1 424.56,-617.7 804.92,-637.9 16.27,-0.8 32.47,-1.3 48.56,-1.3 71.56,0 141.13,8.5 207.8,24.4 241.45,57.7 444.62,213.8 564.9,423.5 m -1.1,886.3 c -44.94,77.7 -101.31,148 -166.81,208.5 -81.18,75.1 -184.29,111.5 -287.84,111.5 -22.12,0 -44.24,-1.6 -66.2,-4.9 122.53,232 256.9,429.4 406.93,598.4 65.22,73.4 133.92,140.9 205.02,203.1 171.5,-212 323.7,-440.4 453,-680.3 25.1,-46.6 50.6,-95.9 74,-147.3 -52.4,20.5 -108,31 -163.4,31 -103.7,0 -207,-36.6 -288.2,-111.8 -65.4,-60.5 -121.6,-130.7 -166.5,-208.2"
         id="path1559" />
    </clipPath>
    <clipPath
       clipPathUnits="userSpaceOnUse"
       id="clipPath1567">
      <path
         d="m 9638.4,7340 h 722.398 v 340.801 H 9638.4 Z"
         id="path1565" />
    </clipPath>
    <clipPath
       clipPathUnits="userSpaceOnUse"
       id="clipPath1705">
      <path
         d="m 10771.6,7668.5 -0.2,0.2 c -44.8,44.8 -97.2,78.4 -153.3,100.4 -23.4,51.4 -48.9,100.7 -74,147.3 -129.3,239.9 -281.5,468.3 -453,680.3 -71.1,-62.2 -139.8,-129.7 -205.02,-203.1 -150.03,-169 -284.4,-366.4 -406.93,-598.4 -91.94,-13.9 -180.59,-56.5 -250.54,-126.5 l -0.23,-0.2 -0.21,0.2 c -21.82,21.8 -45.47,41 -70.46,57.4 156.42,333.7 332.45,608.8 536.11,838.2 270.27,304.5 593.48,526.7 934.58,642.5 13.7,4.6 27.7,6.8 41.4,6.8 53.6,0 103.5,-33.7 121.7,-87.2 22.8,-67.2 -13.2,-140.2 -80.4,-163.1 -143.1,-48.6 -282.8,-119.6 -416.2,-209.6 179.9,-223 339.7,-463.2 475.6,-715.3 45.8,-85.1 92.8,-179 130.3,-279.7 -46.9,-21.7 -90.7,-51.7 -129,-90 l -0.2,-0.2"
         id="path1703" />
    </clipPath>
    <linearGradient
       x1="0"
       y1="0"
       x2="1"
       y2="0"
       gradientUnits="userSpaceOnUse"
       gradientTransform="matrix(0,1971.54,1971.54,0,10007.7,7242.1)"
       spreadMethod="pad"
       id="linearGradient1717">
      <stop
         style="stop-opacity:1;stop-color:#3d6b00"
         offset="0"
         id="stop1707" />
      <stop
         style="stop-opacity:1;stop-color:#3d6b00"
         offset="0.14005471"
         id="stop1709" />
      <stop
         style="stop-opacity:1;stop-color:#a6ff31"
         offset="0.5"
         id="stop1711" />
      <stop
         style="stop-opacity:1;stop-color:#549300"
         offset="0.9276977"
         id="stop1713" />
      <stop
         style="stop-opacity:1;stop-color:#549300"
         offset="1"
         id="stop1715" />
    </linearGradient>
    <clipPath
       clipPathUnits="userSpaceOnUse"
       id="clipPath1727">
      <path
         d="m 10771.6,6145.9 c -16.1,0 -32.3,0.5 -48.5,1.3 -307.5,16.4 -575.1,193.7 -722,446.6 v 0 c 146.9,-252.9 414.5,-430.2 722,-446.6 16.2,-0.8 32.5,-1.2 48.6,-1.2 75.3,0 148.5,9.3 218.4,27 -69.9,-17.7 -143.1,-27.1 -218.5,-27.1 m 0,387.1 c -16.1,0 -32.2,0.5 -48.5,1.3 -248.9,13.2 -471.4,132 -625,311 13.5,61.5 20.6,125.4 20.6,190.9 v 0 0 c 0,161.8 -43.2,313.3 -118.7,443.9 44.9,77.5 101.1,147.7 166.5,208.2 81.2,75.2 184.5,111.8 288.2,111.8 55.4,0 111,-10.5 163.4,-31 56.1,-22 108.5,-55.6 153.3,-100.4 l 0.2,-0.2 0.2,0.2 c 38.3,38.3 82.1,68.3 129,90 59.4,27.5 123.7,41.4 187.8,41.4 103.5,0 206.6,-36.4 287.8,-111.5 175.6,-162.3 285.5,-394.3 285.5,-652.4 v 0 c 0,66.5 -7.4,131.3 -21.3,193.6 -88.4,-398.6 -443.8,-696.8 -869,-696.8 m 626,843.2 c -39.8,0 -72.1,-32.3 -72.1,-72.1 0,-39.8 32.3,-72.1 72.1,-72.1 39.8,0 72.1,32.3 72.1,72.1 0,39.8 -32.3,72.1 -72.1,72.1 m -290.5,296.2 c -31.2,0 -58.6,-10.1 -76.9,-31.1 -44.1,-50.7 -18.4,-145.3 57.4,-211.3 44.4,-38.7 96.1,-59 140.3,-59 31.2,0 58.6,10.2 76.9,31.2 44.1,50.6 18.4,145.2 -57.4,211.3 -44.4,38.6 -96.1,58.9 -140.3,58.9"
         id="path1725" />
    </clipPath>
    <linearGradient
       x1="0"
       y1="0"
       x2="1"
       y2="0"
       gradientUnits="userSpaceOnUse"
       gradientTransform="matrix(0,1654.2,1654.2,0,10771.6,6145.9)"
       spreadMethod="pad"
       id="linearGradient1739">
      <stop
         style="stop-opacity:1;stop-color:#6b0000"
         offset="0"
         id="stop1729" />
      <stop
         style="stop-opacity:1;stop-color:#6b0000"
         offset="0.14005471"
         id="stop1731" />
      <stop
         style="stop-opacity:1;stop-color:#ff3131"
         offset="0.5"
         id="stop1733" />
      <stop
         style="stop-opacity:1;stop-color:#930000"
         offset="0.9276977"
         id="stop1735" />
      <stop
         style="stop-opacity:1;stop-color:#930000"
         offset="1"
         id="stop1737" />
    </linearGradient>
    <clipPath
       clipPathUnits="userSpaceOnUse"
       id="clipPath1749">
      <path
         d="m 10990.1,6173 c 386.1,97.4 671.8,446.9 671.8,863.2 v 0 c 0,-416.3 -285.7,-765.9 -671.8,-863.2"
         id="path1747" />
    </clipPath>
    <clipPath
       clipPathUnits="userSpaceOnUse"
       id="clipPath1761">
      <path
         d="m 10771.7,6146 c -16.1,0 -32.4,0.4 -48.6,1.2 -307.5,16.4 -575.1,193.7 -722,446.6 44.4,77.3 77.5,161.8 97,251.5 153.6,-179 376.1,-297.8 625,-311 16.3,-0.8 32.4,-1.3 48.5,-1.3 425.2,0 780.6,298.2 869,696.8 13.9,-62.3 21.3,-127.1 21.3,-193.6 0,-416.3 -285.7,-765.8 -671.8,-863.2 -69.9,-17.7 -143.1,-27 -218.4,-27"
         id="path1759" />
    </clipPath>
    <linearGradient
       x1="0"
       y1="0"
       x2="1"
       y2="0"
       gradientUnits="userSpaceOnUse"
       gradientTransform="matrix(0,1654.2,1654.2,0,10771.6,6145.9)"
       spreadMethod="pad"
       id="linearGradient1773">
      <stop
         style="stop-opacity:1;stop-color:#5e000c"
         offset="0"
         id="stop1763" />
      <stop
         style="stop-opacity:1;stop-color:#5e000c"
         offset="0.14005471"
         id="stop1765" />
      <stop
         style="stop-opacity:1;stop-color:#d52733"
         offset="0.5"
         id="stop1767" />
      <stop
         style="stop-opacity:1;stop-color:#7e000c"
         offset="0.9276977"
         id="stop1769" />
      <stop
         style="stop-opacity:1;stop-color:#7e000c"
         offset="1"
         id="stop1771" />
    </linearGradient>
    <clipPath
       clipPathUnits="userSpaceOnUse"
       id="clipPath1783">
      <path
         d="m 11227.9,7371 c -44.2,0 -95.9,20.3 -140.3,59 -75.8,66 -101.5,160.6 -57.4,211.3 18.3,21 45.7,31.1 76.9,31.1 44.2,0 95.9,-20.3 140.3,-58.9 75.8,-66.1 101.5,-160.7 57.4,-211.3 -18.3,-21 -45.7,-31.2 -76.9,-31.2"
         id="path1781" />
    </clipPath>
    <linearGradient
       x1="0"
       y1="0"
       x2="1"
       y2="0"
       gradientUnits="userSpaceOnUse"
       gradientTransform="matrix(0,1654.2,1654.2,0,10771.6,6145.9)"
       spreadMethod="pad"
       id="linearGradient1795">
      <stop
         style="stop-opacity:1;stop-color:#944949"
         offset="0"
         id="stop1785" />
      <stop
         style="stop-opacity:1;stop-color:#944949"
         offset="0.14005471"
         id="stop1787" />
      <stop
         style="stop-opacity:1;stop-color:#fb6b6b"
         offset="0.5"
         id="stop1789" />
      <stop
         style="stop-opacity:1;stop-color:#b04949"
         offset="0.9276977"
         id="stop1791" />
      <stop
         style="stop-opacity:1;stop-color:#b04949"
         offset="1"
         id="stop1793" />
    </linearGradient>
    <clipPath
       clipPathUnits="userSpaceOnUse"
       id="clipPath1805">
      <path
         d="m 11397.6,7232 c -39.8,0 -72.1,32.3 -72.1,72.1 0,39.8 32.3,72.1 72.1,72.1 39.8,0 72.1,-32.3 72.1,-72.1 0,-39.8 -32.3,-72.1 -72.1,-72.1"
         id="path1803" />
    </clipPath>
    <clipPath
       clipPathUnits="userSpaceOnUse"
       id="clipPath1827">
      <path
         d="m 9228.4,6145.9 c -16.09,0 -32.29,0.5 -48.56,1.3 -380.36,20.2 -699.61,286.8 -804.92,637.9 105.31,-351.1 424.56,-617.7 804.92,-637.9 16.27,-0.8 32.5,-1.2 48.59,-1.2 71.53,0 141.12,8.4 207.77,24.3 -66.67,-15.9 -136.24,-24.4 -207.8,-24.4 m 0,387.1 c -16.11,0 -32.26,0.5 -48.56,1.3 -401.6,21.3 -734.44,317.6 -819.9,697.7 -13.2,-58.7 -20.77,-119.5 -21.75,-181.9 3.86,252.3 112.85,478.8 285.04,638.2 81.29,75.2 184.54,111.8 288.26,111.8 85.84,0 172,-25.1 246.22,-74 24.99,-16.4 48.64,-35.6 70.46,-57.4 l 0.21,-0.2 0.23,0.2 c 69.95,70 158.6,112.6 250.54,126.5 21.96,3.3 44.08,4.9 66.2,4.9 103.55,0 206.66,-36.4 287.84,-111.5 65.5,-60.5 121.87,-130.8 166.81,-208.5 75.5,-130.6 118.7,-282.1 118.7,-443.9 v 0 c 0,66.5 -7.5,131.3 -21.3,193.6 -88.4,-398.6 -443.83,-696.8 -869,-696.8 m 625.98,843.2 c -39.81,0 -72.08,-32.3 -72.08,-72.1 0,-39.8 32.27,-72.1 72.08,-72.1 39.8,0 72.07,32.3 72.07,72.1 0,39.8 -32.27,72.1 -72.07,72.1 m -290.47,296.2 c -31.21,0 -58.62,-10.1 -76.9,-31.1 -44.13,-50.7 -18.45,-145.3 57.36,-211.3 44.4,-38.7 96.14,-59 140.26,-59 31.21,0 58.62,10.2 76.9,31.2 44.13,50.6 18.44,145.2 -57.36,211.3 -44.4,38.6 -96.14,58.9 -140.26,58.9"
         id="path1825" />
    </clipPath>
    <linearGradient
       x1="0"
       y1="0"
       x2="1"
       y2="0"
       gradientUnits="userSpaceOnUse"
       gradientTransform="matrix(0,1654.2,1654.2,0,9228.38,6145.9)"
       spreadMethod="pad"
       id="linearGradient1839">
      <stop
         style="stop-opacity:1;stop-color:#6b0000"
         offset="0"
         id="stop1829" />
      <stop
         style="stop-opacity:1;stop-color:#6b0000"
         offset="0.14005471"
         id="stop1831" />
      <stop
         style="stop-opacity:1;stop-color:#ff3131"
         offset="0.5"
         id="stop1833" />
      <stop
         style="stop-opacity:1;stop-color:#930000"
         offset="0.9276977"
         id="stop1835" />
      <stop
         style="stop-opacity:1;stop-color:#930000"
         offset="1"
         id="stop1837" />
    </linearGradient>
    <clipPath
       clipPathUnits="userSpaceOnUse"
       id="clipPath1849">
      <path
         d="m 9436.2,6170.3 c 241.41,57.8 444.63,213.8 564.9,423.5 v 0 C 9880.82,6384.1 9677.65,6228 9436.2,6170.3"
         id="path1847" />
    </clipPath>
    <clipPath
       clipPathUnits="userSpaceOnUse"
       id="clipPath1861">
      <path
         d="m 10001.1,6593.8 v 0 0 0 0 m 97,251.5 v 0 c 13.5,61.5 20.6,125.4 20.6,190.9 v 0 c 0,-65.5 -7.1,-129.4 -20.6,-190.9"
         id="path1859" />
    </clipPath>
    <clipPath
       clipPathUnits="userSpaceOnUse"
       id="clipPath1883">
      <path
         d="m 10001.1,6593.8 v 0 c 44.4,77.3 77.5,161.8 97,251.5 v 0 c -19.5,-89.7 -52.6,-174.2 -97,-251.5"
         id="path1881" />
    </clipPath>
    <linearGradient
       x1="0"
       y1="0"
       x2="1"
       y2="0"
       gradientUnits="userSpaceOnUse"
       gradientTransform="matrix(0,1654.2,1654.2,0,10771.6,6145.9)"
       spreadMethod="pad"
       id="linearGradient1895">
      <stop
         style="stop-opacity:1;stop-color:#540015"
         offset="0"
         id="stop1885" />
      <stop
         style="stop-opacity:1;stop-color:#540015"
         offset="0.14005471"
         id="stop1887" />
      <stop
         style="stop-opacity:1;stop-color:#b31f34"
         offset="0.5"
         id="stop1889" />
      <stop
         style="stop-opacity:1;stop-color:#6d0015"
         offset="0.9276977"
         id="stop1891" />
      <stop
         style="stop-opacity:1;stop-color:#6d0015"
         offset="1"
         id="stop1893" />
    </linearGradient>
    <clipPath
       clipPathUnits="userSpaceOnUse"
       id="clipPath1905">
      <path
         d="m 8374.92,6785.1 c -23.62,78.8 -36.47,161.8 -36.84,247.2 -0.02,6 0.01,11.9 0.11,17.8 -0.09,-5.9 -0.13,-11.8 -0.1,-17.8 0.36,-85.4 13.21,-168.4 36.83,-247.2"
         id="path1903" />
    </clipPath>
    <clipPath
       clipPathUnits="userSpaceOnUse"
       id="clipPath1917">
      <path
         d="m 9228.43,6146 c -16.09,0 -32.32,0.4 -48.59,1.2 -380.36,20.2 -699.61,286.8 -804.92,637.9 -23.62,78.8 -36.47,161.8 -36.83,247.2 -0.03,6 0.01,11.9 0.1,17.8 0.98,62.4 8.55,123.2 21.75,181.9 85.46,-380.1 418.3,-676.4 819.9,-697.7 16.3,-0.8 32.45,-1.3 48.56,-1.3 425.17,0 780.6,298.2 869,696.8 13.8,-62.3 21.3,-127.1 21.3,-193.6 0,-65.5 -7.1,-129.4 -20.6,-190.9 -19.5,-89.7 -52.6,-174.2 -97,-251.5 v 0 c -120.27,-209.7 -323.49,-365.7 -564.9,-423.5 -66.65,-15.9 -136.24,-24.3 -207.77,-24.3"
         id="path1915" />
    </clipPath>
    <linearGradient
       x1="0"
       y1="0"
       x2="1"
       y2="0"
       gradientUnits="userSpaceOnUse"
       gradientTransform="matrix(0,1654.2,1654.2,0,9228.38,6145.9)"
       spreadMethod="pad"
       id="linearGradient1929">
      <stop
         style="stop-opacity:1;stop-color:#5e000c"
         offset="0"
         id="stop1919" />
      <stop
         style="stop-opacity:1;stop-color:#5e000c"
         offset="0.14005471"
         id="stop1921" />
      <stop
         style="stop-opacity:1;stop-color:#d52733"
         offset="0.5"
         id="stop1923" />
      <stop
         style="stop-opacity:1;stop-color:#7e000c"
         offset="0.9276977"
         id="stop1925" />
      <stop
         style="stop-opacity:1;stop-color:#7e000c"
         offset="1"
         id="stop1927" />
    </linearGradient>
    <clipPath
       clipPathUnits="userSpaceOnUse"
       id="clipPath1939">
      <path
         d="m 9684.63,7371 c -44.12,0 -95.86,20.3 -140.26,59 -75.81,66 -101.49,160.6 -57.36,211.3 18.28,21 45.69,31.1 76.9,31.1 44.12,0 95.86,-20.3 140.26,-58.9 75.8,-66.1 101.49,-160.7 57.36,-211.3 -18.28,-21 -45.69,-31.2 -76.9,-31.2"
         id="path1937" />
    </clipPath>
    <linearGradient
       x1="0"
       y1="0"
       x2="1"
       y2="0"
       gradientUnits="userSpaceOnUse"
       gradientTransform="matrix(0,1654.2,1654.2,0,9228.38,6145.9)"
       spreadMethod="pad"
       id="linearGradient1951">
      <stop
         style="stop-opacity:1;stop-color:#944949"
         offset="0"
         id="stop1941" />
      <stop
         style="stop-opacity:1;stop-color:#944949"
         offset="0.14005471"
         id="stop1943" />
      <stop
         style="stop-opacity:1;stop-color:#fb6b6b"
         offset="0.5"
         id="stop1945" />
      <stop
         style="stop-opacity:1;stop-color:#b04949"
         offset="0.9276977"
         id="stop1947" />
      <stop
         style="stop-opacity:1;stop-color:#b04949"
         offset="1"
         id="stop1949" />
    </linearGradient>
    <clipPath
       clipPathUnits="userSpaceOnUse"
       id="clipPath1961">
      <path
         d="m 9854.38,7232 c -39.81,0 -72.08,32.3 -72.08,72.1 0,39.8 32.27,72.1 72.08,72.1 39.8,0 72.07,-32.3 72.07,-72.1 0,-39.8 -32.27,-72.1 -72.07,-72.1"
         id="path1959" />
    </clipPath>
    <clipPath
       clipPathUnits="userSpaceOnUse"
       id="clipPath1983">
      <path
         d="m 9691.53,7909.3 c 90.3,149.7 186.26,281.3 290.71,398.9 29.86,33.7 61.26,66.8 93.86,99.1 116.3,-153.7 222.3,-315.2 316.4,-482.3 -117.3,-12.8 -226.8,-62.2 -313.4,-142.3 -27.9,-25.9 -54.3,-53.2 -79.1,-81.9 -24.9,28.8 -51.44,56.2 -79.54,82.2 -65.33,60.4 -143.83,103.4 -228.93,126.3 z m 978.27,1432.9 v 0 c -28,0 -55.7,-4.6 -82.4,-13.5 -362.5,-123.2 -704.66,-357.9 -989.73,-679 -187.49,-211.3 -351.53,-458.3 -499.31,-752.4 -59.88,20.6 -122.97,31.3 -187.12,31.3 -140.39,0 -273.69,-51.9 -375.35,-145.9 -151.89,-140.7 -256.1,-321.3 -301.37,-522.5 -8.14,-36.1 -14.33,-72.9 -18.43,-109.4 l -0.38,-2.8 c -1.87,-17.2 -3.2,-33.9 -4.19,-50.6 -0.23,-2.6 -0.44,-5.2 -0.57,-7.8 -0.96,-18.5 -1.42,-36.8 -1.4,-54.7 -0.02,-0.9 -0.03,-1.8 -0.03,-2.6 0.52,-122.9 23.87,-244.1 69.41,-360.8 146.42,-375.4 497.37,-631.6 894.1,-652.6 18.18,-1 36.63,-1.5 54.81,-1.5 68.15,0 136.62,6.9 203.5,20.4 21.72,4.3 41.01,8.8 58.95,13.6 16.63,4.4 33.27,9.3 49.74,14.6 180.83,58 339.98,164.5 461.87,307 180.2,-210.2 436.3,-339.4 714.4,-354.1 18.1,-1 36.6,-1.5 54.8,-1.5 68.1,0 136.6,6.9 203.5,20.4 21.7,4.4 41,8.8 58.9,13.6 16.7,4.4 33.3,9.3 49.8,14.6 347.2,111.4 609.7,402.1 685.1,758.5 7.3,34.4 12.8,69.5 16.5,104.4 3.7,35.4 5.6,71.5 5.6,107.3 0,18.4 -0.5,37.3 -1.6,56.2 -0.1,2.6 -0.3,5.1 -0.5,7.6 -1,15.6 -2.3,32.1 -4.1,48.5 -0.1,0.8 -0.3,1.9 -0.4,3 -3.9,35.1 -9.9,71 -17.7,106.1 -45,202.4 -149.6,384.1 -302.5,525.4 -101.4,93.8 -234.5,145.5 -374.6,145.5 -38.3,0 -76.8,-4 -114.6,-11.7 -31.3,69.9 -63.6,131.9 -90.8,182.5 -116.3,215.9 -250.4,424.2 -399.4,620.8 88.4,50.2 178.2,90.9 268.2,121.5 134.2,45.6 206.3,191.9 160.8,326.1 -35.5,104.4 -133.4,174.5 -243.5,174.5 z M 9479.5,7794.9 c 21.96,3.3 44.09,5 66.21,5 103.43,0 206.38,-36.3 287.47,-111.3 65.54,-60.6 121.9,-130.9 166.82,-208.6 44.9,77.6 101.1,147.8 166.5,208.3 81.1,75.1 184.1,111.5 287.6,111.5 55.6,0 111.3,-10.5 163.9,-31.1 -23.5,51.4 -48.8,101.1 -73.9,147.7 -129.3,239.9 -281.5,468.3 -453,680.3 -71.1,-62.2 -139.8,-129.7 -205.02,-203.1 -149.97,-169 -284.1,-366.8 -406.58,-598.7 m 1190.3,1418.7 c 53.6,0 103.5,-33.7 121.7,-87.2 22.8,-67.2 -13.2,-140.2 -80.4,-163.1 -143.1,-48.6 -282.8,-119.6 -416.2,-209.6 179.9,-223 339.7,-463.2 475.6,-715.4 45.9,-85.1 92.8,-179.2 130.3,-280 59.5,27.5 124,41.6 188.3,41.6 103.4,0 206.3,-36.3 287.3,-111.3 130.3,-120.5 224.4,-279.4 264.2,-458.8 v 0 c 6.9,-30.7 12.1,-62 15.7,-93.9 l 0.2,-1.5 c 1.5,-14.3 2.7,-28.8 3.6,-43.3 0.1,-1.9 0.3,-3.8 0.4,-5.7 0.9,-16.2 1.4,-32.6 1.4,-49.1 v -0.1 c 0,-31.7 -1.7,-63.1 -4.9,-93.9 -3.2,-30.9 -8.1,-61.3 -14.4,-91.2 -66.3,-313.5 -297.5,-566.1 -598.6,-662.7 -14.4,-4.6 -28.9,-8.9 -43.5,-12.8 -16.9,-4.5 -34.1,-8.3 -51.4,-11.8 -57.5,-11.6 -117.1,-17.8 -178,-17.8 -15.9,0 -31.9,0.4 -48,1.2 -307.8,16.4 -574.7,194.5 -721.5,447.7 -109.37,-191.3 -287.54,-338.1 -500.86,-406.5 -14.35,-4.6 -28.85,-8.9 -43.49,-12.8 -16.92,-4.5 -34.09,-8.3 -51.39,-11.8 -57.53,-11.6 -117.05,-17.8 -178.02,-17.8 -15.9,0 -31.91,0.4 -48,1.2 -355.69,18.9 -657.31,253.5 -781.13,571 -38.29,98.2 -60.15,204 -60.62,314.1 l 0.03,1.3 c -0.05,16.5 0.37,32.9 1.21,49.1 0.13,2.4 0.39,4.7 0.54,7.1 0.86,14.6 2.01,29.1 3.57,43.5 0.12,1.1 0.3,2.1 0.41,3.2 3.65,32.4 9.06,64.2 16.09,95.5 h 0.01 c 40.13,178.3 133.71,336.4 263.28,456.3 81.23,75.2 184.39,111.7 288.01,111.7 86.03,0 172.37,-25.2 246.74,-74.3 156.39,333.7 332.21,609.2 535.84,838.6 270.28,304.5 593.48,526.7 934.58,642.5 13.7,4.6 27.7,6.8 41.4,6.8"
         id="path1981" />
    </clipPath>
    <linearGradient
       x1="0"
       y1="0"
       x2="1"
       y2="0"
       gradientUnits="userSpaceOnUse"
       gradientTransform="matrix(0,3324.8,3324.8,0,10000,6017.4)"
       spreadMethod="pad"
       id="linearGradient1995">
      <stop
         style="stop-opacity:1;stop-color:#be6d00"
         offset="0"
         id="stop1985" />
      <stop
         style="stop-opacity:1;stop-color:#fff57f"
         offset="0.25008721"
         id="stop1987" />
      <stop
         style="stop-opacity:1;stop-color:#fff57f"
         offset="0.433036"
         id="stop1989" />
      <stop
         style="stop-opacity:1;stop-color:#be6d00"
         offset="0.78897242"
         id="stop1991" />
      <stop
         style="stop-opacity:1;stop-color:#be6d00"
         offset="1"
         id="stop1993" />
    </linearGradient>
    <clipPath
       clipPathUnits="userSpaceOnUse"
       id="clipPath1273">
      <path
         d="m 16314,6263.1 c -794.2,0 -1440.6,631.2 -1465.7,1419.3 25.5,787.8 671.7,1418.7 1465.7,1418.7 794,0 1440.3,-630.8 1465.8,-1418.7 -25.2,-788.1 -671.6,-1419.3 -1465.8,-1419.3 m -1107.8,1416.7 v 0 c 0,-611.8 496,-1107.8 1107.8,-1107.8 611.9,0 1107.8,496 1107.8,1107.8 v 0 0 c 0,611.8 -495.9,1107.8 -1107.8,1107.8 -611.8,0 -1107.8,-496 -1107.8,-1107.8 v 0"
         id="path1271" />
    </clipPath>
    <linearGradient
       x1="0"
       y1="0"
       x2="1"
       y2="0"
       gradientUnits="userSpaceOnUse"
       gradientTransform="matrix(0,2933.87,2933.87,0,16314,6212.9)"
       spreadMethod="pad"
       id="linearGradient1287">
      <stop
         style="stop-opacity:1;stop-color:#be6d00"
         offset="0"
         id="stop1277" />
      <stop
         style="stop-opacity:1;stop-color:#be6d00"
         offset="0.26974194"
         id="stop1279" />
      <stop
         style="stop-opacity:1;stop-color:#fff57f"
         offset="0.545194"
         id="stop1281" />
      <stop
         style="stop-opacity:1;stop-color:#de9700"
         offset="0.994382"
         id="stop1283" />
      <stop
         style="stop-opacity:1;stop-color:#de9700"
         offset="1"
         id="stop1285" />
    </linearGradient>
    <clipPath
       clipPathUnits="userSpaceOnUse"
       id="clipPath1297">
      <path
         d="m 16314,6212.9 c -810.2,0 -1466.9,656.7 -1466.9,1466.9 v 0 c 0,-7.7 0.4,-15.2 0.5,-22.8 0.2,8.5 0.4,16.9 0.7,25.4 25.1,-788.1 671.5,-1419.3 1465.7,-1419.3 794.2,0 1440.6,631.2 1465.8,1419.3 0.2,-8.4 0.4,-16.9 0.6,-25.4 0.1,7.6 0.5,15.1 0.5,22.8 v 0 c 0,-810.2 -656.7,-1466.9 -1466.9,-1466.9"
         id="path1295" />
    </clipPath>
    <linearGradient
       x1="0"
       y1="0"
       x2="1"
       y2="0"
       gradientUnits="userSpaceOnUse"
       gradientTransform="matrix(0,2933.87,2933.87,0,16314,6212.9)"
       spreadMethod="pad"
       id="linearGradient1311">
      <stop
         style="stop-opacity:1;stop-color:#8c5408"
         offset="0"
         id="stop1301" />
      <stop
         style="stop-opacity:1;stop-color:#8c5408"
         offset="0.26974194"
         id="stop1303" />
      <stop
         style="stop-opacity:1;stop-color:#bab361"
         offset="0.545194"
         id="stop1305" />
      <stop
         style="stop-opacity:1;stop-color:#a37108"
         offset="0.994382"
         id="stop1307" />
      <stop
         style="stop-opacity:1;stop-color:#a37108"
         offset="1"
         id="stop1309" />
    </linearGradient>
    <clipPath
       clipPathUnits="userSpaceOnUse"
       id="clipPath1321">
      <path
         d="m 17780.9,7679.8 c 0,8.4 -0.4,16.7 -0.6,25.1 -0.1,-7.5 -0.3,-15 -0.5,-22.5 -25.5,787.9 -671.8,1418.7 -1465.8,1418.7 -794,0 -1440.2,-630.9 -1465.7,-1418.7 -0.3,7.5 -0.5,15 -0.6,22.5 -0.1,-8.4 -0.6,-16.7 -0.6,-25.1 0,810.2 656.7,1466.9 1466.9,1466.9 810.2,0 1466.9,-656.7 1466.9,-1466.9"
         id="path1319" />
    </clipPath>
    <linearGradient
       x1="0"
       y1="0"
       x2="1"
       y2="0"
       gradientUnits="userSpaceOnUse"
       gradientTransform="matrix(0,2933.87,2933.87,0,16314,6212.9)"
       spreadMethod="pad"
       id="linearGradient1335">
      <stop
         style="stop-opacity:1;stop-color:#e8d7c2"
         offset="0"
         id="stop1325" />
      <stop
         style="stop-opacity:1;stop-color:#e8d7c2"
         offset="0.26974194"
         id="stop1327" />
      <stop
         style="stop-opacity:1;stop-color:#f5f3db"
         offset="0.545194"
         id="stop1329" />
      <stop
         style="stop-opacity:1;stop-color:#eee0c2"
         offset="0.994382"
         id="stop1331" />
      <stop
         style="stop-opacity:1;stop-color:#eee0c2"
         offset="1"
         id="stop1333" />
    </linearGradient>
    <clipPath
       clipPathUnits="userSpaceOnUse"
       id="clipPath1345">
      <path
         d="m 17780.4,7657 c -0.2,8.5 -0.4,17 -0.6,25.4 0.2,7.5 0.4,15 0.5,22.5 0.2,-8.4 0.6,-16.7 0.6,-25.1 v 0 c 0,-7.7 -0.4,-15.2 -0.5,-22.8 m -2932.8,0 c -0.1,7.6 -0.5,15.1 -0.5,22.8 v 0 c 0,8.4 0.5,16.7 0.6,25.1 0.1,-7.5 0.3,-15 0.6,-22.5 -0.3,-8.5 -0.5,-16.9 -0.7,-25.4"
         id="path1343" />
    </clipPath>
    <linearGradient
       x1="0"
       y1="0"
       x2="1"
       y2="0"
       gradientUnits="userSpaceOnUse"
       gradientTransform="matrix(0,2933.87,2933.87,0,16314,6212.9)"
       spreadMethod="pad"
       id="linearGradient1359">
      <stop
         style="stop-opacity:1;stop-color:#ded2c3"
         offset="0"
         id="stop1349" />
      <stop
         style="stop-opacity:1;stop-color:#ded2c3"
         offset="0.26974194"
         id="stop1351" />
      <stop
         style="stop-opacity:1;stop-color:#e7e5d5"
         offset="0.545194"
         id="stop1353" />
      <stop
         style="stop-opacity:1;stop-color:#e2d8c3"
         offset="0.994382"
         id="stop1355" />
      <stop
         style="stop-opacity:1;stop-color:#e2d8c3"
         offset="1"
         id="stop1357" />
    </linearGradient>
    <clipPath
       clipPathUnits="userSpaceOnUse"
       id="clipPath1369">
      <path
         d="m 16314,6072.2 c -886.4,0 -1607.6,721.1 -1607.6,1607.6 0,886.5 721.2,1607.6 1607.6,1607.6 886.5,0 1607.6,-721.1 1607.6,-1607.6 0,-886.5 -721.1,-1607.6 -1607.6,-1607.6 m -1466.9,1607.6 v 0 c 0,-810.2 656.7,-1466.9 1466.9,-1466.9 810.2,0 1466.9,656.7 1466.9,1466.9 v 0 0 0 c 0,810.2 -656.7,1466.9 -1466.9,1466.9 -810.2,0 -1466.9,-656.7 -1466.9,-1466.9 v 0 0"
         id="path1367" />
    </clipPath>
    <linearGradient
       x1="0"
       y1="0"
       x2="1"
       y2="0"
       gradientUnits="userSpaceOnUse"
       gradientTransform="matrix(0,3215.26,3215.26,0,16314,6072.2)"
       spreadMethod="pad"
       id="linearGradient1383">
      <stop
         style="stop-opacity:1;stop-color:#900093"
         offset="0"
         id="stop1373" />
      <stop
         style="stop-opacity:1;stop-color:#900093"
         offset="0.0723023"
         id="stop1375" />
      <stop
         style="stop-opacity:1;stop-color:#fb31ff"
         offset="0.5"
         id="stop1377" />
      <stop
         style="stop-opacity:1;stop-color:#69006b"
         offset="0.85994529"
         id="stop1379" />
      <stop
         style="stop-opacity:1;stop-color:#69006b"
         offset="1"
         id="stop1381" />
    </linearGradient>
    <clipPath
       clipPathUnits="userSpaceOnUse"
       id="clipPath1397">
      <path
         d="m 16314,6572 c -611.8,0 -1107.8,496 -1107.8,1107.8 v 0 c 0,-611.8 496,-1107.8 1107.8,-1107.8 611.9,0 1107.8,496 1107.8,1107.8 v 0 C 17421.8,7068 16925.9,6572 16314,6572"
         id="path1395" />
    </clipPath>
    <linearGradient
       x1="0"
       y1="0"
       x2="1"
       y2="0"
       gradientUnits="userSpaceOnUse"
       gradientTransform="matrix(0,2933.87,2933.87,0,16314,6212.9)"
       spreadMethod="pad"
       id="linearGradient1411">
      <stop
         style="stop-opacity:1;stop-color:#5c3b10"
         offset="0"
         id="stop1401" />
      <stop
         style="stop-opacity:1;stop-color:#5c3b10"
         offset="0.26974194"
         id="stop1403" />
      <stop
         style="stop-opacity:1;stop-color:#767242"
         offset="0.545194"
         id="stop1405" />
      <stop
         style="stop-opacity:1;stop-color:#684c10"
         offset="0.994382"
         id="stop1407" />
      <stop
         style="stop-opacity:1;stop-color:#684c10"
         offset="1"
         id="stop1409" />
    </linearGradient>
    <clipPath
       clipPathUnits="userSpaceOnUse"
       id="clipPath1425">
      <path
         d="m 16356,6763.6 h -86.4 v 203.2 h -93.4 c -193.1,0 -289.6,102.8 -289.6,308.4 v 156.4 h 275.6 v -196.2 0 c 0,-12.5 4.2,-23.3 12.8,-32.7 8.6,-9.3 19.1,-14 31.5,-14 h 63.1 v 436.8 0 h -93.4 c -193.1,0 -289.6,102.8 -289.6,308.3 v 282.6 c 0,205.6 96.5,308.3 289.6,308.3 h 93.4 v 121.5 h 86.4 v -121.5 h 79.4 c 193.1,0 289.7,-102.7 289.7,-308.3 v -112.1 h -275.6 v 149.5 0 c 0,12.4 -4.3,23.3 -12.8,32.7 -8.6,9.4 -19.1,14 -31.6,14 h -49.1 v -413.4 0 h 95.8 c 193,-3.1 289.6,-105.9 289.6,-308.3 v -303.6 c 0,-205.6 -96.6,-308.4 -289.6,-308.4 h -95.8 v -203.2 m 0,425.1 v 0 h 65.5 c 12.4,0 22.9,4.7 31.5,14 v 0 c 8.5,9.3 12.7,20 12.8,32.4 0,0.1 0,0.2 0,0.3 v 343.4 0 0 c 0,12.4 -4.3,23.3 -12.8,32.7 -8.6,9.3 -19.1,14 -31.5,14 h -65.5 v -436.8 m -191.5,745.1 v 0 c 0,-12.5 4.3,-23.4 12.9,-32.7 8.5,-9.3 19,-14 31.5,-14 h 60.7 v 413.4 h -60.7 c -12.5,0 -23,-4.6 -31.5,-14 -1.6,-1.8 -3.1,-3.6 -4.4,-5.5 -5.5,-7.8 -8.3,-16.6 -8.5,-26.3 0,-0.3 0,-0.6 0,-0.9 v -320 0"
         id="path1423" />
    </clipPath>
    <linearGradient
       x1="0"
       y1="0"
       x2="1"
       y2="0"
       gradientUnits="userSpaceOnUse"
       gradientTransform="matrix(0,1882.62,1882.62,0,16314,6763.6)"
       spreadMethod="pad"
       id="linearGradient1439">
      <stop
         style="stop-opacity:1;stop-color:#be6d00"
         offset="0"
         id="stop1429" />
      <stop
         style="stop-opacity:1;stop-color:#be6d00"
         offset="0.26974194"
         id="stop1431" />
      <stop
         style="stop-opacity:1;stop-color:#fff57f"
         offset="0.545194"
         id="stop1433" />
      <stop
         style="stop-opacity:1;stop-color:#de9700"
         offset="0.994382"
         id="stop1435" />
      <stop
         style="stop-opacity:1;stop-color:#de9700"
         offset="1"
         id="stop1437" />
    </linearGradient>
    <clipPath
       clipPathUnits="userSpaceOnUse"
       id="clipPath1453">
      <path
         d="m 16269.6,6763.6 v 0 203.2 -203.2 m 151.9,425.1 h -65.5 65.5 c 12.4,0 22.9,4.7 31.5,14 v 0 0 c -8.6,-9.3 -19.1,-14 -31.5,-14 m -151.9,0 h -63.1 c -12.4,0 -22.9,4.7 -31.5,14 -8.6,9.4 -12.8,20.2 -12.8,32.7 v 0 c 0,-12.5 4.2,-23.3 12.8,-32.7 8.6,-9.3 19.1,-14 31.6,-14 h 63 v 436.8 0 -436.8 m 196.2,46.4 c 0,0.1 0,0.2 0,0.3 v 343.4 0 -343.4 c 0,-0.1 0,-0.2 0,-0.3 m -579.2,40.1 v 0 156.4 h 275.6 v 0 h -275.6 v -156.4 m 854.8,303.6 c 0,202.4 -96.6,305.2 -289.6,308.3 h -95.8 95.8 c 193,-3.1 289.6,-105.9 289.6,-308.3 v 0 m -471.8,308.3 h -60.7 c -12.5,0 -23,4.7 -31.5,14 -8.6,9.3 -12.9,20.2 -12.9,32.7 v 0 c 0,-12.5 4.3,-23.4 12.9,-32.7 8.5,-9.3 19,-14 31.5,-14 h 60.7 v 413.4 -413.4 m -383,46.7 v 0 282.6 c 0,205.6 96.5,308.3 289.6,308.3 h 93.4 v 121.5 h 86.4 v 0 h -86.4 v -121.5 h -93.4 c -193.1,0 -289.6,-102.7 -289.6,-308.3 v -282.6 m 562.9,170.5 v 0 149.5 0 -149.5 m 275.6,112.1 c 0,205.6 -96.6,308.3 -289.7,308.3 h -79.4 79.4 c 193.1,0 289.7,-102.7 289.7,-308.3 v 0 m -560.6,38.3 c 0.2,9.7 3,18.5 8.5,26.3 -5.5,-7.8 -8.3,-16.6 -8.5,-26.3"
         id="path1451" />
    </clipPath>
    <linearGradient
       x1="0"
       y1="0"
       x2="1"
       y2="0"
       gradientUnits="userSpaceOnUse"
       gradientTransform="matrix(0,1882.62,1882.62,0,16314,6763.6)"
       spreadMethod="pad"
       id="linearGradient1467">
      <stop
         style="stop-opacity:1;stop-color:#5c3b10"
         offset="0"
         id="stop1457" />
      <stop
         style="stop-opacity:1;stop-color:#5c3b10"
         offset="0.26974194"
         id="stop1459" />
      <stop
         style="stop-opacity:1;stop-color:#767242"
         offset="0.545194"
         id="stop1461" />
      <stop
         style="stop-opacity:1;stop-color:#684c10"
         offset="0.994382"
         id="stop1463" />
      <stop
         style="stop-opacity:1;stop-color:#684c10"
         offset="1"
         id="stop1465" />
    </linearGradient>
  </defs>
  <g
     inkscape:label="Layer 1"
     inkscape:groupmode="layer"
     id="layer1">
    <g
       id="g15094"
       transform="matrix(0.41366297,0,0,0.41366297,43.291766,50.166501)">
      <g
         id="g1267"
         transform="matrix(0.13333333,0,0,-0.13333333,-1999.2261,1175.4681)">
        <g
           id="g1269"
           clip-path="url(#clipPath1273)">
          <g
             id="g1275"
             transform="scale(1.09079)">
            <path
               d="m 14956.2,5741.83 c -728.1,0 -1320.7,578.66 -1343.7,1301.17 23.4,722.23 615.8,1300.62 1343.7,1300.62 727.9,0 1320.4,-578.3 1343.8,-1300.62 -23.1,-722.51 -615.7,-1301.17 -1343.8,-1301.17 m -1015.6,1298.79 v 0 c 0,-560.88 454.7,-1015.6 1015.6,-1015.6 561,0 1015.6,454.72 1015.6,1015.6 v 0 0 c 0,560.88 -454.6,1015.6 -1015.6,1015.6 -560.9,0 -1015.6,-454.72 -1015.6,-1015.6 v 0"
               style="fill:url(#linearGradient1287);fill-opacity:1;fill-rule:nonzero;stroke:none"
               id="path1289" />
          </g>
        </g>
      </g>
      <g
         id="g1291"
         transform="matrix(0.13333333,0,0,-0.13333333,-1999.2261,1175.4681)">
        <g
           id="g1293"
           clip-path="url(#clipPath1297)">
          <g
             id="g1299"
             transform="scale(1.09085)">
            <path
               d="m 14955.3,5695.45 c -742.7,0 -1344.8,602.01 -1344.8,1344.73 v 0 c 0,-7.06 0.4,-13.93 0.5,-20.9 0.2,7.79 0.4,15.49 0.6,23.29 23.1,-722.47 615.6,-1301.1 1343.7,-1301.1 728,0 1320.6,578.63 1343.7,1301.1 0.2,-7.71 0.4,-15.5 0.5,-23.29 0.1,6.97 0.5,13.84 0.5,20.9 v 0 c 0,-742.72 -602,-1344.73 -1344.7,-1344.73"
               style="fill:url(#linearGradient1311);fill-opacity:1;fill-rule:nonzero;stroke:none"
               id="path1313" />
          </g>
        </g>
      </g>
      <g
         id="g1315"
         transform="matrix(0.13333333,0,0,-0.13333333,-1999.2261,1175.4681)">
        <g
           id="g1317"
           clip-path="url(#clipPath1321)">
          <g
             id="g1323"
             transform="scale(1.09085)">
            <path
               d="m 16300,7040.18 c 0,7.7 -0.4,15.31 -0.6,23.01 0,-6.87 -0.2,-13.75 -0.4,-20.62 -23.4,722.27 -615.9,1300.54 -1343.7,1300.54 -727.9,0 -1320.3,-578.36 -1343.7,-1300.54 -0.2,6.87 -0.4,13.75 -0.5,20.62 -0.1,-7.7 -0.6,-15.31 -0.6,-23.01 0,742.72 602.1,1344.73 1344.8,1344.73 742.7,0 1344.7,-602.01 1344.7,-1344.73"
               style="fill:url(#linearGradient1335);fill-opacity:1;fill-rule:nonzero;stroke:none"
               id="path1337" />
          </g>
        </g>
      </g>
      <g
         id="g1339"
         transform="matrix(0.13333333,0,0,-0.13333333,-1999.2261,1175.4681)">
        <g
           id="g1341"
           clip-path="url(#clipPath1345)">
          <g
             id="g1347"
             transform="scale(1.09085)">
            <path
               d="m 16299.5,7019.28 c -0.1,7.79 -0.3,15.58 -0.5,23.29 0.2,6.87 0.4,13.75 0.4,20.62 0.2,-7.7 0.6,-15.31 0.6,-23.01 v 0 c 0,-7.06 -0.4,-13.93 -0.5,-20.9 m -2688.5,0 c -0.1,6.97 -0.5,13.84 -0.5,20.9 v 0 c 0,7.7 0.5,15.31 0.6,23.01 0.1,-6.87 0.3,-13.75 0.5,-20.62 -0.2,-7.8 -0.4,-15.5 -0.6,-23.29"
               style="fill:url(#linearGradient1359);fill-opacity:1;fill-rule:nonzero;stroke:none"
               id="path1361" />
          </g>
        </g>
      </g>
      <g
         id="g1363"
         transform="matrix(0.13333333,0,0,-0.13333333,-1999.2261,1175.4681)">
        <g
           id="g1365"
           clip-path="url(#clipPath1369)">
          <g
             id="g1371"
             transform="scale(1.09948)">
            <path
               d="m 14837.9,5522.77 c -806.2,0 -1462.2,655.85 -1462.2,1462.14 0,806.29 656,1462.14 1462.2,1462.14 806.2,0 1462.1,-655.85 1462.1,-1462.14 0,-806.29 -655.9,-1462.14 -1462.1,-1462.14 m -1334.2,1462.14 v 0 c 0,-736.89 597.3,-1334.17 1334.2,-1334.17 736.9,0 1334.1,597.28 1334.1,1334.17 v 0 0 0 c 0,736.89 -597.2,1334.17 -1334.1,1334.17 -736.9,0 -1334.2,-597.28 -1334.2,-1334.17 v 0 0"
               style="fill:url(#linearGradient1383);fill-opacity:1;fill-rule:nonzero;stroke:none"
               id="path1385" />
          </g>
        </g>
      </g>
      <g
         id="g1387"
         transform="matrix(0.14250933,0,0,-0.14250933,-1999.2261,1175.4681)">
        <path
           d="m 16300,7185.29 c 0,-572.4 -464,-1036.47 -1036.5,-1036.47 -572.4,0 -1036.4,464.07 -1036.4,1036.47 0,572.41 464,1036.47 1036.4,1036.47 572.5,0 1036.5,-464.06 1036.5,-1036.47"
           style="fill:#3a2000;fill-opacity:1;fill-rule:nonzero;stroke:none"
           id="path1389" />
      </g>
      <g
         id="g1391"
         transform="matrix(0.13333333,0,0,-0.13333333,-1999.2261,1175.4681)">
        <g
           id="g1393"
           clip-path="url(#clipPath1397)">
          <g
             id="g1399"
             transform="scale(1.06882)">
            <path
               d="m 15263.5,6148.82 c -572.4,0 -1036.4,464.07 -1036.4,1036.47 v 0 c 0,-572.4 464,-1036.47 1036.4,-1036.47 572.5,0 1036.5,464.07 1036.5,1036.47 v 0 c 0,-572.4 -464,-1036.47 -1036.5,-1036.47"
               style="fill:url(#linearGradient1411);fill-opacity:1;fill-rule:nonzero;stroke:none"
               id="path1413" />
          </g>
        </g>
      </g>
      <g
         id="g1415"
         transform="matrix(0.14250933,0,0,-0.14250933,-1999.2261,1175.4681)">
        <path
           d="m 15263.5,6148.82 c -572.4,0 -1036.4,464.07 -1036.4,1036.47 0,572.41 464,1036.47 1036.4,1036.47 572.5,0 1036.5,-464.06 1036.5,-1036.47 0,-572.4 -464,-1036.47 -1036.5,-1036.47 m 0,2032.33 c -549.1,0 -995.8,-446.75 -995.8,-995.86 0,-549.1 446.7,-995.86 995.8,-995.86 549.1,0 995.9,446.76 995.9,995.86 0,549.11 -446.8,995.86 -995.9,995.86"
           style="fill:#271c10;fill-opacity:1;fill-rule:nonzero;stroke:none"
           id="path1417" />
      </g>
      <g
         id="g1419"
         transform="matrix(0.13333333,0,0,-0.13333333,-1999.2261,1175.4681)">
        <g
           id="g1421"
           clip-path="url(#clipPath1425)">
          <g
             id="g1427"
             transform="scale(1.02708)">
            <path
               d="m 15924.8,6585.27 h -84.2 v 197.84 h -90.9 c -188,0 -282,100.09 -282,300.27 v 152.28 h 268.4 v -191.03 0 c 0,-12.17 4.1,-22.68 12.4,-31.84 8.4,-9.05 18.6,-13.63 30.7,-13.63 h 61.4 v 425.29 0 h -90.9 c -188,0 -282,100.09 -282,300.17 v 275.15 c 0,200.18 94,300.17 282,300.17 h 90.9 v 118.29 h 84.2 v -118.29 h 77.3 c 188,0 282,-99.99 282,-300.17 v -109.15 h -268.3 v 145.56 0 c 0,12.07 -4.2,22.69 -12.5,31.84 -8.3,9.15 -18.6,13.63 -30.7,13.63 h -47.8 v -402.5 0 h 93.2 c 187.9,-3.02 282,-103.11 282,-300.17 v -295.6 c 0,-200.18 -94.1,-300.27 -282,-300.27 h -93.2 v -197.84 m 0,413.89 v 0 h 63.7 c 12.1,0 22.3,4.58 30.7,13.63 v 0 c 8.3,9.06 12.4,19.48 12.5,31.55 0,0.1 0,0.2 0,0.29 v 334.35 0 0 c 0,12.07 -4.2,22.68 -12.5,31.84 -8.4,9.05 -18.6,13.63 -30.7,13.63 h -63.7 v -425.29 m -186.5,725.46 v 0 c 0,-12.17 4.2,-22.78 12.6,-31.84 8.2,-9.05 18.5,-13.63 30.6,-13.63 h 59.1 v 402.5 h -59.1 c -12.1,0 -22.4,-4.48 -30.6,-13.63 -1.6,-1.75 -3.1,-3.5 -4.3,-5.36 -5.4,-7.59 -8.1,-16.16 -8.3,-25.6 0,-0.3 0,-0.59 0,-0.88 v -311.56 0"
               style="fill:url(#linearGradient1439);fill-opacity:1;fill-rule:nonzero;stroke:none"
               id="path1441" />
          </g>
        </g>
      </g>
      <g
         id="g1443"
         transform="matrix(0.1373,0,0,-0.1373,-1999.2261,1175.4681)">
        <path
           d="m 15883.5,6525.96 h -83.9 c -23.3,0 -42.2,18.94 -42.2,42.25 v 155.18 h -48.5 c -211.6,0 -323.5,118.09 -323.5,341.63 v 151.89 c 0,23.31 18.9,42.24 42.3,42.24 h 267.6 c 23.3,0 42.1,-18.93 42.1,-42.24 v -190.53 c 0,-1.36 0,-1.75 0.9,-3.21 h 19.1 v 339.89 h -48.5 c -211.6,0 -323.5,118.09 -323.5,341.54 v 274.44 c 0,223.55 111.9,341.63 323.5,341.63 h 48.5 v 75.75 c 0,23.3 18.9,42.15 42.2,42.15 h 83.9 c 23.3,0 42.2,-18.85 42.2,-42.15 v -75.75 h 34.9 c 211.7,0 323.5,-118.08 323.5,-341.63 v -108.87 c 0,-23.3 -18.9,-42.14 -42.2,-42.14 h -267.6 c -23.3,0 -42.3,18.84 -42.3,42.14 v 145.19 c 0,1.16 0,1.74 -0.8,3.2 h -5.5 v -317.17 h 51.5 c 211.1,-3.39 322.8,-121.48 322.8,-341.53 v -294.84 c 0,-223.54 -111.9,-341.63 -323.5,-341.63 h -50.8 v -155.18 c 0,-23.31 -18.9,-42.25 -42.2,-42.25 m -83.9,42.25 v 0 h 83.9 v 197.33 h 93 c 187.4,0 281.3,99.83 281.3,299.48 v 294.84 0 0 c 0,196.55 -93.9,296.38 -281.3,299.39 h -93 v 401.46 h 47.7 c 12.1,0 22.3,-4.47 30.7,-13.6 8.2,-9.13 12.4,-19.71 12.4,-31.75 v -145.19 h 267.6 v 108.87 0 c 0,199.66 -93.8,299.39 -281.3,299.39 h -77.1 v 117.99 0 h -83.9 v -117.99 h -90.7 c -187.5,0 -281.2,-99.73 -281.2,-299.39 v -274.44 0 0 c 0,-199.56 93.7,-299.39 281.2,-299.39 h 90.7 v -424.19 h -61.2 c -12.1,0 -22.3,4.57 -30.7,13.6 -8.3,9.13 -12.4,19.62 -12.4,31.76 v 190.53 0 h -267.6 v -151.89 0 c 0,-199.65 93.7,-299.48 281.2,-299.48 h 90.7 v -197.33 m 147.5,412.81 h -63.6 v 424.19 h 63.6 c 12,0 22.2,-4.57 30.6,-13.6 8.2,-9.13 12.4,-19.71 12.4,-31.75 v -333.48 c 0,-0.1 0,-0.2 0,-0.29 -0.1,-12.05 -4.2,-22.44 -12.4,-31.47 v 0 c -8.4,-9.03 -18.6,-13.6 -30.6,-13.6 m -21.4,382.04 v -339.99 h 20.8 c 1.5,1.56 1.5,2.04 1.5,3.31 v 333.48 c 0,1.16 0,1.74 -0.9,3.2 h -21.4 m -126.1,296.19 h -59 c -12.1,0 -22.3,4.56 -30.5,13.6 -8.4,9.03 -12.6,19.61 -12.6,31.75 v 310.76 c 0,0.29 0,0.58 0,0.87 0.2,9.42 2.9,17.96 8.3,25.54 1.2,1.85 2.7,3.59 4.3,5.34 8.2,9.13 18.4,13.6 30.5,13.6 h 59 v -401.46 m -58.5,359.31 c -1.4,-1.55 -1.4,-2.04 -1.4,-3.2 V 7704.6 c 0,-1.26 0,-1.75 0.6,-3.11 l 0.3,-0.1 h 16.8 v 317.17 h -16.3"
           style="fill:#271c10;fill-opacity:1;fill-rule:nonzero;stroke:none"
           id="path1445" />
      </g>
      <g
         id="g1447"
         transform="matrix(0.13333333,0,0,-0.13333333,-1999.2261,1175.4681)">
        <g
           id="g1449"
           clip-path="url(#clipPath1453)">
          <g
             id="g1455"
             transform="scale(1.02708)">
            <path
               d="m 15840.6,6585.27 v 0 197.84 -197.84 m 147.9,413.89 h -63.7 63.7 c 12.1,0 22.3,4.58 30.7,13.63 v 0 0 c -8.4,-9.05 -18.6,-13.63 -30.7,-13.63 m -147.9,0 h -61.4 c -12.1,0 -22.3,4.58 -30.7,13.63 -8.3,9.16 -12.4,19.67 -12.4,31.84 v 0 c 0,-12.17 4.1,-22.68 12.4,-31.84 8.4,-9.05 18.6,-13.63 30.8,-13.63 h 61.3 v 425.29 0 -425.29 m 191.1,45.18 c 0,0.1 0,0.2 0,0.29 v 334.35 0 -334.35 c 0,-0.09 0,-0.19 0,-0.29 m -564,39.04 v 0 152.28 h 268.4 v 0 h -268.4 v -152.28 m 832.3,295.6 c 0,197.06 -94.1,297.15 -282,300.17 h -93.2 93.2 c 187.9,-3.02 282,-103.11 282,-300.17 v 0 m -459.4,300.17 h -59.1 c -12.1,0 -22.4,4.58 -30.6,13.63 -8.4,9.06 -12.6,19.67 -12.6,31.84 v 0 c 0,-12.17 4.2,-22.78 12.6,-31.84 8.2,-9.05 18.5,-13.63 30.6,-13.63 h 59.1 v 402.5 -402.5 m -372.9,45.47 v 0 275.15 c 0,200.18 94,300.17 282,300.17 h 90.9 v 118.29 h 84.2 v 0 h -84.2 v -118.29 h -90.9 c -188,0 -282,-99.99 -282,-300.17 v -275.15 m 548.1,166 v 0 145.56 0 -145.56 m 268.3,109.15 c 0,200.18 -94,300.17 -282,300.17 h -77.3 77.3 c 188,0 282,-99.99 282,-300.17 v 0 m -545.8,37.29 c 0.2,9.44 2.9,18.01 8.3,25.6 -5.4,-7.59 -8.1,-16.16 -8.3,-25.6"
               style="fill:url(#linearGradient1467);fill-opacity:1;fill-rule:nonzero;stroke:none"
               id="path1469" />
          </g>
        </g>
      </g>
      <g
         id="g1471"
         transform="matrix(0.14697066,0,0,-0.14697066,-1999.2261,1175.4681)">
        <path
           d="m 14800.3,8466.94 c -826.9,0 -1499.7,-672.79 -1499.7,-1499.72 0,-826.93 672.8,-1499.72 1499.7,-1499.72 826.9,0 1499.7,672.79 1499.7,1499.72 0,826.93 -672.8,1499.72 -1499.7,1499.72 z m 0,-41.28 c 804.2,0 1458.4,-654.29 1458.4,-1458.44 0,-804.24 -654.2,-1458.44 -1458.4,-1458.44 -804.2,0 -1458.5,654.2 -1458.5,1458.44 0,804.15 654.3,1458.44 1458.5,1458.44"
           style="fill:#340041;fill-opacity:1;fill-rule:nonzero;stroke:none"
           id="path1473" />
      </g>
      <g
         id="g1475"
         transform="matrix(0.14080666,0,0,-0.14080666,-1999.2261,1175.4681)">
        <path
           d="m 16300,8431.24 v 0 c -52.9,-17.33 -94.4,-58.81 -111.6,-111.74 -17.4,52.93 -58.8,94.41 -111.8,111.74 53,17.23 94.4,58.71 111.8,111.64 17.2,-52.93 58.7,-94.41 111.6,-111.64"
           style="fill:#ffffff;fill-opacity:1;fill-rule:nonzero;stroke:none"
           id="path1477" />
      </g>
      <g
         id="g1479"
         transform="matrix(0.13819333,0,0,-0.13819333,-1999.2261,1175.4681)">
        <path
           d="m 16300,8524.5 v 0 c -37.2,-12.16 -66.5,-41.39 -78.6,-78.73 -12.2,37.34 -41.4,66.57 -78.8,78.73 37.4,12.16 66.6,41.39 78.8,78.63 12.1,-37.24 41.4,-66.47 78.6,-78.63"
           style="fill:#ffffff;fill-opacity:1;fill-rule:nonzero;stroke:none"
           id="path1481" />
      </g>
    </g>
  </g>
</svg>
