<svg xmlns="http://www.w3.org/2000/svg" xmlns:xlink="http://www.w3.org/1999/xlink" width="230" height="230" xmlns:v="https://vecta.io/nano"><defs><clipPath id="A"><path d="M17399.5 11541.2l16.6 88.7c4.9 26.2 24.9 46.7 51 52.5 63.3 14.2 126.4 29.6 189.3 46.2 35.2 9.2 62.3 37.5 70.4 73l267.6 1173c13.4 58.7-55.2 101-101.6 62.6l-888-734.3L16432 13364c79.8 65.1 79.8 187 0 252l-15.2 12.5c-59.8 48.8-145.7 48.8-205.5 0l-15.3-12.5c-79.8-65-79.8-186.9 0-252l-572.8-1061.1-888 734.3c-46.4 38.4-115-3.9-101.6-62.6l277.5-1216.5c2-8.7 8.7-15.7 17.4-18 77.1-20.9 154.6-40.3 232.4-57.7 26.1-5.8 46.2-26.3 51.1-52.5l16.5-88.7c9-48-34.8-88.8-82.2-77-46.8 11.6-93.6 24-140.2 37-17.6 4.9-33.9-10.6-29.9-28.4l61.1-267.8h0c823.6-306.2 1729.8-306.2 2553.4 0l61.1 267.8c4.1 17.8-12.3 33.3-29.9 28.4l-140.2-37c-47.4-11.8-91.2 29-82.2 77z"/></clipPath><linearGradient x1="14631.9" y1="12320.2" x2="17996.14" y2="12320.2" spreadMethod="pad" id="B" xlink:href="#S"><stop offset="0" stop-color="#be6d00"/><stop offset=".071" stop-color="#be6d00"/><stop offset=".527" stop-color="#fff57f"/><stop offset=".824" stop-color="#be6d00"/></linearGradient><clipPath id="C"><path d="M16314 13785.1h0c-64.9 0-128.3-22.6-178.6-63.6l-15.3-12.5c-66-53.8-104-133.7-104-219 0-49.5 12.8-97.2 36.5-139l-231.1-428.1-258.8 279.9c-35.1 37.9-82.7 58.9-134 58.9-93.8 0-172.2-70.2-182.4-163.2l-32.9-300.9-401.7 332.1c-32.9 27.2-74.2 42.2-116.3 42.2-55.4 0-109.2-26-143.9-69.5s-47.4-99.8-34.9-154.5l277.5-1216.5c11.9-52.1 51.4-93.2 103-107.2l47.9-12.7c-22.4-9.2-42.4-24.1-58-43.7-27.5-34.4-37.6-78.8-27.8-121.7l61.1-267.8 14.4-63.2 60.8-22.6c423.3-157.4 866.9-237.2 1318.5-237.2s895.2 79.8 1318.5 237.2l60.8 22.6 14.4 63.2 61.1 267.8c9.8 42.9-.3 87.3-27.7 121.7-15.7 19.6-35.7 34.5-58.1 43.7 1.3.3 2.6.7 3.9 1 78.6 20.6 138.8 82.9 156.9 162.5l267.6 1172.9c12.5 54.7-.2 111-34.8 154.5-34.8 43.5-88.6 69.5-144 69.5-42.1 0-83.4-15-116.3-42.2l-401.7-332.1-32.9 300.9c-10.2 93-88.6 163.2-182.4 163.2-51.3 0-98.9-21-134-58.9l-258.8-279.9-231.1 428.1c23.7 41.8 36.5 89.5 36.5 139.1 0 85.2-37.9 165.1-104 219l-15.3 12.4c-50.3 41-113.7 63.6-178.6 63.6zm0-120c36.4 0 72.8-12.2 102.7-36.6l15.3-12.5c79.8-65 79.8-186.9 0-252l348.7-645.9 372.7 403.2c13 14 29.6 20.4 45.9 20.4 30.1 0 59.3-21.5 63.1-56.3l57.2-522.1 573.2 473.9c12.3 10.2 26.3 14.7 39.8 14.7 37.3 0 71.7-34.2 61.8-77.3l-267.6-1173c-8.1-35.5-35.2-63.8-70.4-73-62.9-16.6-126-32-189.3-46.2-26.1-5.8-46.1-26.3-51-52.5l-16.6-88.7c-7.9-42.4 25.2-79 65.6-79 5.4 0 11 .6 16.6 2 46.9 11.6 93.6 24 140.2 37 2.2.6 4.5.9 6.6.9 14.8 0 26.8-13.8 23.3-29.3l-61.1-267.8c-411.8-153.1-844.2-229.7-1276.7-229.7-432.4 0-864.9 76.6-1276.7 229.7l-61.1 267.8c-3.5 15.5 8.5 29.3 23.3 29.3 2.2 0 4.4-.3 6.6-.9l140.2-37c5.6-1.4 11.2-2 16.6-2 40.4 0 73.6 36.6 65.6 79l-16.5 88.7c-4.9 26.2-25 46.7-51.1 52.5-77.8 17.4-155.3 36.8-232.4 57.7-8.7 2.3-15.4 9.3-17.4 18l-277.5 1216.5c-9.8 43.1 24.5 77.3 61.8 77.3 13.6 0 27.5-4.5 39.8-14.7l573.2-473.9 57.2 522.1c3.8 34.8 33 56.3 63.1 56.3 16.3 0 33-6.4 45.9-20.4l372.7-403.2 348.7 645.9c-79.8 65.1-79.8 187 0 252l15.3 12.5c29.9 24.4 66.3 36.6 102.7 36.6"/></clipPath><linearGradient x1="0" y1="0" x2="1" y2="0" gradientTransform="matrix(0,2929.8,2929.8,0,16314,10855.3)" spreadMethod="pad" id="D" xlink:href="#S"><stop offset="0" stop-color="#549300"/><stop offset=".072" stop-color="#549300"/><stop offset=".5" stop-color="#a6ff31"/><stop offset=".86" stop-color="#3d6b00"/></linearGradient><clipPath id="E"><path d="M16314 13040.3v-338l249.8-473.8 197.1-35.6z"/></clipPath><linearGradient x1="0" y1="0" x2="1" y2="0" gradientTransform="matrix(0,847.407,847.407,0,16537.4,12192.9)" spreadMethod="pad" id="F" xlink:href="#S"><stop offset="0" stop-color="#ff313f"/><stop offset=".982" stop-color="#6b0008"/></linearGradient><clipPath id="G"><path d="M16314 11746l446.9 446.9-197.1 35.6-249.8-249.8z"/></clipPath><linearGradient x1="0" y1="0" x2="1" y2="0" gradientTransform="matrix(446.876,446.876,446.876,-446.876,16255.8,11804.2)" spreadMethod="pad" id="H" xlink:href="#S"><stop offset="0" stop-color="#ff313f"/><stop offset=".095" stop-color="#ff313f"/><stop offset="1" stop-color="#6b0008"/></linearGradient><clipPath id="I"><path d="M15867.1 12192.9l197.1 35.6 249.8-249.8V11746z"/></clipPath><linearGradient x1="0" y1="0" x2="1" y2="0" gradientTransform="matrix(-305.225,528.664,528.664,305.225,16293.6,11734.2)" spreadMethod="pad" id="J" xlink:href="#S"><stop offset="0" stop-color="#6b0008"/><stop offset=".228" stop-color="#6b0008"/><stop offset=".927" stop-color="#ff313f"/></linearGradient><clipPath id="K"><path d="M16314 13040.3l-446.9-847.4 197.1 35.6 249.8 473.8z"/></clipPath><linearGradient x1="15867.1" y1="12616.6" x2="16313.986" y2="12616.6" spreadMethod="pad" id="L" xlink:href="#S"><stop offset="0" stop-color="#6b0008"/><stop offset=".228" stop-color="#6b0008"/><stop offset=".927" stop-color="#ff313f"/></linearGradient><clipPath id="M"><path d="M15803.5 11521.2c0-55.3-44.8-100.1-100.1-100.1s-100.1 44.8-100.1 100.1c0 55.2 44.8 100.1 100.1 100.1s100.1-44.9 100.1-100.1z"/></clipPath><linearGradient x1="0" y1="0" x2="1" y2="0" gradientTransform="matrix(0,200.161,200.161,0,15703.4,11421.1)" spreadMethod="pad" id="N" xlink:href="#S"><stop offset="0" stop-color="#6b0008"/><stop offset=".228" stop-color="#6b0008"/><stop offset=".927" stop-color="#ff313f"/></linearGradient><clipPath id="O"><path d="M17024.7 11521.2c0-55.3-44.8-100.1-100.1-100.1-55.2 0-100 44.8-100 100.1 0 55.2 44.8 100.1 100 100.1 55.3 0 100.1-44.9 100.1-100.1z"/></clipPath><linearGradient x1="0" y1="0" x2="1" y2="0" gradientTransform="matrix(0,200.161,200.161,0,16924.6,11421.1)" spreadMethod="pad" id="P" xlink:href="#S"><stop offset="0" stop-color="#6b0008"/><stop offset=".228" stop-color="#6b0008"/><stop offset=".927" stop-color="#ff313f"/></linearGradient><clipPath id="Q"><path d="M16414.1 11421.1c0-55.3-44.8-100.1-100.1-100.1s-100.1 44.8-100.1 100.1 44.8 100.1 100.1 100.1 100.1-44.8 100.1-100.1z"/></clipPath><linearGradient x1="0" y1="0" x2="1" y2="0" gradientTransform="matrix(0,200.161,200.161,0,16314,11321)" spreadMethod="pad" id="R" xlink:href="#S"><stop offset="0" stop-color="#6b0008"/><stop offset=".228" stop-color="#6b0008"/><stop offset=".927" stop-color="#ff313f"/></linearGradient><linearGradient id="S" gradientUnits="userSpaceOnUse"/></defs><g transform="matrix(.615451 0 0 -.615451 -887.67642 873.35354)"><path d="M1749.913 1131.149h-237.034l-10.454 55.867h257.942l-10.454-55.867M1529.43 1243.46l7.13 65.08c.59 5.37 7.23 7.56 10.9 3.59l55-59.49-27.6-40.05-31.38 13.4-14.05 17.47m203.945.008l-7.125 65.071c-.596 5.381-7.231 7.572-10.9 3.594l-55-59.488 27.606-40.048 31.371 13.399 14.048 17.472" fill="#be6d00"/><g clip-path="url(#A)" transform="scale(.1)"><g transform="scale(1.10405)"><path d="M15759.7 10453.5l15.1 80.3c4.4 23.8 22.5 42.4 46.1 47.7 57.4 12.8 114.5 26.8 171.5 41.7 31.9 8.4 56.4 34.1 63.8 66.2l242.3 1062.4c12.2 53.2-49.9 91.5-92 56.7l-804.3-665-518.8 961.1c72.3 58.9 72.3 169.3 0 228.2l-13.8 11.3c-54.1 44.2-131.9 44.2-186.1 0l-13.9-11.3c-72.2-58.9-72.2-169.3 0-228.2l-518.8-961.1-804.3 665c-42 34.8-104.2-3.5-92-56.7l251.3-1101.8c1.8-7.9 7.9-14.2 15.8-16.4 69.8-18.9 140-36.4 210.5-52.1 23.6-5.3 41.8-23.9 46.3-47.7l14.9-80.3c8.2-43.5-31.5-80.4-74.4-69.7-42.4 10.5-84.8 21.7-127 33.5-16 4.4-30.7-9.6-27.1-25.8l55.3-242.5h0c746-277.38 1566.8-277.38 2312.8 0l55.3 242.5c3.8 16.2-11.1 30.2-27 25.8l-127-33.5c-43-10.7-82.6 26.2-74.5 69.7" fill="url(#B)"/></g></g><path d="M1631.402 1366.506a16.23 16.23 0 0 1-10.272-3.656l-1.524-1.248c-7.986-6.506-7.986-18.689 0-25.195l-57.282-106.115-88.796 73.431c-1.237 1.016-2.629 1.469-3.987 1.469-3.722 0-7.158-3.424-6.174-7.732l27.747-121.645c.199-.873.873-1.58 1.745-1.811 7.71-2.088 15.453-4.021 23.24-5.755 2.607-.585 4.617-2.64 5.103-5.258l1.657-8.87c.795-4.23-2.529-7.909-6.561-7.909-.541 0-1.105.066-1.668.21a494.57 494.57 0 0 0-14.017 3.7c-.221.055-.442.088-.663.088-1.48 0-2.673-1.381-2.331-2.927l6.119-26.786c41.178-15.309 84.422-22.966 127.665-22.966 43.255 0 86.487 7.657 127.676 22.966l6.108 26.775c.342 1.557-.851 2.938-2.331 2.938-.221 0-.442-.033-.663-.088l-14.017-3.7a6.7 6.7 0 0 0-1.668-.21c-4.032 0-7.345 3.678-6.561 7.909l1.668 8.87c.486 2.618 2.485 4.672 5.103 5.258 6.329 1.414 12.636 2.96 18.921 4.606 3.524.928 6.23 3.756 7.047 7.312l26.752 117.293c.994 4.308-2.441 7.732-6.174 7.732-1.348 0-2.75-.453-3.976-1.469l-88.807-73.431-57.282 106.115c7.986 6.506 7.986 18.689 0 25.195l-1.513 1.248c-3.004 2.441-6.638 3.656-10.283 3.656zm0-1.999c3.269 0 6.473-1.138 9.013-3.203l1.524-1.248c3.336-2.717 5.258-6.749 5.258-11.046a14.21 14.21 0 0 0-5.258-11.057c-.74-.608-.95-1.657-.497-2.496l57.282-106.115a1.97 1.97 0 0 1 1.381-1.005 1.4 1.4 0 0 1 .376-.044c.464 0 .917.166 1.27.464l88.807 73.42c.817.674 1.723 1.016 2.706 1.016 1.314 0 2.607-.63 3.446-1.69.574-.707 1.171-1.911.784-3.601l-26.763-117.293c-.652-2.85-2.783-5.081-5.6-5.821-6.451-1.69-12.791-3.236-18.855-4.595a8.64 8.64 0 0 1-6.638-6.837l-1.657-8.87c-.464-2.54.188-5.136 1.845-7.113 1.657-1.999 4.098-3.159 6.683-3.159.729 0 1.447.088 2.143.265l14.205 3.733c.166 0 .276-.122.309-.155.11-.144.077-.287.066-.331l-5.865-25.725c-40.449-14.912-82.831-22.468-125.964-22.468a363.07 363.07 0 0 0-125.964 22.468l-5.865 25.725c-.011.044-.044.188.066.331.033.033.122.144.387.144l.055-.011 14.072-3.711c.696-.177 1.414-.265 2.143-.265 2.585 0 5.026 1.16 6.683 3.159 1.657 1.977 2.32 4.573 1.845 7.113l-1.657 8.87c-.63 3.402-3.247 6.086-6.638 6.837a550.96 550.96 0 0 0-23.152 5.744c-.155.044-.276.166-.309.32l-27.758 121.645c-.387 1.69.21 2.894.784 3.612.839 1.049 2.132 1.679 3.446 1.679.972 0 1.911-.353 2.717-1.016l88.796-73.42a2 2 0 0 1 1.27-.464c.133 0 .265.011.376.044a1.97 1.97 0 0 1 1.381 1.005l57.282 106.115a1.99 1.99 0 0 1-.497 2.496 14.2 14.2 0 0 0-5.247 11.057c0 4.297 1.911 8.328 5.247 11.046l1.524 1.248c2.54 2.066 5.744 3.203 9.013 3.203" fill="#fff59c"/><g clip-path="url(#C)" transform="scale(.1)"><g transform="scale(1.11147)"><path d="M14677.8 12402.6h0c-58.4 0-115.4-20.3-160.7-57.2l-13.7-11.3c-59.4-48.5-93.6-120.3-93.6-197 0-44.6 11.5-87.5 32.8-125.1l-207.9-385.2-232.8 251.8c-31.6 34.2-74.4 53-120.6 53-84.4 0-154.9-63.1-164.1-146.8l-29.6-270.7-361.4 298.8c-29.6 24.5-66.8 38-104.6 38-49.9 0-98.3-23.4-129.5-62.6-31.2-39.1-42.7-89.7-31.4-139l249.7-1094.5c10.7-46.9 46.2-83.8 92.6-96.4l43.1-11.5c-20.1-8.2-38.1-21.6-52.2-39.2-24.7-31-33.8-70.9-25-109.6l55-240.9 13-56.8 54.7-20.37c380.8-141.61 779.9-213.43 1186.2-213.43s805.4 71.82 1186.3 213.43l54.7 20.37 12.9 56.8 55 240.9c8.8 38.7-.2 78.6-24.9 109.6-14.1 17.6-32.1 31-52.3 39.2 1.2.3 2.4.6 3.5 1 70.8 18.5 124.9 74.5 141.2 146.1l240.8 1055.3c11.2 49.3-.2 99.9-31.3 139-31.4 39.2-79.8 62.6-129.6 62.6-37.9 0-75-13.5-104.6-38l-361.5-298.8-29.6 270.7c-9.1 83.7-79.7 146.8-164.1 146.8-46.1 0-88.9-18.8-120.5-53l-232.9-251.8-207.9 385.2c21.3 37.6 32.8 80.5 32.8 125.1 0 76.7-34 148.5-93.5 197l-13.8 11.2c-45.2 36.9-102.3 57.2-160.7 57.3zm0-108c32.8 0 65.5-11 92.4-32.9l13.8-11.2c71.8-58.6 71.8-168.2 0-226.8l313.7-581.1 335.3 362.7c11.7 12.6 26.7 18.3 41.3 18.3 27.1 0 53.4-19.2 56.8-50.6l51.5-469.8 515.7 426.5c11.1 9.2 23.6 13.2 35.8 13.2 33.6 0 64.5-30.8 55.6-69.6l-240.8-1055.3c-7.3-31.9-31.6-57.4-63.3-65.7-56.6-14.9-113.4-28.8-170.3-41.5-23.5-5.2-41.5-23.8-45.9-47.3l-14.9-79.8c-7.1-38.1 22.6-71.1 59-71.1 4.8 0 9.9.6 14.9 1.8l126.2 33.3c1.9.6 4 .8 5.9.8 13.3 0 24.1-12.4 21-26.4l-55-240.9a3295.63 3295.63 0 0 0-1148.7-206.64c-389 0-778.1 68.9-1148.6 206.64l-55 240.9c-3.2 14 7.6 26.4 21 26.4 1.9 0 3.9-.2 5.9-.8l126.1-33.3c5.1-1.2 10.1-1.8 15-1.8 36.3 0 66.2 33 59 71.1l-14.8 79.8c-4.5 23.5-22.5 42.1-46 47.3-70 15.6-139.7 33-209.1 51.8-7.8 2.1-13.9 8.4-15.7 16.3l-249.6 1094.4c-8.9 38.8 22 69.6 55.6 69.6 12.2 0 24.7-4 35.8-13.2l515.7-426.5 51.4 469.8c3.5 31.4 29.7 50.6 56.8 50.6 14.7 0 29.7-5.7 41.3-18.3l335.3-362.7 313.8 581.1c-71.8 58.6-71.8 168.2 0 226.8l13.7 11.2a146.24 146.24 0 0 0 92.4 32.9" fill="url(#D)"/></g></g><path d="M1631.396 1270.225l-24.978-47.374 24.978-24.988 24.978 24.988-24.978 47.374" fill="#ff313f"/><g transform="scale(.1)"><g clip-path="url(#E)"><g transform="scale(1.02828)"><path d="M15865.4 12681.7V12353l242.9-460.7 191.7-34.7-434.6 824.1" fill="url(#F)"/></g></g><g clip-path="url(#G)"><g transform="scale(1.02828)"><path d="M15865.4 11423l434.6 434.6-191.7 34.7-242.9-243V11423" fill="url(#H)"/></g></g><g clip-path="url(#I)"><g transform="scale(1.00086)"><path d="M15853.5 12182.4l196.9 35.6 249.6-249.6v-232.5l-446.5 446.5" fill="url(#J)"/></g></g><g clip-path="url(#K)"><g transform="scale(1.00086)"><path d="M16300 13029.1l-446.5-846.7 196.9 35.6 249.6 473.4v337.7" fill="url(#L)"/></g></g></g><path d="M1631.409 1308.593c-1.691 0-3.238-.928-4.033-2.434l-44.688-84.734c-.928-1.774-.608-3.94.804-5.353l44.698-44.688c.846-.856 2.001-1.341 3.218-1.341 1.207 0 2.372.485 3.228 1.341l44.677 44.688a4.54 4.54 0 0 1 .815 5.353l-44.677 84.734c-.794 1.506-2.351 2.434-4.043 2.434zm0-4.558l44.688-84.744-44.688-44.688-44.688 44.688 44.688 84.744" fill="#2d0006"/><path d="M1633.987 1265.317l-2.591 38.706-2.591-38.716-22.386-42.456 24.978 40.159 24.978-40.159-22.386 42.466" fill="#fff"/><g clip-path="url(#M)" transform="scale(.1)"><path d="M15803.5 11521.2c0-55.3-44.8-100.1-100.1-100.1s-100.1 44.8-100.1 100.1c0 55.2 44.8 100.1 100.1 100.1s100.1-44.9 100.1-100.1" fill="url(#N)"/></g><path d="M1570.34 1159.89c5.14 0 9.33-3.89 9.89-8.89.06.37.12.74.12 1.12 0 5.52-4.48 10.01-10.01 10.01s-10.01-4.49-10.01-10.01c0-.38.06-.75.11-1.12.57 5 4.75 8.89 9.9 8.89" fill="#fff"/><path d="M1570.34 1166.69a14.59 14.59 0 0 1-14.57-14.57c0-8.04 6.53-14.57 14.57-14.57a14.59 14.59 0 0 1 14.57 14.57c0 8.03-6.54 14.57-14.57 14.57zm0-4.56c5.53 0 10.01-4.49 10.01-10.01a10.01 10.01 0 0 0-20.02 0c0 5.52 4.48 10.01 10.01 10.01" fill="#2d0006"/><g clip-path="url(#O)" transform="scale(.1)"><g transform="scale(1.04446)"><path d="M16300 11030.7c0-52.9-42.9-95.8-95.8-95.8s-95.8 42.9-95.8 95.8c0 53 42.9 95.9 95.8 95.9s95.8-42.9 95.8-95.9" fill="url(#P)"/></g></g><path d="M1692.464 1159.894c5.149 0 9.337-3.896 9.891-8.888.052.366.115.731.115 1.107 0 5.536-4.481 10.016-10.006 10.016s-10.006-4.481-10.006-10.016c0-.376.063-.742.115-1.107.554 4.993 4.742 8.888 9.891 8.888" fill="#fff"/><path d="M1692.466 1166.69c-8.032 0-14.567-6.535-14.567-14.567s6.535-14.578 14.567-14.578 14.567 6.545 14.567 14.578-6.535 14.567-14.567 14.567zm0-4.566c5.53 0 10.012-4.472 10.012-10.001s-4.482-10.012-10.012-10.012c-5.519 0-10.001 4.482-10.001 10.012s4.482 10.001 10.001 10.001" fill="#2d0006"/><g clip-path="url(#Q)" transform="scale(.1)"><g transform="scale(1.007)"><path d="M16300 11341.7c0-54.9-44.5-99.4-99.4-99.4s-99.4 44.5-99.4 99.4 44.5 99.4 99.4 99.4 99.4-44.5 99.4-99.4" fill="url(#R)"/></g></g><path d="M1631.4 1149.883c5.136 0 9.325-3.897 9.899-8.892.05.373.111.735.111 1.118a10.01 10.01 0 0 1-20.019 0c0-.383.07-.745.121-1.118.554 4.995 4.753 8.892 9.889 8.892" fill="#fff"/><path d="M1631.403 1156.686a14.6 14.6 0 0 1-14.571-14.571c0-8.038 6.544-14.571 14.571-14.571s14.571 6.533 14.571 14.571a14.6 14.6 0 0 1-14.571 14.571zm0-4.564c5.534 0 10.007-4.484 10.007-10.007a10 10 0 0 0-10.007-10.007c-5.524 0-10.007 4.473-10.007 10.007 0 5.524 4.484 10.007 10.007 10.007" fill="#2d0006"/><path d="M1631.402 1383.056h0c-7.536 0-14.894-2.62-20.735-7.38l-1.527-1.249a32.64 32.64 0 0 1-12.073-25.429c0-4.794 1.059-9.532 3.055-13.846l-18.952-35.105-21.56 23.322c-4.381 4.738-10.323 7.347-16.733 7.347-11.706 0-21.494-8.762-22.764-20.368l-2.386-21.705-33.656 27.837c-4.114 3.389-9.264 5.262-14.526 5.262-6.912 0-13.623-3.244-17.948-8.662-4.337-5.44-5.92-12.475-4.37-19.297l27.759-121.648c1.271-5.607 4.972-10.234 9.978-12.742a18.83 18.83 0 0 1-3.467-15.797l6.098-26.778 1.449-6.317c.334-1.495 1.405-2.717 2.854-3.252l6.065-2.261c42.842-15.93 87.736-24.007 133.443-24.007 45.696 0 90.601 8.078 133.443 24.007l6.076 2.261c1.427.535 2.497 1.757 2.843 3.252l1.449 6.317 6.109 26.778c1.293 5.652-.045 11.494-3.657 16.02-.123.167-.256.323-.39.468 5.764 3.657 9.966 9.487 11.549 16.399l26.755 117.3c1.561 6.823-.045 13.857-4.37 19.286s-11.037 8.673-17.948 8.673c-5.262 0-10.423-1.873-14.526-5.262l-33.667-27.837-2.375 21.705c-1.271 11.605-11.059 20.368-22.764 20.368-6.41 0-12.363-2.609-16.744-7.347l-21.549-23.322-18.952 35.105c2.007 4.314 3.055 9.052 3.055 13.857a32.67 32.67 0 0 1-12.073 25.418l-1.527 1.249c-5.842 4.76-13.199 7.38-20.735 7.38zm0-4.548c6.488 0 12.831-2.252 17.859-6.354l1.527-1.249c6.611-5.385 10.401-13.367 10.401-21.895 0-4.961-1.282-9.721-3.645-13.913l23.11-42.809 25.875 27.993c3.512 3.79 8.272 5.886 13.4 5.886 9.387 0 17.224-7.012 18.238-16.321l3.289-30.089 40.178 33.21c3.289 2.72 7.413 4.225 11.627 4.225 5.541 0 10.914-2.598 14.403-6.956 3.456-4.348 4.727-9.978 3.478-15.451l-26.767-117.289c-1.806-7.96-7.826-14.18-15.685-16.243-.134-.033-.256-.067-.39-.111 2.241-.914 4.236-2.397 5.808-4.359 2.742-3.445 3.757-7.882 2.776-12.174l-6.109-26.778-1.449-6.319-6.076-2.26c-42.329-15.74-86.688-23.722-131.849-23.722s-89.519 7.982-131.849 23.722l-6.087 2.26-1.438 6.319-6.109 26.778c-.981 4.292.033 8.729 2.776 12.174 1.561 1.962 3.567 3.445 5.808 4.359l-4.794 1.282a14.41 14.41 0 0 0-10.301 10.713l-27.748 121.659c-1.249 5.463.022 11.104 3.489 15.44 3.467 4.359 8.852 6.956 14.392 6.956 4.203 0 8.339-1.505 11.627-4.225l40.167-33.21 3.289 30.089c1.026 9.309 8.863 16.321 18.249 16.321 5.128 0 9.888-2.096 13.4-5.886l25.875-27.993 23.11 42.809c-2.375 4.192-3.645 8.952-3.645 13.902 0 8.539 3.802 16.521 10.401 21.906l1.527 1.249c5.028 4.103 11.371 6.354 17.859 6.354m0 0h0" fill="#243700"/><path d="M1672.135 1357.035h0c-5.591-1.826-9.971-6.206-11.797-11.797-1.826 5.591-6.206 9.971-11.797 11.797 5.591 1.826 9.971 6.206 11.797 11.797 1.826-5.591 6.206-9.971 11.797-11.797m135.942-54.665h0c-5.591-1.83-9.983-6.212-11.802-11.802-1.819 5.591-6.212 9.972-11.791 11.802a18.4 18.4 0 0 1 11.791 11.791c1.819-5.591 6.212-9.972 11.802-11.791m-15.436-23.986h0c-3.86-1.265-6.896-4.289-8.149-8.16-1.276 3.871-4.3 6.896-8.16 8.16a12.79 12.79 0 0 1 8.16 8.149c1.254-3.86 4.289-6.885 8.149-8.149" fill="#fff"/></g></svg>